<svg width="316" height="53" viewBox="0 0 316 53" fill="none" xmlns="http://www.w3.org/2000/svg">
<g clip-path="url(#clip0_534_5219)">
<path d="M0.5 10C0.5 4.75329 4.75329 0.5 10 0.5H294.5V43C294.5 48.2467 290.247 52.5 285 52.5H10C4.75329 52.5 0.5 48.2467 0.5 43V10Z" fill="#34AD82"/>
<g filter="url(#filter0_d_534_5219)">
<path d="M31.5358 21.922C31.6238 20.558 32.1444 19.4947 33.0978 18.732C34.0658 17.9693 35.2978 17.588 36.7938 17.588C37.8204 17.588 38.7078 17.7713 39.4558 18.138C40.2038 18.5047 40.7684 19.0033 41.1498 19.634C41.5311 20.2647 41.7218 20.976 41.7218 21.768C41.7218 22.6773 41.4798 23.4547 40.9958 24.1C40.5118 24.7453 39.9324 25.178 39.2578 25.398V25.486C40.1231 25.75 40.7978 26.234 41.2818 26.938C41.7658 27.6273 42.0078 28.5147 42.0078 29.6C42.0078 30.4653 41.8098 31.2353 41.4138 31.91C41.0178 32.5847 40.4311 33.12 39.6538 33.516C38.8764 33.8973 37.9451 34.088 36.8598 34.088C35.2758 34.088 33.9704 33.6847 32.9438 32.878C31.9318 32.0567 31.3891 30.8833 31.3158 29.358H33.7358C33.7944 30.1353 34.0951 30.7733 34.6378 31.272C35.1804 31.756 35.9138 31.998 36.8378 31.998C37.7324 31.998 38.4218 31.756 38.9058 31.272C39.3898 30.7733 39.6318 30.1353 39.6318 29.358C39.6318 28.3313 39.3018 27.6053 38.6418 27.18C37.9964 26.74 36.9991 26.52 35.6498 26.52H35.0778V24.452H35.6718C36.8598 24.4373 37.7618 24.2393 38.3778 23.858C39.0084 23.4767 39.3238 22.8753 39.3238 22.054C39.3238 21.35 39.0964 20.7927 38.6418 20.382C38.1871 19.9567 37.5418 19.744 36.7058 19.744C35.8844 19.744 35.2464 19.9567 34.7918 20.382C34.3371 20.7927 34.0658 21.306 33.9778 21.922H31.5358ZM53.1951 31.976H58.3651V34H50.6871V18.71H53.1951V31.976ZM62.9705 20.734V25.222H68.2505V27.268H62.9705V31.954H68.9105V34H60.4625V18.688H68.9105V20.734H62.9705ZM85.1776 18.71L79.4356 34H76.5316L70.7676 18.71H73.4516L77.9836 31.426L82.5376 18.71H85.1776ZM89.783 20.734V25.222H95.063V27.268H89.783V31.954H95.723V34H87.275V18.688H95.723V20.734H89.783ZM101.32 31.976H106.49V34H98.8121V18.71H101.32V31.976ZM113.626 34.154C112.599 34.154 111.675 33.978 110.854 33.626C110.032 33.2593 109.387 32.746 108.918 32.086C108.448 31.426 108.214 30.656 108.214 29.776H110.898C110.956 30.436 111.213 30.9787 111.668 31.404C112.137 31.8293 112.79 32.042 113.626 32.042C114.491 32.042 115.166 31.8367 115.65 31.426C116.134 31.0007 116.376 30.458 116.376 29.798C116.376 29.2847 116.222 28.8667 115.914 28.544C115.62 28.2213 115.246 27.972 114.792 27.796C114.352 27.62 113.736 27.4293 112.944 27.224C111.946 26.96 111.132 26.696 110.502 26.432C109.886 26.1533 109.358 25.728 108.918 25.156C108.478 24.584 108.258 23.8213 108.258 22.868C108.258 21.988 108.478 21.218 108.918 20.558C109.358 19.898 109.974 19.392 110.766 19.04C111.558 18.688 112.474 18.512 113.516 18.512C114.997 18.512 116.207 18.886 117.146 19.634C118.099 20.3673 118.627 21.3793 118.73 22.67H115.958C115.914 22.1127 115.65 21.636 115.166 21.24C114.682 20.844 114.044 20.646 113.252 20.646C112.533 20.646 111.946 20.8293 111.492 21.196C111.037 21.5627 110.81 22.0907 110.81 22.78C110.81 23.2493 110.949 23.638 111.228 23.946C111.521 24.2393 111.888 24.474 112.328 24.65C112.768 24.826 113.369 25.0167 114.132 25.222C115.144 25.5007 115.965 25.7793 116.596 26.058C117.241 26.3367 117.784 26.7693 118.224 27.356C118.678 27.928 118.906 28.698 118.906 29.666C118.906 30.4433 118.693 31.1767 118.268 31.866C117.857 32.5553 117.248 33.1127 116.442 33.538C115.65 33.9487 114.711 34.154 113.626 34.154ZM136.886 24.98V27.092H127.844V24.98H136.886ZM145.79 21.922C145.878 20.558 146.398 19.4947 147.352 18.732C148.32 17.9693 149.552 17.588 151.048 17.588C152.074 17.588 152.962 17.7713 153.71 18.138C154.458 18.5047 155.022 19.0033 155.404 19.634C155.785 20.2647 155.976 20.976 155.976 21.768C155.976 22.6773 155.734 23.4547 155.25 24.1C154.766 24.7453 154.186 25.178 153.512 25.398V25.486C154.377 25.75 155.052 26.234 155.536 26.938C156.02 27.6273 156.262 28.5147 156.262 29.6C156.262 30.4653 156.064 31.2353 155.668 31.91C155.272 32.5847 154.685 33.12 153.908 33.516C153.13 33.8973 152.199 34.088 151.114 34.088C149.53 34.088 148.224 33.6847 147.198 32.878C146.186 32.0567 145.643 30.8833 145.57 29.358H147.99C148.048 30.1353 148.349 30.7733 148.892 31.272C149.434 31.756 150.168 31.998 151.092 31.998C151.986 31.998 152.676 31.756 153.16 31.272C153.644 30.7733 153.886 30.1353 153.886 29.358C153.886 28.3313 153.556 27.6053 152.896 27.18C152.25 26.74 151.253 26.52 149.904 26.52H149.332V24.452H149.926C151.114 24.4373 152.016 24.2393 152.632 23.858C153.262 23.4767 153.578 22.8753 153.578 22.054C153.578 21.35 153.35 20.7927 152.896 20.382C152.441 19.9567 151.796 19.744 150.96 19.744C150.138 19.744 149.5 19.9567 149.046 20.382C148.591 20.7927 148.32 21.306 148.232 21.922H145.79ZM164.105 26.322C164.105 24.826 164.45 23.484 165.139 22.296C165.843 21.108 166.789 20.184 167.977 19.524C169.18 18.8493 170.492 18.512 171.915 18.512C173.543 18.512 174.988 18.9153 176.249 19.722C177.525 20.514 178.449 21.6433 179.021 23.11H176.007C175.611 22.3033 175.061 21.702 174.357 21.306C173.653 20.91 172.839 20.712 171.915 20.712C170.903 20.712 170.001 20.9393 169.209 21.394C168.417 21.8487 167.794 22.5013 167.339 23.352C166.899 24.2027 166.679 25.1927 166.679 26.322C166.679 27.4513 166.899 28.4413 167.339 29.292C167.794 30.1427 168.417 30.8027 169.209 31.272C170.001 31.7267 170.903 31.954 171.915 31.954C172.839 31.954 173.653 31.756 174.357 31.36C175.061 30.964 175.611 30.3627 176.007 29.556H179.021C178.449 31.0227 177.525 32.152 176.249 32.944C174.988 33.736 173.543 34.132 171.915 34.132C170.478 34.132 169.165 33.802 167.977 33.142C166.789 32.4673 165.843 31.536 165.139 30.348C164.45 29.16 164.105 27.818 164.105 26.322ZM188.931 34.154C187.508 34.154 186.195 33.824 184.993 33.164C183.805 32.4893 182.859 31.558 182.155 30.37C181.465 29.1673 181.121 27.818 181.121 26.322C181.121 24.826 181.465 23.484 182.155 22.296C182.859 21.108 183.805 20.184 184.993 19.524C186.195 18.8493 187.508 18.512 188.931 18.512C190.368 18.512 191.681 18.8493 192.869 19.524C194.071 20.184 195.017 21.108 195.707 22.296C196.396 23.484 196.741 24.826 196.741 26.322C196.741 27.818 196.396 29.1673 195.707 30.37C195.017 31.558 194.071 32.4893 192.869 33.164C191.681 33.824 190.368 34.154 188.931 34.154ZM188.931 31.976C189.943 31.976 190.845 31.7487 191.637 31.294C192.429 30.8247 193.045 30.1647 193.485 29.314C193.939 28.4487 194.167 27.4513 194.167 26.322C194.167 25.1927 193.939 24.2027 193.485 23.352C193.045 22.5013 192.429 21.8487 191.637 21.394C190.845 20.9393 189.943 20.712 188.931 20.712C187.919 20.712 187.017 20.9393 186.225 21.394C185.433 21.8487 184.809 22.5013 184.355 23.352C183.915 24.2027 183.695 25.1927 183.695 26.322C183.695 27.4513 183.915 28.4487 184.355 29.314C184.809 30.1647 185.433 30.8247 186.225 31.294C187.017 31.7487 187.919 31.976 188.931 31.976ZM201.695 18.71V28.456C201.695 29.6147 201.995 30.4873 202.597 31.074C203.213 31.6607 204.063 31.954 205.149 31.954C206.249 31.954 207.099 31.6607 207.701 31.074C208.317 30.4873 208.625 29.6147 208.625 28.456V18.71H211.133V28.412C211.133 29.6587 210.861 30.7147 210.319 31.58C209.776 32.4453 209.05 33.0907 208.141 33.516C207.231 33.9413 206.227 34.154 205.127 34.154C204.027 34.154 203.022 33.9413 202.113 33.516C201.218 33.0907 200.507 32.4453 199.979 31.58C199.451 30.7147 199.187 29.6587 199.187 28.412V18.71H201.695ZM222.34 34L218.82 27.884H216.906V34H214.398V18.71H219.678C220.851 18.71 221.841 18.9153 222.648 19.326C223.469 19.7367 224.078 20.2867 224.474 20.976C224.885 21.6653 225.09 22.4353 225.09 23.286C225.09 24.2833 224.797 25.1927 224.21 26.014C223.638 26.8207 222.751 27.3707 221.548 27.664L225.332 34H222.34ZM216.906 25.882H219.678C220.617 25.882 221.321 25.6473 221.79 25.178C222.274 24.7087 222.516 24.078 222.516 23.286C222.516 22.494 222.281 21.878 221.812 21.438C221.343 20.9833 220.631 20.756 219.678 20.756H216.906V25.882ZM233.336 34.154C232.31 34.154 231.386 33.978 230.564 33.626C229.743 33.2593 229.098 32.746 228.628 32.086C228.159 31.426 227.924 30.656 227.924 29.776H230.608C230.667 30.436 230.924 30.9787 231.378 31.404C231.848 31.8293 232.5 32.042 233.336 32.042C234.202 32.042 234.876 31.8367 235.36 31.426C235.844 31.0007 236.086 30.458 236.086 29.798C236.086 29.2847 235.932 28.8667 235.624 28.544C235.331 28.2213 234.957 27.972 234.502 27.796C234.062 27.62 233.446 27.4293 232.654 27.224C231.657 26.96 230.843 26.696 230.212 26.432C229.596 26.1533 229.068 25.728 228.628 25.156C228.188 24.584 227.968 23.8213 227.968 22.868C227.968 21.988 228.188 21.218 228.628 20.558C229.068 19.898 229.684 19.392 230.476 19.04C231.268 18.688 232.185 18.512 233.226 18.512C234.708 18.512 235.918 18.886 236.856 19.634C237.81 20.3673 238.338 21.3793 238.44 22.67H235.668C235.624 22.1127 235.36 21.636 234.876 21.24C234.392 20.844 233.754 20.646 232.962 20.646C232.244 20.646 231.657 20.8293 231.202 21.196C230.748 21.5627 230.52 22.0907 230.52 22.78C230.52 23.2493 230.66 23.638 230.938 23.946C231.232 24.2393 231.598 24.474 232.038 24.65C232.478 24.826 233.08 25.0167 233.842 25.222C234.854 25.5007 235.676 25.7793 236.306 26.058C236.952 26.3367 237.494 26.7693 237.934 27.356C238.389 27.928 238.616 28.698 238.616 29.666C238.616 30.4433 238.404 31.1767 237.978 31.866C237.568 32.5553 236.959 33.1127 236.152 33.538C235.36 33.9487 234.422 34.154 233.336 34.154ZM244.084 20.734V25.222H249.364V27.268H244.084V31.954H250.024V34H241.576V18.688H250.024V20.734H244.084ZM258.151 34.154C257.124 34.154 256.2 33.978 255.379 33.626C254.558 33.2593 253.912 32.746 253.443 32.086C252.974 31.426 252.739 30.656 252.739 29.776H255.423C255.482 30.436 255.738 30.9787 256.193 31.404C256.662 31.8293 257.315 32.042 258.151 32.042C259.016 32.042 259.691 31.8367 260.175 31.426C260.659 31.0007 260.901 30.458 260.901 29.798C260.901 29.2847 260.747 28.8667 260.439 28.544C260.146 28.2213 259.772 27.972 259.317 27.796C258.877 27.62 258.261 27.4293 257.469 27.224C256.472 26.96 255.658 26.696 255.027 26.432C254.411 26.1533 253.883 25.728 253.443 25.156C253.003 24.584 252.783 23.8213 252.783 22.868C252.783 21.988 253.003 21.218 253.443 20.558C253.883 19.898 254.499 19.392 255.291 19.04C256.083 18.688 257 18.512 258.041 18.512C259.522 18.512 260.732 18.886 261.671 19.634C262.624 20.3673 263.152 21.3793 263.255 22.67H260.483C260.439 22.1127 260.175 21.636 259.691 21.24C259.207 20.844 258.569 20.646 257.777 20.646C257.058 20.646 256.472 20.8293 256.017 21.196C255.562 21.5627 255.335 22.0907 255.335 22.78C255.335 23.2493 255.474 23.638 255.753 23.946C256.046 24.2393 256.413 24.474 256.853 24.65C257.293 24.826 257.894 25.0167 258.657 25.222C259.669 25.5007 260.49 25.7793 261.121 26.058C261.766 26.3367 262.309 26.7693 262.749 27.356C263.204 27.928 263.431 28.698 263.431 29.666C263.431 30.4433 263.218 31.1767 262.793 31.866C262.382 32.5553 261.774 33.1127 260.967 33.538C260.175 33.9487 259.236 34.154 258.151 34.154Z" fill="white"/>
</g>
<path d="M0.5 10C0.5 4.75329 4.75329 0.5 10 0.5H294.5V43C294.5 48.2467 290.247 52.5 285 52.5H10C4.75329 52.5 0.5 48.2467 0.5 43V10Z" stroke="#60FFC6"/>
<path d="M316 28L295 0V28H316Z" fill="#147D58"/>
</g>
<defs>
<filter id="filter0_d_534_5219" x="26.5421" y="15.9967" width="241.662" height="26.113" filterUnits="userSpaceOnUse" color-interpolation-filters="sRGB">
<feFlood flood-opacity="0" result="BackgroundImageFix"/>
<feColorMatrix in="SourceAlpha" type="matrix" values="0 0 0 0 0 0 0 0 0 0 0 0 0 0 0 0 0 0 127 0" result="hardAlpha"/>
<feOffset dy="3.18237"/>
<feGaussianBlur stdDeviation="2.38678"/>
<feComposite in2="hardAlpha" operator="out"/>
<feColorMatrix type="matrix" values="0 0 0 0 0 0 0 0 0 0 0 0 0 0 0 0 0 0 0.1 0"/>
<feBlend mode="normal" in2="BackgroundImageFix" result="effect1_dropShadow_534_5219"/>
<feBlend mode="normal" in="SourceGraphic" in2="effect1_dropShadow_534_5219" result="shape"/>
</filter>
<clipPath id="clip0_534_5219">
<rect width="316" height="53" fill="white"/>
</clipPath>
</defs>
</svg>
