<svg width="1000" height="669" viewBox="0 0 1000 669" fill="none" xmlns="http://www.w3.org/2000/svg">
<g clip-path="url(#clip0_458_4456)">
<path fill-rule="evenodd" clip-rule="evenodd" d="M192.886 167.833H208.343V160.369H150.926V167.833H160.372L187.275 194.528L192.815 194.459L192.886 194.528V167.833ZM150.926 160.369H39V167.834H60.1983L87.0724 194.528L92.607 194.459L92.6775 194.528V167.834H150.926V160.369Z" fill="#DEE6EE"/>
<g style="mix-blend-mode:overlay" opacity="0.6">
<path d="M193.08 194.528V166.91H165.462L193.08 194.528V194.528Z" fill="#030F1C"/>
</g>
<g style="mix-blend-mode:overlay" opacity="0.6">
<path d="M163.439 170.544H193.08V167.637H160.374L163.439 170.544V170.544Z" fill="#030F1C"/>
</g>
<g style="mix-blend-mode:overlay" opacity="0.6">
<path d="M92.7822 194.528V166.91H65.1641L92.7822 194.528V194.528Z" fill="#030F1C"/>
</g>
<g style="mix-blend-mode:overlay" opacity="0.6">
<path d="M63.1412 170.544H92.7822V167.637H60.0765L63.1412 170.544V170.544Z" fill="#030F1C"/>
</g>
<g style="mix-blend-mode:overlay" opacity="0.6">
<rect width="57.4166" height="7.26793" transform="matrix(-1 0 0 1 208.343 160.369)" fill="#030F1C"/>
</g>
<path d="M144.483 96.4114H197.33C198.992 96.4114 200.341 97.7441 200.348 99.3924V157.376C200.348 159.029 198.997 160.369 197.33 160.369H144.483C142.821 160.363 141.477 159.025 141.477 157.376V99.3924C141.477 97.746 142.823 96.4114 144.483 96.4114Z" fill="#F76161"/>
<g style="mix-blend-mode:overlay" opacity="0.6">
<path d="M144.514 96.4116H153.106C151.447 96.4116 150.1 97.7443 150.093 99.3926V100.176H146.562C145.989 100.176 145.439 100.403 145.035 100.807C144.631 101.21 144.405 101.757 144.408 102.327V158.218C144.408 159.402 145.371 160.363 146.562 160.369H144.479C142.82 160.363 141.478 159.025 141.478 157.376V99.3926C141.478 98.5959 141.799 97.8323 142.369 97.2722C142.94 96.7121 143.712 96.4022 144.514 96.4116V96.4116Z" fill="#030F1C"/>
</g>
<path d="M146.518 100.045H150.073V157.37C150.073 159.026 151.431 160.369 153.106 160.369H146.553C145.354 160.363 144.385 159.4 144.385 158.214V102.201C144.378 101.026 145.33 100.065 146.518 100.045V100.045Z" fill="#FFE6A5"/>
<rect width="31.2521" height="14.5359" rx="1.35858" transform="matrix(-1 0 0 1 189.446 112.401)" fill="#CFFFEE"/>
<path fill-rule="evenodd" clip-rule="evenodd" d="M74.0691 111.167C72.7714 109.625 71.3827 108.16 69.9103 106.782C63.5483 100.853 39.7262 91.0548 39.7262 91.0548C48.7603 96.1253 56.7791 102.8 63.3833 110.746C73.268 123.047 73.268 127.993 73.268 127.993H77.9805H80.3368V128.39L92.6013 127.969C92.6013 127.969 93.3318 123.351 103.205 110.722C109.171 103.211 116.184 96.5804 124.034 91.0314C124.034 91.0314 104.076 97.4625 98.2446 103.087C96.2502 105.062 94.5022 107.268 93.0381 109.657C93.2061 107.51 93.4281 105.277 93.7088 103.005C98.9986 60.0686 117.649 42.3187 117.649 42.3187C117.649 42.3187 105.396 47.2298 94.2743 66.2541C91.9632 70.4218 90.1107 74.8242 88.7488 79.3853L90.5631 31C90.5631 31 81.0791 54.3858 76.9791 77.9938C73.6895 70.762 69.9637 63.7335 65.8221 56.9466L74.0691 111.167ZM92.5891 118.512C92.6182 117.782 92.6484 117.023 92.6484 116.23C92.6013 117.528 92.5659 118.755 92.5424 119.901C92.5517 119.449 92.5701 118.987 92.5891 118.512ZM92.5071 120.041V123.07C92.5071 122.796 92.5082 122.503 92.5095 122.196C92.5122 121.532 92.5151 120.801 92.5071 120.041ZM92.507 124.52V123.351C92.4952 123.725 92.4952 124.146 92.507 124.543V124.52ZM82.6104 125.724V125.607L82.4926 125.409C82.5067 125.455 82.5284 125.498 82.5493 125.54C82.5807 125.602 82.6104 125.661 82.6104 125.724Z" fill="#85CEB4"/>
<path d="M61.5548 127.687V127.687H105.139V133.112V133.112V144.069C105.139 153.071 97.7509 160.369 88.6376 160.369H78.0204C68.9117 160.363 61.5311 153.067 61.5311 144.069V127.663L61.5548 127.687Z" fill="#DEE6EE"/>
<g style="mix-blend-mode:overlay" opacity="0.6">
<path d="M99.5141 127.687V144.092C99.5013 153.085 92.261 160.369 83.3341 160.369H88.2195C92.5127 160.372 96.6312 158.656 99.668 155.599C102.705 152.542 104.411 148.394 104.411 144.069V127.663L99.5141 127.687Z" fill="#030F1C"/>
</g>
<g style="mix-blend-mode:overlay" opacity="0.6">
<rect width="43.6076" height="5.08755" transform="matrix(1 0 0 -1 61.5303 132.751)" fill="#030F1C"/>
</g>
<g style="mix-blend-mode:overlay" opacity="0.6">
<path d="M92.5232 127.663H86.9688L88.75 79.6939C90.1046 75.1301 91.9471 70.7251 94.2457 66.5549C105.307 47.5426 117.494 42.6287 117.494 42.6287C117.494 42.6287 98.9446 60.3891 93.6832 103.351C92.7413 111.419 92.3537 119.542 92.5232 127.663V127.663Z" fill="#030F1C"/>
</g>
<g style="mix-blend-mode:overlay" opacity="0.6">
<path d="M74.0093 111.531L65.892 57.1646C65.892 57.1646 77.6041 76.1933 82.9615 94.5537C87.9943 111.824 85.849 125.377 85.4315 127.663H83.0079C81.0804 121.743 78.0232 116.262 74.0093 111.531Z" fill="#030F1C"/>
</g>
<path d="M354.183 328.893V330.43H354.345V328.893H570.555V330.43H570.701V328.893L939.279 328.893V610.215H917.189V648.301C917.189 653.902 912.651 658.443 907.05 658.447C906.193 658.438 905.34 658.316 904.514 658.086C900.043 656.94 896.914 652.916 896.904 648.301V610.215H797.511V648.301C797.511 653.905 792.969 658.447 787.365 658.447C786.508 658.438 785.655 658.316 784.829 658.086C780.359 656.94 777.229 652.916 777.219 648.301V610.215H673.092V648.301C673.092 653.905 668.549 658.447 662.946 658.447C662.091 658.437 661.241 658.316 660.417 658.086C655.945 656.943 652.814 652.917 652.807 648.301V610.215H570.701V609.308H570.555V610.215H553.422V648.301C553.422 653.902 548.885 658.443 543.284 658.447C542.426 658.438 541.574 658.316 540.748 658.086C536.277 656.94 533.148 652.916 533.138 648.301V610.215H431.47V648.301C431.47 653.902 426.932 658.443 421.332 658.447C420.474 658.438 419.621 658.316 418.795 658.086C414.325 656.94 411.195 652.916 411.186 648.301V610.215H354.306V609.308H354.168V610.215H307.043V648.301C307.043 653.905 302.5 658.447 296.897 658.447C296.039 658.437 295.187 658.316 294.36 658.086C289.891 656.94 286.764 652.915 286.758 648.301V610.215L187.373 610.215V648.301C187.373 653.905 182.831 658.447 177.227 658.447C176.37 658.437 175.517 658.316 174.691 658.086C170.222 656.94 167.095 652.915 167.089 648.301V610.215H137.95V328.893L354.183 328.893Z" fill="#C1D4EE"/>
<g style="mix-blend-mode:overlay" opacity="0.6">
<rect width="185.726" height="110.408" transform="matrix(-1 0 0 1 556.111 348.279)" fill="#030F1C"/>
</g>
<g style="mix-blend-mode:overlay" opacity="0.6">
<rect width="185.726" height="110.407" transform="matrix(-1 0 0 1 556.112 481.713)" fill="#030F1C"/>
</g>
<g style="mix-blend-mode:overlay" opacity="0.6">
<rect width="151.937" height="281.291" transform="matrix(-1 0 0 1 939.279 328.893)" fill="#030F1C"/>
</g>
<g style="mix-blend-mode:overlay" opacity="0.6">
<rect width="185.726" height="110.408" transform="matrix(-1 0 0 1 556.111 348.279)" fill="#030F1C"/>
</g>
<g style="mix-blend-mode:overlay" opacity="0.6">
<rect width="185.726" height="110.407" transform="matrix(-1 0 0 1 556.112 481.713)" fill="#030F1C"/>
</g>
<g style="mix-blend-mode:overlay" opacity="0.2">
<rect width="73.9276" height="110.408" transform="matrix(-1 0 0 1 444.323 348.279)" fill="#030F1C"/>
</g>
<g style="mix-blend-mode:overlay" opacity="0.2">
<rect width="73.9276" height="110.407" transform="matrix(-1 0 0 1 444.324 481.713)" fill="#030F1C"/>
</g>
<g style="mix-blend-mode:overlay" opacity="0.6">
<rect width="20.2921" height="5.18066" transform="matrix(-1 0 0 1 917.197 610.184)" fill="#030F1C"/>
</g>
<g style="mix-blend-mode:overlay" opacity="0.6">
<path d="M912.116 648.27V610.215H917.189V648.301C917.189 653.901 912.652 658.443 907.051 658.447C906.193 658.437 905.341 658.316 904.515 658.086C908.995 656.937 912.124 652.895 912.116 648.27Z" fill="#030F1C"/>
</g>
<g style="mix-blend-mode:overlay" opacity="0.6">
<rect width="20.2921" height="5.18066" transform="matrix(-1 0 0 1 797.511 610.184)" fill="#030F1C"/>
</g>
<g style="mix-blend-mode:overlay" opacity="0.6">
<path d="M792.47 648.27V610.215H797.543V648.301C797.543 653.904 793 658.447 787.397 658.447C786.539 658.437 785.687 658.316 784.86 658.086C789.342 656.937 792.474 652.896 792.47 648.27Z" fill="#030F1C"/>
</g>
<g style="mix-blend-mode:overlay" opacity="0.6">
<rect width="20.292" height="5.18066" transform="matrix(-1 0 0 1 673.101 610.185)" fill="#030F1C"/>
</g>
<g style="mix-blend-mode:overlay" opacity="0.6">
<path d="M668.019 648.271V610.215H673.092V648.301C673.092 653.905 668.549 658.447 662.946 658.447C662.091 658.437 661.241 658.316 660.417 658.086C664.897 656.937 668.027 652.896 668.019 648.271Z" fill="#030F1C"/>
</g>
<g style="mix-blend-mode:overlay" opacity="0.6">
<rect width="20.2919" height="5.18066" transform="matrix(-1 0 0 1 553.414 610.185)" fill="#030F1C"/>
</g>
<g style="mix-blend-mode:overlay" opacity="0.6">
<path d="M548.333 648.27V610.215H553.422V648.301C553.422 653.901 548.884 658.443 543.283 658.447C542.426 658.437 541.573 658.316 540.747 658.086C545.221 656.931 548.343 652.891 548.333 648.27Z" fill="#030F1C"/>
</g>
<g style="mix-blend-mode:overlay" opacity="0.6">
<rect width="20.292" height="5.18066" transform="matrix(-1 0 0 1 431.479 610.184)" fill="#030F1C"/>
</g>
<g style="mix-blend-mode:overlay" opacity="0.6">
<path d="M426.398 648.271V610.216H431.471V648.302C431.471 653.902 426.933 658.443 421.332 658.448C420.475 658.438 419.622 658.317 418.796 658.086C423.276 656.937 426.406 652.896 426.398 648.271Z" fill="#030F1C"/>
</g>
<g style="mix-blend-mode:overlay" opacity="0.6">
<rect width="20.2921" height="5.18066" transform="matrix(-1 0 0 1 307.059 610.185)" fill="#030F1C"/>
</g>
<g style="mix-blend-mode:overlay" opacity="0.6">
<path d="M301.985 648.27V610.215H307.058V648.301C307.058 653.905 302.515 658.447 296.912 658.447C296.054 658.438 295.201 658.316 294.375 658.086C298.857 656.937 301.989 652.897 301.985 648.27Z" fill="#030F1C"/>
</g>
<g style="mix-blend-mode:overlay" opacity="0.6">
<rect width="20.292" height="5.18066" transform="matrix(-1 0 0 1 187.381 610.185)" fill="#030F1C"/>
</g>
<g style="mix-blend-mode:overlay" opacity="0.6">
<path d="M182.302 648.271V610.216H187.375V648.302C187.375 653.905 182.832 658.448 177.229 658.448C176.371 658.438 175.519 658.316 174.692 658.086C179.175 656.94 182.309 652.898 182.302 648.271Z" fill="#030F1C"/>
</g>
<g style="mix-blend-mode:overlay" opacity="0.6">
<rect width="7.70185" height="242.952" transform="matrix(-1 0 0 1 763.406 347.848)" fill="#030F1C"/>
</g>
<g style="mix-blend-mode:overlay" opacity="0.6">
<rect width="8.11683" height="44.6272" transform="matrix(-1 0 0 1 695.184 444.742)" fill="#030F1C"/>
</g>
<g style="mix-blend-mode:overlay" opacity="0.6">
<rect width="8.11685" height="44.6272" transform="matrix(-1 0 0 1 666.106 444.744)" fill="#030F1C"/>
</g>
<g style="mix-blend-mode:overlay" opacity="0.6">
<path d="M595.289 589.163H595.282V587.195H755.728V590.715H595.289V589.163Z" fill="#030F1C"/>
</g>
<g style="mix-blend-mode:overlay" opacity="0.6">
<rect width="160.438" height="3.52032" transform="matrix(-1 0 0 1 755.729 347.826)" fill="#030F1C"/>
</g>
<g style="mix-blend-mode:overlay" opacity="0.6">
<rect width="3.15896" height="242.852" transform="matrix(-1 0 0 1 595.283 347.825)" fill="#030F1C"/>
</g>
<g style="mix-blend-mode:overlay" opacity="0.6">
<rect width="4.50419" height="235.826" transform="matrix(-1 0 0 1 680.077 351.344)" fill="#030F1C"/>
</g>
<g style="mix-blend-mode:overlay" opacity="0.6">
<rect width="7.70172" height="242.952" transform="matrix(-1 0 0 1 335.682 347.847)" fill="#030F1C"/>
</g>
<g style="mix-blend-mode:overlay" opacity="0.6">
<rect width="8.11665" height="44.6272" transform="matrix(-1 0 0 1 267.449 444.744)" fill="#030F1C"/>
</g>
<g style="mix-blend-mode:overlay" opacity="0.6">
<rect width="8.11685" height="44.6272" transform="matrix(-1 0 0 1 238.382 444.744)" fill="#030F1C"/>
</g>
<g style="mix-blend-mode:overlay" opacity="0.6">
<path d="M167.558 589.162V587.194H327.996V590.714H167.558V589.162Z" fill="#030F1C"/>
</g>
<g style="mix-blend-mode:overlay" opacity="0.6">
<rect width="160.438" height="3.52032" transform="matrix(-1 0 0 1 327.997 347.825)" fill="#030F1C"/>
</g>
<g style="mix-blend-mode:overlay" opacity="0.6">
<rect width="3.15914" height="242.852" transform="matrix(-1 0 0 1 167.559 347.826)" fill="#030F1C"/>
</g>
<g style="mix-blend-mode:overlay" opacity="0.6">
<rect width="4.50411" height="235.826" transform="matrix(-1 0 0 1 252.354 351.345)" fill="#030F1C"/>
</g>
<path fill-rule="evenodd" clip-rule="evenodd" d="M781.258 294.771C782.355 294.771 783.244 295.661 783.244 296.758V297.197C783.244 298.294 782.355 299.183 781.258 299.183H781.123V312.75C781.123 318.202 777.526 322.814 772.575 324.342V327.739H755.365V324.341C750.415 322.813 746.818 318.202 746.818 312.75V299.183H746.683C745.586 299.183 744.697 298.294 744.697 297.197V296.758C744.697 295.661 745.586 294.771 746.683 294.771H781.258Z" fill="#FFB66D"/>
<path fill-rule="evenodd" clip-rule="evenodd" d="M745.718 249.076C746.206 249.144 746.52 248.816 746.881 248.44C747.089 248.223 747.313 247.99 747.594 247.808C747.96 247.569 748.203 247.665 748.427 247.753C748.674 247.85 748.9 247.939 749.246 247.569C749.457 247.344 749.64 247.058 749.815 246.784C750.189 246.198 750.527 245.67 751.014 245.932C751.323 246.098 751.407 246.358 751.469 246.55C751.549 246.802 751.593 246.938 752.06 246.593C752.444 246.309 752.654 245.848 752.805 245.515C752.977 245.135 753.074 244.923 753.266 245.333C753.406 246.21 753.353 247.106 753.113 247.961C758.493 248.407 762.667 256.97 764.642 262.22C765.594 265.009 766.113 267.928 766.179 270.874C766.179 271.167 766.192 271.457 766.204 271.741L766.204 271.741L766.204 271.741C766.213 271.956 766.222 272.168 766.226 272.373V273.334C767.659 272.386 769.261 271.72 770.945 271.374C770.899 270.283 771.13 268.638 771.575 268.676C771.845 268.7 772.102 269.137 772.387 269.62C772.744 270.226 773.144 270.906 773.666 270.936C773.977 270.954 774.205 270.927 774.394 270.904C774.774 270.859 774.997 270.833 775.434 271.228C775.871 271.691 776.517 271.895 777.14 271.766C777.498 271.736 777.59 272.072 777.699 272.469C777.81 272.874 777.939 273.343 778.385 273.549C778.767 273.725 779.138 273.626 779.459 273.541C779.881 273.428 780.216 273.339 780.369 273.934C780.471 274.33 780.44 274.684 780.415 274.978C780.373 275.459 780.346 275.779 780.937 275.855C781.89 275.978 782.813 276.854 780.384 277.185H779.131C779.75 281.794 775.75 286.698 772.343 290.874C771.051 292.458 769.845 293.937 769.008 295.256H758.201C758.122 293.4 758.156 291.542 758.301 289.691C757.171 289.821 754.611 289.998 752.967 289.091C752.562 288.883 752.214 288.579 751.952 288.207C750.33 285.855 750.914 280.728 754.596 281.136C756.533 281.343 758.063 283.234 758.854 284.449L758.985 284.656C759.284 283.161 759.713 281.695 760.269 280.275L759.592 279.506C758.547 278.369 757.048 276.755 754.927 274.525C754.135 273.673 753.41 272.761 752.759 271.797C748.808 266.109 745.165 256.639 747.425 251.42L744.396 250.344C744.227 250.29 744.95 248.953 745.718 249.076Z" fill="#85CEB4"/>
<g style="mix-blend-mode:overlay" opacity="0.6">
<path d="M759.961 276.977C761.014 277.03 763.035 274.217 764.434 272.288C764.885 271.666 765.496 271.177 766.202 270.874C766.202 271.389 766.24 271.896 766.248 272.372V273.425C765.357 273.995 764.507 274.627 763.704 275.316C762.197 276.713 761.045 278.45 760.345 280.382L759.576 279.551C758.531 278.414 757.032 276.8 754.911 274.571C754.119 273.718 753.394 272.806 752.743 271.842C753.627 272.549 759 276.923 759.961 276.977Z" fill="#030F1C"/>
</g>
<g style="mix-blend-mode:overlay" opacity="0.6">
<path d="M757.185 288.8C758.399 288.301 757.077 286.494 757.9 284.719C758 284.519 758.622 284.581 758.853 284.473L758.983 284.68C758.65 286.335 758.421 288.009 758.299 289.692C757.169 289.823 754.61 289.999 752.965 289.092C754.378 289.24 755.806 289.141 757.185 288.8Z" fill="#030F1C"/>
</g>
<g style="mix-blend-mode:overlay" opacity="0.6">
<path d="M780.369 277.169C780.369 277.169 776.18 277.33 775.411 276.4C774.643 275.47 774.42 274.802 773.874 274.64C773.253 274.55 772.706 274.186 772.383 273.649C772.015 273.156 771.609 272.694 771.168 272.265C770.784 271.773 771.007 268.629 771.614 268.683C772.221 268.737 772.767 270.889 773.705 270.943C774.643 270.997 774.812 270.643 775.473 271.235C775.91 271.698 776.556 271.902 777.179 271.773C777.863 271.704 777.502 273.141 778.386 273.549C779.27 273.956 780.1 272.888 780.369 273.933C780.638 274.978 779.985 275.732 780.938 275.855C781.891 275.978 782.798 276.839 780.369 277.169Z" fill="#030F1C"/>
</g>
<g style="mix-blend-mode:overlay" opacity="0.6">
<path d="M752.996 248.307L747.616 251.505L744.364 250.344C744.195 250.29 744.918 248.968 745.686 249.076C746.455 249.183 746.793 248.307 747.562 247.808C748.331 247.308 748.553 248.276 749.214 247.569C749.876 246.862 750.298 245.548 751.013 245.932C751.728 246.316 751.236 247.2 752.058 246.593C752.881 245.986 752.904 244.564 753.265 245.333C753.626 246.101 752.996 248.307 752.996 248.307Z" fill="#030F1C"/>
</g>
<g style="mix-blend-mode:overlay" opacity="0.6">
<path d="M774.658 282.335C774.79 282.337 774.915 282.277 774.996 282.173L775.988 280.951C776.141 280.762 776.112 280.485 775.923 280.332C775.734 280.179 775.457 280.208 775.304 280.397L774.312 281.612C774.237 281.703 774.203 281.821 774.216 281.938C774.229 282.055 774.288 282.162 774.381 282.235C774.458 282.302 774.556 282.337 774.658 282.335Z" fill="#030F1C"/>
</g>
<g style="mix-blend-mode:overlay" opacity="0.6">
<path d="M767.963 285.426C768.098 285.425 768.225 285.363 768.309 285.257L769.293 284.042C769.392 283.92 769.418 283.754 769.361 283.608C769.305 283.461 769.174 283.355 769.019 283.331C768.864 283.306 768.707 283.367 768.608 283.489L767.624 284.703C767.471 284.893 767.499 285.17 767.686 285.326C767.766 285.387 767.862 285.422 767.963 285.426Z" fill="#030F1C"/>
</g>
<g style="mix-blend-mode:overlay" opacity="0.6">
<path d="M756.341 286.187C756.401 286.201 756.464 286.201 756.525 286.187C756.633 286.14 756.717 286.051 756.758 285.941C756.798 285.83 756.792 285.708 756.74 285.602L756.095 284.18C756.045 284.014 755.903 283.892 755.732 283.867C755.561 283.842 755.391 283.918 755.295 284.063C755.2 284.207 755.197 284.394 755.287 284.541L755.941 285.971C756.025 286.111 756.178 286.193 756.341 286.187Z" fill="#030F1C"/>
</g>
<g style="mix-blend-mode:overlay" opacity="0.6">
<path d="M754.373 288.924C754.434 288.938 754.497 288.938 754.558 288.924C754.664 288.876 754.747 288.787 754.787 288.677C754.828 288.567 754.823 288.446 754.773 288.34C754.658 288.094 754.573 287.932 754.489 287.771C754.392 287.604 754.305 287.432 754.227 287.256C754.202 287.065 754.058 286.911 753.868 286.876C753.679 286.84 753.488 286.929 753.395 287.098C753.302 287.267 753.327 287.476 753.459 287.617C753.574 287.871 753.666 288.032 753.751 288.194C753.835 288.355 753.904 288.478 754.012 288.709C754.087 288.839 754.224 288.92 754.373 288.924Z" fill="#030F1C"/>
</g>
<g style="mix-blend-mode:overlay" opacity="0.6">
<path d="M753.312 285.471C753.37 285.482 753.43 285.482 753.489 285.471C753.71 285.369 753.809 285.109 753.711 284.886C753.642 284.736 753.58 284.582 753.527 284.425C753.466 284.239 753.394 284.057 753.312 283.879C753.273 283.702 753.13 283.567 752.951 283.539C752.772 283.512 752.594 283.597 752.504 283.754C752.413 283.911 752.429 284.107 752.543 284.248C752.613 284.397 752.673 284.551 752.72 284.709C752.774 284.848 752.82 284.994 752.935 285.248C753.014 285.382 753.156 285.466 753.312 285.471Z" fill="#030F1C"/>
</g>
<g style="mix-blend-mode:overlay" opacity="0.6">
<path d="M761.129 292.113C761.26 292.113 761.385 292.054 761.467 291.951L762.49 290.737C762.61 290.546 762.569 290.297 762.395 290.154C762.222 290.011 761.969 290.02 761.806 290.175L760.814 291.398C760.662 291.585 760.689 291.86 760.875 292.013C760.947 292.072 761.036 292.107 761.129 292.113Z" fill="#030F1C"/>
</g>
<g style="mix-blend-mode:overlay" opacity="0.6">
<path d="M768.016 292.827C768.149 292.825 768.273 292.762 768.355 292.658L769.346 291.443C769.499 291.253 769.472 290.976 769.285 290.82C769.194 290.746 769.076 290.711 768.959 290.724C768.842 290.737 768.735 290.797 768.662 290.889L767.67 292.104C767.596 292.195 767.561 292.313 767.574 292.43C767.587 292.547 767.647 292.654 767.739 292.727C767.818 292.79 767.915 292.825 768.016 292.827Z" fill="#030F1C"/>
</g>
<g style="mix-blend-mode:overlay" opacity="0.6">
<path d="M768.163 277.822C768.297 277.823 768.424 277.764 768.509 277.661L769.493 276.439C769.646 276.25 769.616 275.972 769.428 275.82C769.239 275.667 768.961 275.696 768.809 275.885L767.817 277.1C767.742 277.191 767.707 277.308 767.72 277.426C767.733 277.543 767.793 277.65 767.886 277.722C767.963 277.789 768.061 277.825 768.163 277.822Z" fill="#030F1C"/>
</g>
<g style="mix-blend-mode:overlay" opacity="0.6">
<path d="M763.566 268.892C763.624 268.89 763.682 268.877 763.735 268.853C763.959 268.755 764.062 268.494 763.966 268.269L763.343 266.831C763.297 266.724 763.211 266.639 763.103 266.596C762.994 266.553 762.873 266.554 762.766 266.6C762.545 266.702 762.443 266.96 762.536 267.185L763.158 268.622C763.225 268.788 763.387 268.895 763.566 268.892Z" fill="#030F1C"/>
</g>
<g style="mix-blend-mode:overlay" opacity="0.6">
<path d="M757.648 265.027C757.707 265.038 757.767 265.038 757.825 265.027C758.046 264.925 758.148 264.668 758.056 264.443L757.433 263.005C757.321 262.809 757.08 262.729 756.872 262.817C756.665 262.905 756.556 263.134 756.618 263.351L757.241 264.796C757.324 264.943 757.48 265.031 757.648 265.027Z" fill="#030F1C"/>
</g>
<g style="mix-blend-mode:overlay" opacity="0.6">
<path d="M757.064 272.382C757.119 272.396 757.178 272.396 757.233 272.382C757.342 272.338 757.428 272.251 757.471 272.142C757.515 272.034 757.512 271.912 757.464 271.805L756.841 270.367C756.797 270.259 756.711 270.173 756.602 270.129C756.493 270.086 756.371 270.088 756.264 270.137C756.156 270.181 756.07 270.267 756.026 270.376C755.983 270.485 755.985 270.607 756.034 270.713L756.656 272.151C756.735 272.301 756.894 272.392 757.064 272.382Z" fill="#030F1C"/>
</g>
<g style="mix-blend-mode:overlay" opacity="0.6">
<path d="M751.107 259.514C751.163 259.525 751.22 259.525 751.276 259.514C751.385 259.47 751.471 259.384 751.514 259.275C751.558 259.166 751.555 259.044 751.507 258.938L750.884 257.492C750.838 257.385 750.752 257.3 750.643 257.257C750.535 257.214 750.414 257.215 750.307 257.262C750.086 257.363 749.984 257.621 750.077 257.846L750.699 259.284C750.778 259.434 750.937 259.524 751.107 259.514Z" fill="#030F1C"/>
</g>
<g style="mix-blend-mode:overlay" opacity="0.6">
<path d="M758.53 256.717C758.589 256.727 758.649 256.727 758.707 256.717C758.929 256.615 759.028 256.355 758.93 256.132L758.315 254.695C758.203 254.499 757.962 254.418 757.754 254.506C757.547 254.595 757.438 254.824 757.5 255.04L758.123 256.486C758.204 256.634 758.362 256.723 758.53 256.717Z" fill="#030F1C"/>
</g>
<g style="mix-blend-mode:overlay" opacity="0.6">
<rect width="34.1199" height="2.55956" transform="matrix(-1 0 0 1 781.098 298.952)" fill="#030F1C"/>
</g>
<g style="mix-blend-mode:overlay" opacity="0.6">
<rect width="17.1714" height="1.7448" transform="matrix(-1 0 0 1 772.559 324.539)" fill="#030F1C"/>
</g>
<path d="M117.92 597.056C118.119 596.054 118.203 595.032 118.168 594.011C117.906 587.1 116.487 581.604 121.913 568.148C127.339 554.691 119.85 537.028 116.745 522.728C113.64 508.428 118.168 491.608 119.43 481.095C120.693 470.582 109.757 470.163 105.114 476.028C103.999 477.438 103.014 479.792 102.152 482.551C98.7804 470.675 99.2457 454.91 102.668 437.565C103.521 433.385 104.104 429.155 104.414 424.9C104.543 422.953 104.587 421.077 104.548 419.271C104.492 415.865 104.049 412.477 103.226 409.172C102.827 407.62 102.329 406.095 101.733 404.607C101.438 403.87 101.12 403.147 100.775 402.428C100.077 400.979 99.2866 399.577 98.4073 398.231C97.9651 397.549 97.4953 396.875 96.9978 396.209C96.5567 395.605 96.0798 395.028 95.5699 394.481C94.8676 393.679 94.0085 393.03 93.0456 392.574C92.6863 392.418 92.3031 392.324 91.9125 392.297C91.3783 392.262 90.8446 392.373 90.3694 392.62C89.3974 393.108 88.5268 394.108 87.7576 395.435C87.495 395.895 87.2463 396.356 87.0022 396.863C86.8778 397.116 86.758 397.379 86.6429 397.646C85.9335 399.254 85.2886 401.092 84.676 402.985C84.57 403.299 84.4687 403.616 84.372 403.934C83.833 405.519 83.3724 407.122 82.8841 408.633C82.6722 409.297 82.4558 410.015 82.2439 410.808C82.2439 410.868 82.2116 410.932 82.1932 410.997C81.9905 411.729 81.7924 412.512 81.5944 413.332C81.5944 413.42 81.5529 413.503 81.5299 413.59C81.3272 414.426 81.1276 415.29 80.9311 416.184L80.8896 416.373C80.6777 417.327 80.4704 418.312 80.2632 419.317C78.9688 412.936 79.2498 405.422 79.7242 397.328C79.8348 395.43 79.9545 393.504 80.0697 391.551C80.1849 389.598 80.2862 387.621 80.3645 385.631C80.4428 383.641 80.4935 381.632 80.4981 379.614C80.4981 378.606 80.4981 377.592 80.4705 376.583C80.478 374.958 80.2562 373.341 79.8117 371.778C79.6477 371.236 79.4155 370.718 79.1208 370.235C78.6948 369.473 77.9869 368.909 77.1493 368.664C76.7503 368.557 76.3358 368.519 75.924 368.553C74.4086 368.678 72.6351 369.608 70.7788 371.032C70.5163 371.234 70.2491 371.446 69.9819 371.668C68.5544 372.879 67.2109 374.185 65.9606 375.579C65.4309 376.164 64.9104 376.767 64.3991 377.38C63.3719 378.606 62.3954 379.877 61.4925 381.135C61.2668 381.453 61.0319 381.766 60.8292 382.079C59.6283 383.791 58.6703 385.66 57.9825 387.635C57.5655 388.868 57.2572 390.135 57.0613 391.422C56.7028 393.947 56.5809 396.499 56.6974 399.046C56.2284 398.027 55.5412 397.122 54.6844 396.397L54.6384 396.361C54.25 396.04 53.832 395.758 53.3901 395.517L53.321 395.481C52.8576 395.231 52.3774 395.014 51.8838 394.831C49.5024 393.91 47.6645 393.993 46.2181 394.831C43.9149 396.149 42.5607 399.397 41.5473 403.718C41.1696 405.335 40.8333 407.104 40.5109 408.979C40.309 410.082 40.1874 411.198 40.147 412.319C40.147 412.807 40.147 413.268 40.147 413.701C40.3174 416.76 41.3262 418.658 42.0448 421.16C42.269 421.924 42.4428 422.703 42.5653 423.491C42.7077 424.441 42.7801 425.4 42.7818 426.361C42.7836 427.584 42.7052 428.806 42.5469 430.019C42.3148 431.891 41.9234 433.741 41.3769 435.547C41.2064 436.095 41.036 436.63 40.8518 437.146C40.1286 439.214 39.2994 441.043 38.5486 442.853C38.3598 443.314 38.1755 443.775 38.0005 444.208C37.4585 445.579 37.0287 446.992 36.7153 448.432C36.2673 450.647 36.1755 452.919 36.4435 455.163C36.5119 455.806 36.5319 456.452 36.5034 457.098C36.5034 457.305 36.4574 457.517 36.4389 457.729C36.4067 458.19 36.3744 458.614 36.3054 459.065C36.2685 459.291 36.2086 459.526 36.1626 459.752C36.0796 460.212 35.9967 460.632 35.8862 461.083C35.8355 461.286 35.771 461.493 35.7157 461.696C35.5868 462.189 35.4578 462.677 35.3012 463.179C35.3012 463.262 35.2459 463.345 35.2229 463.428C34.4398 465.948 33.4356 468.666 32.542 471.72C32.4729 471.955 32.3992 472.181 32.3347 472.411C30.1744 468.353 27.5304 465.625 24.9923 464.543C19.4648 462.193 13.2739 481.022 13.9787 494.465C14.6834 507.908 16.0331 510.317 15.4757 520.66C14.9184 531.002 13.2739 545.472 15.0151 556.501C16.7563 567.53 13.2923 573.731 12.6014 586.142C12.3296 591.053 12.6567 594.577 13.1403 597.065L117.92 597.056Z" fill="#85CEB4"/>
<path d="M123.851 597.054H3.74214C1.72372 597.125 0.124023 598.782 0.124023 600.802C0.124023 602.822 1.72372 604.479 3.74214 604.55H5.9854L22.1443 655.318H36.3178V650.494H91.2754V655.304H105.449L121.603 604.54H123.86C125.879 604.47 127.478 602.813 127.478 600.793C127.478 598.773 125.879 597.116 123.86 597.045L123.851 597.054Z" fill="#B6D3F2"/>
<path d="M56.9698 429.825C56.8823 430.779 56.7947 431.558 56.698 432.222C56.7302 431.931 56.7625 431.655 56.7947 431.374C56.8546 430.858 56.9145 430.337 56.9698 429.825Z" fill="#85CEB4"/>
<g style="mix-blend-mode:overlay" opacity="0.6">
<path d="M80.4976 468.943C81.1609 486.177 90.8111 494.101 89.7747 519.259C88.7383 544.418 79.4382 546.491 82.8653 567.171C84.5696 577.398 86.6931 588.473 88.3928 597.051H95.1917L94.2152 558.169C94.0592 552.002 94.2561 545.831 94.8048 539.686L97.9647 504.213C97.9647 504.213 99.3926 491.41 102.11 482.653C98.7247 470.767 99.2268 454.956 102.654 437.579C106.251 419.312 104.911 406.906 96.9836 396.223C89.0561 385.539 85.9837 398.959 82.8837 408.634C81.8323 412.149 80.9576 415.714 80.2627 419.317C80.3318 419.658 80.3917 420.013 80.47 420.353C83.2292 432.064 79.8343 451.708 80.4976 468.943Z" fill="#030F1C"/>
</g>
<g style="mix-blend-mode:overlay" opacity="0.6">
<path d="M55.6602 582.678C56.3511 558.897 63.5462 551.314 59.0873 531.325C54.6284 511.335 54.5271 501.937 55.5819 486.771C56.6367 471.605 55.9135 471.356 55.6141 450.33C55.4161 436.381 56.107 436.385 56.6966 432.23C56.7933 431.41 56.8809 430.613 56.9684 429.825C57.1526 427.761 57.3046 424.859 57.3829 420.349C57.5396 411.319 56.8348 404.635 56.6828 399.06C55.5865 396.757 53.9651 395.637 51.8692 394.845C44.2504 391.956 42.196 398.991 40.4963 408.974C38.7966 418.957 43.9418 418.967 42.5645 429.996C41.1873 441.025 35.3281 444.816 36.4428 455.163C36.9955 460.277 34.2824 465.483 32.334 472.398C34.8582 477.143 36.7238 483.712 36.9403 491.701C37.4009 506.512 43.9234 514.44 41.8552 527.538C39.7869 540.635 34.6187 543.044 39.4461 556.487C43.7576 568.493 46.6872 585.631 45.3099 597.056H56.365C55.7296 592.291 55.4938 587.482 55.6602 582.678Z" fill="#030F1C"/>
</g>
<g style="mix-blend-mode:overlay" opacity="0.6">
<path d="M45.5368 448.758C44.9794 464.468 44.399 480.712 44.1871 489.299C44.0029 496.647 44.6478 502.498 45.3479 508.689C46.1863 516.217 47.1398 524.744 46.8173 537.906C46.4949 551.068 49.4383 576.356 52.2435 597.045H55.2745C52.4692 576.314 49.489 550.852 49.8022 537.98C50.1293 524.62 49.1619 515.982 48.3144 508.362C47.605 502.009 46.9924 496.522 47.172 489.373C47.3839 480.799 47.9597 464.564 48.517 448.859C49.0099 434.983 49.5212 420.633 49.793 411.272C49.9312 406.361 48.6322 400.602 46.5686 394.687C45.5871 395.171 44.7571 395.915 44.1687 396.838C45.8915 402.026 46.9325 406.973 46.8219 411.198C46.5225 420.536 46.0297 434.891 45.5368 448.758Z" fill="#030F1C"/>
</g>
<g style="mix-blend-mode:overlay" opacity="0.6">
<path d="M120.213 608.932H7.36853L5.92676 604.201L121.72 604.192L120.213 608.932Z" fill="#030F1C"/>
</g>
<g style="mix-blend-mode:overlay" opacity="0.6">
<path d="M106.423 652.108H91.2451V650.505H106.916L106.423 652.108Z" fill="#030F1C"/>
</g>
<g style="mix-blend-mode:overlay" opacity="0.6">
<path d="M21.1735 652.233H36.3512V650.625H20.6807L21.1735 652.233Z" fill="#030F1C"/>
</g>
<g style="mix-blend-mode:overlay" opacity="0.6">
<path d="M69.8943 481.606C69.7883 490.41 70.9491 497.859 72.0684 505.064C73.4918 514.19 74.8322 522.815 73.3444 533.056C70.6129 551.857 70.12 578.286 69.8943 590.992C69.862 592.835 69.9542 594.904 70.1246 597.046H73.1049C72.9252 594.908 72.8239 592.867 72.8561 591.057C73.0864 578.415 73.5701 552.11 76.274 533.498C77.8309 522.815 76.4536 513.979 74.998 504.622C73.8971 497.536 72.7548 490.216 72.8561 481.652C72.9482 474.189 72.3264 466.403 71.617 457.387C70.4286 442.429 68.9546 423.812 70.1753 398.133C70.572 388.449 71.7069 378.81 73.5701 369.299C72.318 369.926 71.1445 370.699 70.0739 371.602C68.5461 380.322 67.5921 389.132 67.218 397.977C65.9836 423.84 67.4714 442.562 68.6598 457.604C69.3692 466.55 69.9818 474.272 69.8943 481.606Z" fill="#030F1C"/>
</g>
<g style="mix-blend-mode:overlay" opacity="0.6">
<path d="M23.5327 479.222C23.33 483.161 23.9426 489.661 24.652 497.189C25.6239 507.485 26.7248 519.159 25.7437 525.729C24.196 536.136 24.2743 536.891 25.6009 549.514L26.1306 554.674C27.0519 563.487 26.1629 569.711 25.2416 576.299C24.4125 582.288 23.5511 588.516 23.9518 597.057H26.9183C26.5222 588.719 27.3789 582.601 28.185 576.7C29.1339 569.927 30.0275 563.533 29.1063 554.365L28.5581 549.206C27.2453 536.689 27.1762 536.2 28.6871 526.171C29.7189 519.261 28.5996 507.379 27.6138 496.917C26.9413 489.813 26.3103 483.096 26.5083 479.379C26.6696 476.306 25.7759 470.625 24.4862 464.374C23.5649 464.194 22.6114 464.604 21.6855 465.452C22.8648 471.289 23.6801 476.458 23.5327 479.222Z" fill="#030F1C"/>
</g>
<g style="mix-blend-mode:overlay" opacity="0.6">
<path d="M107.5 529.989C108.882 537.337 110.117 543.68 109.684 548.518C109.35 551.973 108.715 555.392 107.786 558.736C106.708 562.96 105.778 566.604 107.031 571.93C108.412 577.725 108.523 588.787 107.841 597.047H110.812C111.503 588.501 111.342 577.329 109.891 571.248C108.804 566.641 109.573 563.624 110.633 559.464C111.603 555.964 112.264 552.386 112.609 548.771C113.069 543.528 111.826 536.991 110.379 529.422C108.739 520.826 106.874 511.082 107.289 501.348C107.675 492.171 111.582 481.169 115.276 472.651C114.283 472.312 113.231 472.181 112.185 472.264C108.5 480.874 104.723 491.816 104.327 501.223C103.926 511.308 105.824 521.231 107.5 529.989Z" fill="#030F1C"/>
</g>
<g style="mix-blend-mode:overlay" opacity="0.6">
<path d="M89.7335 535.324C89.8947 529.054 89.8671 524.157 89.7335 519.933C89.4977 526.176 88.4874 532.366 86.7256 538.36C86.7256 545.998 87.5778 552.402 88.453 559.128C89.6414 568.25 90.8667 577.685 90.0099 590.916C89.8717 593.106 89.7304 595.146 89.5861 597.038H92.5848C92.723 595.196 92.8612 593.224 92.9948 591.105C93.87 577.574 92.6263 567.996 91.4194 558.732C90.4245 551.232 89.5032 544.137 89.7335 535.324Z" fill="#030F1C"/>
</g>
<g style="mix-blend-mode:overlay" opacity="0.6">
<path d="M97.3577 396.714C97.238 396.548 97.132 396.383 97.0122 396.221C96.1786 395.016 95.1496 393.959 93.9675 393.093C95.2066 403.505 95.7179 413.456 94.3452 419.44C90.7661 435.104 85.9157 472.318 85.4229 490.05C86.8469 494.16 87.9616 498.37 88.7578 502.646C88.6104 500.213 88.4722 497.619 88.3709 494.694C87.9102 480.155 93.3226 437.172 97.2333 420.104C98.5047 414.534 98.279 405.942 97.3577 396.714Z" fill="#030F1C"/>
</g>
<path fill-rule="evenodd" clip-rule="evenodd" d="M304.456 406.292C302.998 401.514 274.565 388.812 270.068 416.176C268.145 427.879 276.14 471.503 279.841 491.7C280.954 497.774 281.679 501.73 281.629 502.059C278.552 522.186 282.944 547.98 286.991 571.752C288.701 581.792 290.349 591.472 291.347 600.211C292.017 606.081 292.855 620.436 292.789 622.583C292.764 623.401 292.296 624.857 291.733 626.603C290.323 630.982 288.324 637.189 291.256 639.754C291.603 640.057 292.241 640.707 293.127 641.608C300.653 649.266 326.063 675.124 342.706 661.644C342.706 658.659 341.071 657.435 338.172 655.592C322.428 645.583 316.781 636.392 314.905 632.077C311.991 625.377 310.12 609.458 310.128 602.354C310.16 573.637 314.602 489.534 314.602 489.534C314.602 489.534 309.056 421.373 304.456 406.292ZM217.065 627.92C217.065 627.92 208.7 654.759 208.491 655.464C208.351 655.917 208.384 656.405 208.583 656.835C208.739 656.894 208.893 656.954 209.04 657.018C209.205 657.088 209.366 657.166 209.522 657.254C215.997 658.787 228.967 658.003 232.626 657.218C232.881 657.15 233.132 657.067 233.376 656.968C233.467 656.931 233.557 656.893 233.644 656.853C233.776 656.794 233.901 656.73 234.025 656.664C234.286 656.526 234.537 656.37 234.777 656.198L234.778 656.198C234.832 655.894 234.865 655.586 234.875 655.277C234.901 654.374 232.018 628.708 232.018 628.708C232.018 628.708 233.156 610.257 236.71 586.482C236.929 585.017 237.662 580.555 238.717 574.127C241.822 555.222 247.719 519.308 251.56 492.574C251.743 491.3 251.909 489.215 252.112 486.662C252.654 479.852 253.46 469.708 255.567 462.711C259.054 451.126 261.054 437.263 262.086 428.177C261.957 424.899 261.815 421.364 261.662 417.737C255.215 414.449 227.179 401.284 217.224 415.552C217.221 418.019 217.312 421.752 217.421 426.22C217.692 437.376 218.074 453.11 217.394 465.139C217.208 468.43 216.804 472.003 216.367 475.871C215.61 482.561 214.753 490.135 214.753 498.666C214.753 524.494 215.846 542.316 216.721 556.57C217.221 564.724 217.65 571.711 217.761 578.362C218.446 619.268 217.065 627.92 217.065 627.92Z" fill="#FFDDDD"/>
<path fill-rule="evenodd" clip-rule="evenodd" d="M345.446 663.244C345.446 663.244 323.859 663.244 320.105 661.836C318.081 661.077 315.115 658.124 311.904 654.926C309.157 652.19 306.231 649.276 303.562 647.405C299.349 644.452 286.316 639.897 286.316 639.897L290.3 669.227H297.593C300.267 668.039 303.114 667.286 306.026 666.998C310.836 666.529 318.814 669.227 318.814 669.227H342.748C344.273 667.702 345.446 663.244 345.446 663.244ZM236.354 661.338V656.202H206.926L206.96 661.338C206.96 665.694 208.529 669.225 210.466 669.225H232.848C234.784 669.225 236.354 665.694 236.354 661.338Z" fill="#F76161"/>
<path fill-rule="evenodd" clip-rule="evenodd" d="M298.558 643.096L298.571 643.102C292.423 639.968 286.314 637.435 286.314 637.435C285.375 639.078 286.314 639.899 286.314 639.899C288.098 640.771 289.86 641.607 291.576 642.421C300.013 646.424 307.314 649.889 310.482 654.447C317.287 664.234 323.857 663.246 323.857 663.246H345.444C346.97 662.542 346.5 661.486 346.5 661.486H338.17L335.472 652.335C335.472 652.335 327.494 646.938 326.907 647.173C326.402 647.375 316.431 653.074 313.69 654.643C312.409 653.005 311.024 651.45 309.544 649.988C307.503 648.222 305.272 646.69 302.89 645.42L302.9 645.425L315.445 632.651L313.627 627.337L305.79 635.74L292.18 622.887L291.272 627.887L302.504 638.726L298.558 643.096ZM332.892 661.488H323.74C321.149 661.341 318.712 660.211 316.925 658.329L329.958 650.356L332.892 661.488ZM208.422 650.174C207.607 651.859 207.1 653.676 206.925 655.539L206.936 655.531C206.935 655.549 206.933 655.566 206.931 655.582C206.928 655.604 206.925 655.626 206.925 655.649V656.207H236.353V655.649C236.353 655.626 236.35 655.604 236.347 655.583C236.344 655.566 236.342 655.549 236.341 655.531L236.353 655.539C236.178 653.676 235.67 651.859 234.855 650.174C234.584 649.632 231.026 647.133 226.958 644.397L233.44 640.904L232.894 636.582C232.894 636.582 228.249 638.978 223.006 641.766C218.521 638.806 214.479 636.212 214.479 636.212L213.346 639.847L219.144 643.835C213.731 646.758 208.717 649.584 208.422 650.174ZM223.035 646.511L233.142 653.462H210.134L223.035 646.511ZM217.263 625.97L216.079 631.07C223.01 628.499 232.28 631.07 232.28 631.07L232.209 625.97C227.422 623.998 222.05 623.998 217.263 625.97Z" fill="#6E35AA"/>
<path d="M211.95 430.878C209.71 418.879 206.618 399.4 209.345 381.377C212.809 358.477 219.221 352.919 223.183 331.156C247.132 320.798 278.997 320.117 303.961 332.982C312.737 400.082 317.499 454.897 317.746 464.277C317.93 471.26 322.353 561.367 327.869 590.335C329.293 597.814 285.971 595.931 282.254 591.017C277.405 584.605 272.918 512.631 269.801 482.981C266.659 468.923 263.135 430.737 263.135 430.737C263.135 430.737 262.052 443.662 257.305 472.851C250.502 514.684 242.774 592.79 242.774 592.79C241.59 593.447 214.982 594.823 210.666 590.505C204.263 584.099 215.479 449.793 211.95 430.878Z" fill="#A2003F"/>
<g style="mix-blend-mode:overlay" opacity="0.6">
<path d="M314.418 424.018C314.418 424.018 307.178 427.085 306.837 437.309C306.496 447.534 308.966 506.152 310.628 530.349C312.29 554.547 324.507 564.765 324.507 564.765C319.026 500.311 314.418 424.018 314.418 424.018Z" fill="white"/>
</g>
<g style="mix-blend-mode:overlay" opacity="0.6">
<path d="M259.387 459.563C259.387 459.563 251.967 464.584 249.581 476.512C247.196 488.44 235.724 551.49 238.904 561.714C242.084 571.938 244.964 571.577 244.964 571.577C251.603 511.097 259.387 459.563 259.387 459.563Z" fill="white"/>
</g>
<g style="mix-blend-mode:overlay" opacity="0.6">
<path d="M263.13 430.732L274.263 383.735C274.263 383.735 283.561 404.811 282.555 421.165C281.548 437.519 273.863 450.685 268.17 473.955L263.13 430.732Z" fill="#030F1C"/>
</g>
<g style="mix-blend-mode:overlay" opacity="0.6">
<path d="M303.957 332.984L305.463 344.685C305.463 344.685 274.64 362.288 217.431 353.217C217.431 353.217 222.392 338.383 223.179 331.158L303.957 332.984Z" fill="#030F1C"/>
</g>
<path d="M240.523 159.232C242.333 150.066 245.23 143.24 256.997 151.431C256.997 151.431 257.1 142.351 261.264 138.766C265.428 135.18 291.733 119.206 292.739 145.46C292.739 145.46 293.222 166.552 293.222 171.818C293.222 177.084 285.599 194.923 279.263 194.923C277.759 194.897 276.266 194.664 274.826 194.23C275.744 201.514 278.036 208.557 281.581 214.986L242.66 207.39C242.66 207.39 249.387 196.911 250.789 176.33C244.856 171.052 239.198 165.943 240.523 159.232Z" fill="#FFDDDD"/>
<g style="mix-blend-mode:overlay" opacity="0.6">
<path d="M274.752 193.641C274.752 193.641 263.258 187.741 259.61 183.919C259.404 190.261 261.589 196.45 265.731 201.257C268.991 204.93 274.095 205.997 277.677 206.239C276.225 202.165 275.243 197.938 274.752 193.641Z" fill="#030F1C"/>
</g>
<path d="M278.071 148.548C277.55 147.961 276.834 147.505 274.683 147.635C272.533 147.766 269.276 149.785 269.992 150.307C270.709 150.828 272.859 149.069 274.553 149.655C276.247 150.242 277.22 150.724 277.789 150.405C278.506 150.003 278.322 148.829 278.071 148.548Z" fill="#161B36"/>
<path d="M287.389 147.951C288.072 147.564 288.897 147.364 290.89 148.182C292.883 148.999 295.314 151.963 294.468 152.225C293.621 152.486 292.154 150.127 290.361 150.135C288.569 150.143 287.493 150.286 287.057 149.8C286.508 149.188 287.061 148.137 287.389 147.951Z" fill="#161B36"/>
<g style="mix-blend-mode:overlay" opacity="0.6">
<path d="M283.682 174.346C284.549 174.36 285.404 174.141 286.158 173.711C286.699 173.423 287.084 172.909 287.208 172.309C287.388 171.178 286.373 168.962 285.318 166.79C285.148 166.439 285.009 166.153 284.928 165.966C283.566 162.839 284.184 156.879 284.191 156.819C284.205 156.682 284.146 156.549 284.035 156.468C283.924 156.387 283.779 156.371 283.653 156.427C283.528 156.482 283.441 156.601 283.427 156.737C283.4 156.989 282.78 162.958 284.223 166.273C284.307 166.466 284.451 166.762 284.627 167.125C285.269 168.448 286.606 171.201 286.449 172.188C286.351 172.562 286.099 172.878 285.756 173.056C284.735 173.607 283.538 173.728 282.428 173.393C282.297 173.351 282.154 173.382 282.052 173.474C281.95 173.566 281.906 173.706 281.935 173.84C281.964 173.974 282.062 174.083 282.193 174.125C282.675 174.275 283.177 174.349 283.682 174.346Z" fill="#030F1C"/>
</g>
<path d="M285.158 181.908C285.225 181.677 285.196 181.429 285.079 181.218C284.961 181.008 284.765 180.854 284.533 180.789C283.38 180.455 281.255 179.827 279.636 179.276C277.948 178.607 276.306 177.826 274.722 176.939C274.446 176.789 274.112 176.792 273.839 176.947C273.565 177.101 273.391 177.386 273.377 177.7C273.267 180.112 273.557 184.823 277.35 185.783C281.964 186.951 284.379 184.456 285.158 181.908Z" fill="#161B36"/>
<path d="M283.15 184.916C283.15 184.916 279.181 179.372 273.511 180.639C273.511 180.639 273.502 184.969 277.157 185.945C281.093 186.995 283.15 184.916 283.15 184.916Z" fill="#E55151"/>
<path d="M272.798 156.05C273.535 155.885 274.286 155.795 275.042 155.779C275.851 155.779 276.508 156.859 276.508 158.19C276.508 159.522 275.851 160.601 275.042 160.601C274.232 160.601 273.575 159.522 273.575 158.19C273.565 157.606 273.707 157.029 273.989 156.516C273.4 156.536 272.816 156.625 272.248 156.781C271.698 156.941 271.66 156.315 272.798 156.05Z" fill="#161B36"/>
<path d="M287.448 157.047C288.129 156.895 288.823 156.806 289.52 156.781C289.529 156.781 289.537 156.777 289.546 156.777C289.553 156.777 289.558 156.78 289.565 156.78C289.64 156.778 289.692 156.777 289.692 156.777L289.699 156.802C290.436 156.929 291.013 157.942 291.013 159.188C291.013 160.52 290.356 161.599 289.546 161.599C288.737 161.599 288.08 160.52 288.08 159.188C288.07 158.606 288.211 158.031 288.491 157.521C287.952 157.549 287.418 157.635 286.898 157.779C286.348 157.938 286.311 157.313 287.448 157.047Z" fill="#161B36"/>
<path d="M247.097 157.119C248.946 156.493 250.734 158.171 252.088 160.071L252.098 160.086C253.03 161.433 253.828 162.868 254.481 164.371C254.563 164.566 254.471 164.792 254.275 164.874C254.08 164.956 253.854 164.864 253.772 164.669C253.163 163.255 252.418 161.904 251.547 160.634C250.753 160.497 249.936 160.646 249.243 161.056C248.555 161.569 248.116 162.348 248.033 163.202C248.003 163.388 247.843 163.524 247.655 163.524C247.634 163.524 247.613 163.522 247.592 163.519C247.491 163.502 247.401 163.446 247.342 163.363C247.283 163.281 247.259 163.178 247.275 163.077C247.388 162.009 247.95 161.04 248.822 160.414C249.453 160.014 250.188 159.808 250.935 159.823C249.814 158.433 248.535 157.441 247.344 157.847C247.143 157.915 246.925 157.807 246.857 157.606C246.789 157.406 246.896 157.188 247.097 157.119L247.097 157.119Z" fill="#0B122D"/>
<path d="M275.402 194.321C275.583 194.321 275.74 194.194 275.778 194.016C275.815 193.839 275.724 193.659 275.558 193.585C275.428 193.528 262.55 187.767 257.115 180.802C256.984 180.635 256.743 180.606 256.576 180.736C256.409 180.867 256.379 181.108 256.509 181.275C262.063 188.392 274.711 194.051 275.246 194.288C275.295 194.31 275.348 194.321 275.402 194.321Z" fill="#0B122D"/>
<path fill-rule="evenodd" clip-rule="evenodd" d="M223.171 152.246C217.547 159.195 224.534 165.947 224.534 165.947C224.534 165.947 214.117 172.609 220.615 183.917C225.045 191.628 233.054 189.499 233.054 189.499C235.913 200.148 246.087 199.877 246.087 199.877C249.514 192.372 250.79 176.323 250.79 176.323C241.972 168.728 242.426 160.019 243.619 154.566C244.812 149.113 252.991 150.647 255.718 154.055C257.129 155.819 257.262 158.954 257.369 161.483C257.469 163.839 257.546 165.669 258.614 165.377C259.487 165.138 259.804 163.04 260.205 160.393C260.82 156.321 261.632 150.952 264.964 149.063C270.462 145.945 283.152 134.884 283.152 134.884C292.524 135.992 292.33 149.063 292.33 149.063C292.33 149.063 299.262 149.063 301.726 140.763C303.185 135.849 299.262 122.189 292.354 116.055C288.119 112.293 282.057 115.203 282.057 115.203C282.057 115.203 278.847 111.193 269.891 109.409C247.652 104.979 223.171 127.642 228.283 139.4C230.298 144.035 228.705 145.852 225.545 149.457C224.826 150.277 224.027 151.188 223.171 152.246ZM293.166 166.813C293.199 168.938 293.219 170.717 293.219 171.81C293.219 177.075 285.597 194.915 279.261 194.915C277.757 194.889 276.264 194.655 274.824 194.221C275.016 195.76 275.27 197.242 275.565 198.66C281.127 200.468 293.801 203.196 299.749 193.107C305.203 183.855 296.441 171.057 293.166 166.813Z" fill="#161B36"/>
<path d="M221.898 332.902C224.279 322.379 229.76 298.958 225.047 275.601C220.606 253.591 224.735 213.928 227.422 212.933C231.412 211.454 238.738 206.937 242.201 206.019L247.772 194.659C247.772 194.659 249.924 205.732 263.857 212.344C263.857 222.966 266.704 236.288 267.679 236.194C268.655 236.1 268.991 220.73 268.991 212.101C272.223 209.732 274.779 206.56 276.408 202.899L282.031 209.545L282 209.636L295.8 214.347C295.8 214.347 300.454 215.276 301.292 221.827C304.114 243.898 309.288 261.073 309.865 267.822C310.645 276.939 308.095 281.087 305.407 287.887C302.708 294.715 301.088 310.536 304.697 334.53C304.974 336.276 304.294 338.038 302.917 339.146C289.666 349.564 236.488 345.848 223.512 337.113C222.158 336.176 221.518 334.504 221.898 332.902Z" fill="#B6D3F2"/>
<path d="M257.832 264.945C257.614 262.73 257.366 260.57 257.088 258.463C261.401 265.273 266.654 271.438 272.694 276.776C276.619 273.051 282.029 264.319 285.27 258.781C285.633 264.66 285.869 269.635 285.869 272.635C285.869 277.543 284.281 306.829 284.699 337.359L273.22 323.648C273.22 323.648 258.256 341.281 258.114 341.18C258.094 341.166 257.93 339.137 257.664 335.674C257.764 305.91 257.989 273.163 257.832 264.945Z" fill="#A2003F"/>
<path fill-rule="evenodd" clip-rule="evenodd" d="M204.415 224.226C193.679 233.193 173.734 254.051 165.606 263.508C161.936 267.778 162.157 277.003 165.851 285.843C168.675 292.601 178.564 314.04 182.819 322.533C187.98 323.339 200.446 319.227 201.802 314.459C201.146 312.577 200.242 309.988 199.305 307.304C197.316 301.611 195.177 295.488 194.939 294.767C191.043 282.991 189.861 279.011 191.132 277.693C192.293 276.493 201.934 269.608 211.327 262.899C214.855 260.379 218.348 257.884 221.344 255.725C221.608 262.47 222.452 269.18 223.867 275.781C228.011 293.316 215.63 353.259 212.359 363.539C216.463 369.167 240.288 384.358 257.877 386.315C257.473 376.548 257.634 340.311 257.771 309.626C257.863 288.937 257.944 270.772 257.833 264.943C254.225 228.324 242.181 206.139 242.181 206.139C242.181 206.139 233.495 208.409 227.712 210.205C221.504 211.536 213.853 216.344 204.415 224.226ZM294.686 213.725L294.644 213.777L281.417 209.261C281.417 209.261 285.87 259.581 285.87 272.629C285.87 273.879 285.767 276.71 285.62 280.74C284.88 301.06 283.03 351.862 287.687 384.163C299.665 383.957 312.418 379.371 312.048 377.647C302.647 333.753 303.999 292.262 306.081 287.36C306.383 286.647 306.678 285.968 306.962 285.314C307.312 284.509 307.645 283.74 307.959 282.988C314.839 289.67 322.077 295.973 329.64 301.871C335.616 306.546 348.522 305.397 350.531 293.725C353.863 273.233 355.89 252.551 356.601 231.803C352.294 228.011 342.363 228.855 336.179 230.479C333.197 242.859 329.222 261.854 328.735 266.202C322.075 254.443 318.687 247.355 315.614 240.927C312.964 235.384 310.549 230.333 306.475 223.204C302.327 215.944 297.264 214.475 295.083 213.842C294.938 213.799 294.805 213.761 294.686 213.725Z" fill="#E89256"/>
<path d="M354.382 185.36L358.543 176.83L354.382 185.36L350.793 192.717L354.382 185.36Z" fill="white"/>
<path d="M327.498 282.742C327.667 282.717 327.788 282.566 327.775 282.395C327.235 275.141 329.033 266.348 329.052 266.26C329.088 266.083 328.975 265.91 328.798 265.874C328.621 265.837 328.448 265.95 328.411 266.127C328.393 266.216 326.577 275.096 327.123 282.443C327.137 282.623 327.293 282.758 327.473 282.745L327.498 282.742Z" fill="#0B122D"/>
<g style="mix-blend-mode:overlay" opacity="0.6">
<path d="M349.885 252.981C349.526 259.431 346.67 278.987 347.137 283.603C347.491 286.46 348.857 289.097 350.987 291.035C353.312 276.659 354.843 262.165 355.572 247.621C354.537 245.906 350.243 246.531 349.885 252.981Z" fill="white"/>
</g>
<g style="mix-blend-mode:overlay" opacity="0.6">
<path d="M310.331 267.8C310.088 264.966 309.805 260.569 309.095 254.673C310.044 256.935 310.757 259.287 311.225 261.695C314.682 279.047 316.038 283.239 320.689 286.939C325.34 290.64 328.521 294.366 326.907 299.7C320.305 294.463 313.976 288.89 307.946 283.003C309.791 278.585 310.927 274.775 310.331 267.8Z" fill="#030F1C"/>
</g>
<g style="mix-blend-mode:overlay" opacity="0.6">
<path d="M247.77 194.637C247.77 194.637 249.922 205.711 263.854 212.323C259.935 216.072 257.672 223.326 257.672 223.326L241.473 207.479L247.77 194.637Z" fill="white"/>
</g>
<g style="mix-blend-mode:overlay" opacity="0.6">
<path d="M276.406 202.883C274.777 206.544 272.221 209.716 268.989 212.085L277.331 222.95L282.029 209.528L276.406 202.883Z" fill="white"/>
</g>
<g style="mix-blend-mode:overlay" opacity="0.6">
<path d="M273.217 323.648L275.946 320.517L275.289 280.481L272.691 276.775L273.091 276.369L275.897 280.193L277.197 320.914L276.053 327.035L273.217 323.648Z" fill="#030F1C"/>
</g>
<g style="mix-blend-mode:overlay" opacity="0.6">
<ellipse cx="1.02433" cy="1.02435" rx="1.02433" ry="1.02435" transform="matrix(-1 0 0 1 271.814 283.123)" fill="#030F1C"/>
</g>
<g style="mix-blend-mode:overlay" opacity="0.6">
<ellipse cx="1.02433" cy="1.02431" rx="1.02433" ry="1.02431" transform="matrix(-1 0 0 1 271.814 293.204)" fill="#030F1C"/>
</g>
<g style="mix-blend-mode:overlay" opacity="0.6">
<ellipse cx="1.02433" cy="1.02439" rx="1.02433" ry="1.02439" transform="matrix(-1 0 0 1 271.815 303.81)" fill="#030F1C"/>
</g>
<g style="mix-blend-mode:overlay" opacity="0.6">
<ellipse cx="1.02433" cy="1.02436" rx="1.02433" ry="1.02436" transform="matrix(-1 0 0 1 271.815 315.062)" fill="#030F1C"/>
</g>
<g style="mix-blend-mode:overlay" opacity="0.6">
<path d="M223.864 275.77C222.309 266.38 221.072 256.174 221.072 256.174L221.669 255.478C225.222 252.915 228.03 250.854 229.3 249.83C230.234 258.527 234.819 276.835 243.95 281.159C251.94 284.943 255.731 283.347 254.143 286.048C252.865 288.22 245.822 286.889 242.759 286.463C239.696 286.037 240.572 289.764 236.815 306.426C224.012 363.195 257.875 386.304 257.875 386.304C238.134 383.592 217.047 368.765 212.356 363.529C214.77 356.578 219.628 329.832 219.628 329.832C221.11 323.788 226.608 292.342 223.864 275.77Z" fill="#030F1C"/>
</g>
<g style="mix-blend-mode:overlay" opacity="0.6">
<path d="M281.415 209.261C281.415 209.261 285.551 255.072 285.868 272.629L295.954 250.812L288.684 239.736L297.309 228.148L292.384 212.931L281.415 209.261Z" fill="#030F1C"/>
</g>
<g style="mix-blend-mode:overlay" opacity="0.6">
<path d="M308.189 282.515C308.189 282.515 303.176 285.304 294.609 285.891C286.041 286.478 294.024 289.144 298.175 289.351C302.326 289.559 303.891 289.576 305.346 289.317C306.223 286.956 308.189 282.515 308.189 282.515Z" fill="#030F1C"/>
</g>
<g style="mix-blend-mode:overlay" opacity="0.6">
<path d="M242.179 206.139L232.146 208.867L233.237 229.346L250.277 241.508L245.677 256.781L257.876 270.51C258.557 261.978 253.6 228.75 242.179 206.139Z" fill="#030F1C"/>
</g>
<g style="mix-blend-mode:overlay" opacity="0.6">
<path d="M248.165 350.259L250.243 346.122L247.301 360.806C246.568 364.464 243.008 366.836 239.35 366.103L231.412 364.513C229.621 364.154 228.051 363.085 227.061 361.549C226.071 360.014 225.745 358.143 226.158 356.363L229.557 341.696L230.004 346.624C230.097 347.652 230.854 348.497 231.865 348.703L245.611 351.5C246.645 351.711 247.691 351.202 248.165 350.259Z" fill="white"/>
</g>
<path fill-rule="evenodd" clip-rule="evenodd" d="M248.546 350.354C248.063 351.312 247.083 351.916 246.011 351.917C245.822 351.917 245.633 351.898 245.447 351.86L231.871 349.097C230.64 348.853 229.72 347.825 229.612 346.575L229.173 341.732C229.162 341.61 229.209 341.49 229.301 341.409C229.392 341.328 229.516 341.295 229.636 341.321L250.322 345.747C250.438 345.772 250.537 345.85 250.588 345.957C250.64 346.064 250.639 346.189 250.585 346.296L248.546 350.354ZM247.857 350.003L249.673 346.389L229.983 342.176L230.376 346.5C230.454 347.411 231.125 348.16 232.022 348.338L245.599 351.101C246.513 351.285 247.437 350.836 247.857 350.003Z" fill="#0B122D"/>
<g style="mix-blend-mode:overlay" opacity="0.6">
<path d="M304.223 347.468L304.968 342.899L306.557 357.789C306.953 361.499 304.266 364.828 300.557 365.224L295.474 365.915C293.658 366.109 291.84 365.559 290.436 364.391C289.032 363.222 288.16 361.534 288.021 359.713L286.873 344.701L288.775 349.269C289.172 350.222 290.147 350.802 291.173 350.695L302.158 349.417C303.207 349.308 304.054 348.509 304.223 347.468Z" fill="white"/>
</g>
<path fill-rule="evenodd" clip-rule="evenodd" d="M291.297 351.07C291.198 351.08 291.098 351.085 290.998 351.085C289.854 351.087 288.823 350.397 288.388 349.339L286.519 344.849C286.472 344.737 286.481 344.609 286.543 344.504C286.606 344.4 286.714 344.331 286.835 344.319L304.93 342.517C305.049 342.505 305.167 342.549 305.248 342.636C305.33 342.723 305.367 342.844 305.348 342.961L304.617 347.444C304.41 348.705 303.387 349.672 302.117 349.808L291.297 351.07ZM303.858 347.319L304.508 343.33L287.426 345.031L289.097 349.042C289.446 349.884 290.306 350.397 291.213 350.304L302.031 349.042C302.959 348.945 303.707 348.239 303.858 347.319Z" fill="#0B122D"/>
<g style="mix-blend-mode:overlay" opacity="0.6">
<path d="M309.156 228.02C302.312 221.426 293.703 216.958 284.371 215.158L284.742 210.342C290.045 211.987 292.93 213.044 296.366 214.345C302.122 216.523 305.327 220.956 309.156 228.02Z" fill="white"/>
</g>
<path d="M227.725 251.183C227.775 251.183 227.824 251.172 227.869 251.15C238.075 246.133 240.215 232.177 240.236 232.037C240.262 231.858 240.138 231.692 239.96 231.666C239.782 231.642 239.617 231.765 239.589 231.942C239.569 232.079 237.476 245.7 227.581 250.564C227.444 250.631 227.372 250.783 227.407 250.931C227.441 251.079 227.573 251.183 227.725 251.183V251.183Z" fill="#0B122D"/>
<g style="mix-blend-mode:overlay" opacity="0.6">
<path d="M185.218 279.498C185.665 285.18 187.377 290.691 190.228 295.626C190.758 296.529 193.578 298.874 196.057 298.131C191.274 283.719 189.615 278.98 191.131 277.682C195.289 274.119 210.798 263.265 216.87 258.925C215.361 257.906 212.319 256.657 209.241 258.192C204.178 260.727 184.558 272.461 185.218 279.498Z" fill="white"/>
</g>
<path d="M182.755 284.04C182.917 284.039 183.055 283.919 183.077 283.758C183.108 283.543 183.895 278.484 189.86 278.169C190.04 278.16 190.178 278.006 190.168 277.826C190.165 277.739 190.127 277.657 190.062 277.599C189.997 277.541 189.912 277.511 189.825 277.517C186.203 277.526 183.098 280.108 182.43 283.668C182.406 283.847 182.53 284.011 182.709 284.036C182.724 284.038 182.739 284.04 182.755 284.04Z" fill="#0B122D"/>
<path d="M344.878 166.108L361.022 168.939L361.751 170.258L354.38 185.368L344.587 205.444L327.433 200.585L326.73 198.861L342.097 167.523C342.606 166.485 343.74 165.908 344.878 166.108Z" fill="#AA5DFF"/>
<g style="mix-blend-mode:overlay" opacity="0.6">
<path d="M347.838 171.266L344.749 170.754C344.516 170.727 344.314 170.581 344.214 170.369C344.114 170.157 344.131 169.908 344.257 169.711C344.515 169.21 345.053 168.917 345.614 168.974L348.703 169.486C348.936 169.514 349.138 169.66 349.238 169.872C349.338 170.084 349.321 170.332 349.195 170.529C348.937 171.031 348.399 171.324 347.838 171.266Z" fill="#030F1C"/>
</g>
<g style="mix-blend-mode:overlay" opacity="0.6">
<path d="M344.878 166.108L361.022 168.939L361.751 170.258L345.536 167.671C344.408 167.491 343.294 168.07 342.793 169.097L327.433 200.585L334.163 202.491L327.433 200.585L326.73 198.861L342.097 167.523C342.606 166.485 343.74 165.908 344.878 166.108Z" fill="#030F1C"/>
</g>
<path fill-rule="evenodd" clip-rule="evenodd" d="M330.773 192.975C330.184 192.382 329.831 191.595 329.782 190.76C329.85 189.543 331.666 188.793 331.666 188.793C330.414 188.248 330.097 187.179 330.302 186.83C330.42 186.629 330.889 186.343 331.372 186.049C331.726 185.834 332.088 185.614 332.323 185.419C333.053 185.007 333.838 184.698 334.654 184.503C332.267 183.678 331.052 183.067 331.132 182.424C331.339 180.754 333.377 180.727 335.779 180.694C336.501 180.685 337.255 180.675 338.003 180.62C339.889 180.924 350.285 186.937 352.876 188.448L354.382 185.361L358.625 176.663C360.732 175.615 362.954 175.461 362.99 176.343C363.02 177.104 361.801 179.717 360.54 182.421C359.124 185.458 357.654 188.609 357.842 189.378C358.131 190.57 356.952 196.593 356.195 200.457L356.195 200.457C356.028 201.31 355.882 202.057 355.777 202.624C355.181 205.828 354.197 212.36 353.98 213.808C354.01 214.393 354.38 221.851 354.71 230.581C350.596 228.606 344.076 228.885 338.893 229.873C340.433 220.688 341.063 214.522 339.249 213.158C336.728 211.048 336.258 209.274 335.775 207.45C335.442 206.19 335.102 204.907 334.076 203.473C333.659 202.889 332.957 202.057 332.166 201.117L332.166 201.117C329.909 198.437 326.919 194.887 327.695 193.763C328.399 192.745 330.773 192.975 330.773 192.975ZM268.99 212.092C268.99 220.72 268.653 236.09 267.678 236.184C266.703 236.279 263.856 222.957 263.856 212.335C260.319 210.696 257.098 208.448 254.339 205.696L273.914 207.174C272.551 209.07 270.888 210.731 268.99 212.092ZM200.352 316.697C197.235 319.802 190.155 322.249 185.373 322.591L193.388 339.135C193.381 339.147 193.374 339.157 193.367 339.169C193.567 339.578 193.788 340.002 194.018 340.435L194.025 340.45L194.025 340.449C194.533 341.402 195.109 342.401 195.771 343.422C197.867 346.65 200.443 350.326 208.104 357.508C215.764 364.689 218.93 367.042 221.078 366.189C221.94 365.847 222.031 365.263 222.118 364.7C222.176 364.325 222.232 363.959 222.514 363.679C222.827 363.369 223.421 363.46 224.197 363.58C225.169 363.73 226.428 363.923 227.783 363.428C229.224 362.902 228.996 362.096 228.781 361.339C228.66 360.911 228.543 360.499 228.733 360.16C228.926 359.818 229.325 359.819 229.833 359.82C230.715 359.822 231.924 359.824 232.94 358.026C233.309 357.374 233.192 356.931 233.059 356.423C232.873 355.717 232.654 354.885 233.668 353.195C235.106 350.797 226.076 345.334 222.08 342.916C221.237 342.407 220.619 342.032 220.369 341.85C218.963 340.828 219.715 335.669 219.715 335.669C219.715 335.669 212.719 335.415 209.351 334.372C207.826 333.881 206.575 332.777 205.9 331.324L205.756 330.907L205.742 330.91L200.352 316.697Z" fill="#FFDDDD"/>
<path d="M221.931 348.457C221.974 348.381 222.045 348.327 222.129 348.304C222.213 348.282 222.302 348.294 222.377 348.337L233.13 354.541C233.258 354.615 233.32 354.766 233.282 354.909C233.243 355.051 233.114 355.151 232.966 355.15C232.909 355.15 232.852 355.135 232.803 355.106L222.05 348.903C221.975 348.86 221.92 348.788 221.898 348.705C221.875 348.621 221.887 348.532 221.931 348.457Z" fill="#0B122D"/>
<path d="M216.585 353.145C216.629 353.069 216.7 353.015 216.784 352.992C216.868 352.97 216.957 352.982 217.032 353.026L228.895 359.87C229.023 359.944 229.086 360.094 229.047 360.237C229.009 360.38 228.879 360.479 228.731 360.479C228.674 360.479 228.618 360.464 228.569 360.435L216.705 353.591C216.63 353.548 216.575 353.476 216.553 353.393C216.53 353.309 216.542 353.22 216.585 353.145Z" fill="#0B122D"/>
<path d="M214.774 358.57C214.821 358.498 214.896 358.447 214.981 358.43C215.066 358.412 215.154 358.43 215.227 358.478L222.695 363.409C222.815 363.488 222.869 363.637 222.828 363.776C222.786 363.914 222.659 364.008 222.515 364.008C222.451 364.008 222.388 363.99 222.335 363.954L214.867 359.023C214.716 358.923 214.675 358.721 214.774 358.57Z" fill="#0B122D"/>
<g style="mix-blend-mode:overlay" opacity="0.6">
<path d="M352.876 188.447L354.754 189.477C355.536 188.824 355.936 187.822 355.82 186.809C355.781 184.853 357.394 179.436 359.241 176.379L358.626 176.659L352.876 188.447Z" fill="#030F1C"/>
</g>
<path fill-rule="evenodd" clip-rule="evenodd" d="M686.339 646.999H669.008V624.997H687.186L686.339 646.999ZM755.112 625.675L773.03 625.053L773.791 646.999H756.459L755.112 625.675Z" fill="#FFB7B6"/>
<path fill-rule="evenodd" clip-rule="evenodd" d="M686.775 635.206C686.775 635.206 688.056 634.541 688.31 639.718C688.355 640.638 688.835 641.477 689.377 642.425C689.934 643.399 690.556 644.489 690.841 645.9C691.78 650.558 691.487 660.235 691.487 660.235V662.594C691.487 663.262 691.221 663.903 690.749 664.376C690.276 664.848 689.635 665.114 688.966 665.114H624.884C624.216 665.114 623.575 664.848 623.102 664.376C622.63 663.903 622.364 663.262 622.364 662.594V659.514H622.46C623.073 656.739 626.729 655.583 640.174 652.288C648.959 650.135 665.483 640.192 666.956 634.593C667.058 634.139 667.42 633.788 667.877 633.701C668.335 633.613 668.801 633.806 669.063 634.191C669.667 644.439 671.975 646.263 675.214 646.345C683.557 646.557 686.775 635.206 686.775 635.206ZM789.17 664.623L789.125 664.625C789.503 665.246 789.706 665.958 789.712 666.685V669.683H752.048V666.685C752.049 666.325 752.1 665.967 752.201 665.622L755.324 643.839C755.433 643.078 757.715 642.459 758.637 642.639C759.037 642.517 759.444 642.426 759.857 642.367C759.526 641.844 759.316 641.253 759.245 640.637C759.178 639.632 759.64 638.665 760.464 638.085C760.89 637.714 761.479 637.591 762.019 637.76C763.262 638.144 764.456 640.024 765.413 642.039C766.111 642.035 766.803 642.04 767.468 642.05C767.931 640.148 768.694 638.247 769.959 637.233C770.776 636.561 771.861 636.311 772.89 636.556C774.179 636.823 774.938 637.404 775.144 638.283C775.399 639.372 774.697 640.77 773.647 642.155C774.234 642.175 774.816 642.279 775.008 642.578L789.17 664.623ZM772.083 637.233C771.482 637.232 770.899 637.442 770.437 637.829C769.36 638.692 768.684 640.352 768.255 642.064C769.971 642.101 771.405 642.166 772.068 642.196L772.068 642.196C772.287 642.206 772.422 642.212 772.455 642.212C772.498 642.206 772.551 642.2 772.605 642.195L772.639 642.191C773.806 640.782 774.621 639.399 774.4 638.457C774.268 637.894 773.708 637.506 772.735 637.303C772.52 637.258 772.302 637.235 772.083 637.233ZM760.007 640.575C759.963 639.822 760.319 639.103 760.943 638.681C761.17 638.467 761.496 638.394 761.793 638.491C762.711 638.774 763.695 640.281 764.558 642.048C763.171 642.071 761.811 642.132 760.672 642.258C760.313 641.761 760.084 641.183 760.007 640.575Z" fill="#4C3939"/>
<g style="mix-blend-mode:overlay" opacity="0.4">
<path d="M686.509 662.263C688.006 662.263 689.219 661.049 689.219 659.552C689.219 658.056 688.006 656.842 686.509 656.842C685.012 656.842 683.799 658.056 683.799 659.553C683.799 661.049 685.012 662.263 686.509 662.263V662.263Z" fill="#030F1C"/>
</g>
<g style="mix-blend-mode:overlay" opacity="0.4">
<path d="M685.578 655.135H691.499V654.371H685.578C682.842 654.374 680.625 656.591 680.621 659.327V664.083H622.31V667.162C622.31 667.831 622.575 668.472 623.048 668.945C623.52 669.417 624.161 669.683 624.83 669.683H688.912C689.58 669.683 690.221 669.417 690.694 668.945C691.166 668.472 691.432 667.831 691.432 667.162V664.083H681.385V659.327C681.388 657.012 683.264 655.137 685.578 655.135V655.135Z" fill="#030F1C"/>
</g>
<g style="mix-blend-mode:overlay" opacity="0.4">
<path d="M781.829 661.236H759.931C755.577 661.236 752.048 663.676 752.048 666.685V669.683H789.712V666.685C789.712 663.676 786.183 661.236 781.829 661.236Z" fill="#030F1C"/>
</g>
<g style="mix-blend-mode:overlay" opacity="0.4">
<path d="M658.491 647.087C658.357 647.418 658.249 647.659 658.208 647.749C658.192 647.785 658.17 647.817 658.144 647.846C659.34 649.023 660.451 650.283 661.47 651.616C661.595 651.785 661.56 652.024 661.392 652.15C661.223 652.276 660.985 652.242 660.858 652.075C659.751 650.632 658.536 649.276 657.222 648.018C657.094 648.016 656.89 648.009 656.64 647.995C655.184 648.703 653.551 649.48 651.909 650.23C653.189 651.469 654.376 652.803 655.458 654.218C655.585 654.387 655.551 654.627 655.382 654.753C655.213 654.88 654.973 654.845 654.847 654.676C653.724 653.215 652.491 651.842 651.159 650.569C649.837 651.164 648.526 651.731 647.316 652.217C646.863 652.399 646.398 652.575 645.928 652.749C647.166 653.957 648.315 655.253 649.365 656.628C649.491 656.797 649.456 657.035 649.287 657.161C649.119 657.287 648.88 657.254 648.753 657.086C647.649 655.647 646.437 654.295 645.129 653.039C640.454 654.694 635.522 655.862 635.522 655.862C635.522 655.862 636.327 659.087 639.122 659.849C641.917 660.611 657.797 655.149 661.995 653.116C666.192 651.083 661.888 645.374 661.888 645.374C661.888 645.374 660.518 646.083 658.491 647.087Z" fill="#030F1C"/>
</g>
<g style="mix-blend-mode:overlay" opacity="0.4">
<path d="M766.88 645.629C766.992 644.424 767.189 643.228 767.468 642.049C766.803 642.039 766.111 642.035 765.413 642.038C766.009 643.292 766.513 644.598 766.88 645.629Z" fill="#030F1C"/>
</g>
<g style="mix-blend-mode:overlay" opacity="0.4">
<path fill-rule="evenodd" clip-rule="evenodd" d="M772.965 643.006C771.68 644.461 770.281 645.812 768.781 647.045C770.333 647.164 771.853 647.544 773.278 648.169C773.4 648.229 773.482 648.349 773.492 648.485C773.502 648.621 773.439 648.753 773.326 648.829C773.213 648.906 773.068 648.917 772.945 648.857C771.303 648.175 769.55 647.799 767.773 647.748C767.674 647.647 767.523 647.619 767.394 647.676C767.265 647.733 767.184 647.864 767.192 648.005C767.005 648.032 766.827 647.918 766.773 647.737C766.174 645.789 765.433 643.888 764.558 642.047C763.171 642.07 761.811 642.131 760.672 642.256C762.296 644.704 766.306 647.005 766.355 647.034C766.499 647.115 766.574 647.28 766.541 647.443C766.508 647.605 766.374 647.727 766.209 647.745C764.123 647.987 762.056 648.367 760.02 648.881C759.986 648.891 759.952 648.895 759.917 648.895C759.726 648.895 759.564 648.754 759.538 648.565C759.512 648.376 759.63 648.197 759.814 648.145C761.533 647.697 763.279 647.356 765.041 647.125C763.635 646.222 761.04 644.37 759.857 642.365C758.608 642.563 757.768 642.867 757.718 643.329C757.46 645.702 758.417 656.229 759.687 656.97C760.958 657.711 778.84 657.541 778.951 657.109C779.205 656.123 774.558 645.941 772.965 643.006ZM759.961 650.758C760.182 650.693 765.487 649.185 774.615 650.748C774.823 650.784 774.962 650.981 774.927 651.189C774.892 651.396 774.695 651.536 774.487 651.502C765.566 649.972 760.247 651.471 760.176 651.491L760.176 651.491C760.045 651.53 759.903 651.495 759.805 651.401C759.706 651.307 759.665 651.167 759.697 651.035C759.729 650.902 759.83 650.797 759.961 650.758L759.961 650.758ZM759.359 654.486C764.958 653.853 770.61 653.853 776.208 654.488L776.208 654.488C776.417 654.509 776.604 654.36 776.632 654.152C776.656 653.942 776.505 653.753 776.296 653.728C770.633 653.087 764.916 653.087 759.253 653.73C759.055 653.758 758.912 653.934 758.926 654.134C758.939 654.334 759.105 654.489 759.306 654.49C759.324 654.49 759.342 654.489 759.359 654.486Z" fill="#030F1C"/>
</g>
<g style="mix-blend-mode:overlay" opacity="0.4">
<path d="M772.547 642.304C772.506 642.25 772.472 642.212 772.455 642.212C772.323 642.212 770.538 642.113 768.255 642.063C767.866 643.705 767.628 645.379 767.543 647.065C769.353 645.635 771.028 644.041 772.547 642.304V642.304Z" fill="#030F1C"/>
</g>
<path d="M671.8 367.011C671.8 367.011 662.83 480.337 663.338 499.14C663.846 517.942 665.371 633.806 665.371 633.806C665.371 633.806 677.567 640.412 690.271 633.806C690.271 633.806 697.894 562.153 701.451 540.81C705.008 519.467 703.992 490.501 703.992 490.501L722.286 445.273L753.881 635.278C753.881 635.278 770.054 639.395 777.677 634.314C777.677 634.314 776.153 598.233 777.677 562.661C779.202 527.089 776.153 501.172 771.579 487.452C771.579 487.452 781.735 414.779 779.702 367.011H671.8Z" fill="#2D2B72"/>
<g style="mix-blend-mode:overlay" opacity="0.6">
<path d="M751.487 620.887C751.487 620.887 762.5 625.586 777.272 620.887V623.981C769.104 626.793 760.24 626.857 752.032 624.163L751.487 620.887Z" fill="white"/>
</g>
<g style="mix-blend-mode:overlay" opacity="0.6">
<path d="M665.198 620.887C665.198 620.887 676.898 625.586 691.669 620.887L691.283 624.426C691.283 624.426 678.553 628.737 665.242 624.163L665.198 620.887Z" fill="white"/>
</g>
<g style="mix-blend-mode:overlay" opacity="0.6">
<path d="M779.413 397.892C779.39 397.892 779.367 397.89 779.345 397.886C755.711 393.681 759.592 367.482 759.633 367.218C759.667 367.01 759.863 366.869 760.071 366.902C760.278 366.934 760.421 367.129 760.388 367.337C760.347 367.595 756.587 393.061 779.479 397.134C779.674 397.169 779.81 397.347 779.792 397.544C779.775 397.741 779.61 397.892 779.413 397.892V397.892Z" fill="#030F1C"/>
</g>
<g style="mix-blend-mode:overlay" opacity="0.6">
<path d="M669.577 392.551C669.401 392.551 669.247 392.431 669.205 392.26C669.163 392.089 669.243 391.912 669.399 391.83C669.565 391.744 685.92 383.004 685.055 367.299C685.049 367.197 685.084 367.098 685.152 367.023C685.219 366.947 685.314 366.902 685.415 366.896C685.517 366.889 685.617 366.924 685.693 366.992C685.769 367.059 685.814 367.155 685.818 367.257C686.71 383.458 669.923 392.419 669.753 392.508C669.699 392.536 669.638 392.551 669.577 392.551Z" fill="#030F1C"/>
</g>
<g style="mix-blend-mode:overlay" opacity="0.6">
<path d="M671.801 367.011L671.317 374.631C713.796 391.469 779.915 379.719 779.915 379.719L779.703 367.011H671.801Z" fill="#030F1C"/>
</g>
<g style="mix-blend-mode:overlay" opacity="0.6">
<path d="M722.286 445.273L712.115 407.415C712.115 407.415 706.786 427.918 709.073 450.101C711.36 472.284 709.073 477.938 709.073 477.938L722.286 445.273Z" fill="#030F1C"/>
</g>
<g style="mix-blend-mode:overlay" opacity="0.6">
<path d="M669.762 394.687C669.762 394.687 674.256 392.678 676.035 399.792C677.814 406.906 675.705 441.97 673.673 461.789C671.64 481.608 669.194 511.844 668.807 527.597C668.42 543.351 664.151 546.41 664.151 546.41C664.151 546.41 662.832 501.581 663.585 489.979C664.338 478.378 666.294 432.166 669.762 394.687Z" fill="white"/>
</g>
<g style="mix-blend-mode:overlay" opacity="0.6">
<path d="M725.25 463.583C725.25 463.583 739.713 480.409 743.068 502.987C746.424 525.565 749.219 570.369 750.913 581.887C752.607 593.406 756.607 606.153 749.202 607.148L725.25 463.583Z" fill="white"/>
</g>
<g style="mix-blend-mode:overlay" opacity="0.6">
<path d="M704.111 497.147C704.098 497.147 704.086 497.146 704.073 497.144C703.973 497.135 703.88 497.085 703.816 497.007C703.751 496.929 703.721 496.828 703.731 496.727C703.743 496.603 704.894 484.221 699.938 475.96C699.83 475.779 699.889 475.545 700.069 475.436C700.25 475.328 700.485 475.387 700.593 475.568C705.681 484.047 704.504 496.676 704.491 496.802C704.472 496.997 704.307 497.147 704.111 497.147V497.147Z" fill="#030F1C"/>
</g>
<path d="M746.319 149.8C746.32 137.614 733.194 141.498 730.96 142.262C728.726 143.025 723.514 125.466 723.514 125.466C723.514 125.466 696.707 123.176 691.495 128.52C691.495 128.52 690.006 151.423 690.75 165.928C691.495 180.433 696.041 186.527 701.253 186.527C702.902 186.432 704.522 186.044 706.041 185.381V212.083L737.57 195.328L733.687 163.784C733.847 163.688 733.938 163.638 733.938 163.638C733.938 163.638 746.319 161.309 746.319 149.8Z" fill="#FFB7B6"/>
<path d="M690.509 148.174C690.509 148.174 691.973 135.635 692.16 132.163C692.428 127.169 696.994 126.121 699.679 129.624C703.54 134.825 710.094 137.151 716.292 135.519C721.731 134.229 724.021 132.748 724.52 138.338C725.018 143.929 726.888 153.213 728.633 150.729C730.378 148.246 732.331 142.786 735.789 142.151C741.072 141.181 744.34 147.606 743.093 151.439C741.846 155.271 740.084 157.661 733.562 161.285L735.596 177.7C751.756 155.874 757.844 125.899 735.925 118.958C727.737 116.365 719.231 99.5604 703.386 103.383C692.16 106.092 692.16 114.853 691.362 122.471C676.278 123.106 690.509 148.174 690.509 148.174Z" fill="#352316"/>
<path d="M738.408 147.277C734.791 146.038 731.45 154.012 731.309 154.352C731.228 154.546 731.318 154.77 731.509 154.852C731.556 154.872 731.605 154.882 731.656 154.882C731.807 154.882 731.944 154.79 732.003 154.648C732.587 153.271 733.303 151.955 734.139 150.719C734.897 150.586 735.678 150.731 736.34 151.129C736.999 151.628 737.42 152.386 737.499 153.217C737.528 153.401 737.685 153.536 737.869 153.537C737.89 153.537 737.91 153.535 737.931 153.531C738.136 153.497 738.275 153.3 738.241 153.092C738.133 152.049 737.592 151.103 736.753 150.491C736.151 150.103 735.45 149.902 734.737 149.913C735.809 148.568 737.031 147.609 738.166 148.001C738.362 148.068 738.576 147.962 738.642 147.762C738.709 147.563 738.605 147.346 738.408 147.277H738.408Z" fill="#0B122D"/>
<path d="M706.007 185.878C705.829 185.878 705.676 185.752 705.639 185.575C705.602 185.398 705.692 185.22 705.855 185.147C705.979 185.091 718.342 179.474 723.56 172.686C723.688 172.519 723.924 172.49 724.088 172.619C724.252 172.749 724.282 172.989 724.154 173.156C718.819 180.096 706.674 185.614 706.159 185.845C706.111 185.867 706.059 185.878 706.007 185.878V185.878Z" fill="#0B122D"/>
<path d="M723.637 131.991C723.553 131.991 723.472 131.963 723.406 131.911C717.728 127.434 719.841 118.755 719.934 118.388C719.986 118.184 720.191 118.062 720.391 118.114C720.592 118.166 720.713 118.373 720.663 118.577C720.642 118.662 718.583 127.14 723.868 131.307C723.995 131.408 724.045 131.579 723.993 131.733C723.941 131.887 723.798 131.991 723.637 131.991V131.991Z" fill="white"/>
<g style="mix-blend-mode:overlay" opacity="0.6">
<path d="M706.031 185.671C706.031 185.671 716.875 180.549 720.378 176.822C720.378 176.822 719.569 186.869 712.408 193.931C705.246 200.992 706.031 195.286 706.031 195.286L706.031 185.671Z" fill="#030F1C"/>
</g>
<path d="M696.664 169.23C696.601 169.004 696.628 168.762 696.741 168.558C696.854 168.353 697.042 168.202 697.265 168.139C698.371 167.814 700.413 167.202 701.967 166.665C703.588 166.012 705.163 165.25 706.684 164.385C706.949 164.239 707.27 164.242 707.533 164.392C707.796 164.543 707.963 164.821 707.977 165.127C708.082 167.479 707.804 172.071 704.162 173.008C699.732 174.147 697.413 171.713 696.664 169.23" fill="#161B36"/>
<path d="M698.591 172.162C698.591 172.162 702.402 166.756 707.846 167.991C707.846 167.991 707.855 172.213 704.345 173.164C700.566 174.189 698.591 172.162 698.591 172.162" fill="#E55151"/>
<path d="M704.577 138.728C705.174 138.262 705.932 137.956 707.937 138.473C709.94 138.991 712.65 141.521 711.881 141.889C711.11 142.257 709.4 140.179 707.696 140.432C705.993 140.684 704.988 140.968 704.509 140.557C703.906 140.043 704.29 138.952 704.577 138.728" fill="#161B36"/>
<path d="M694.892 138.297C694.165 138.1 693.35 138.112 691.693 139.37C690.037 140.627 688.489 144.018 689.339 144.058C690.189 144.099 690.985 141.514 692.655 141.084C694.323 140.654 695.358 140.526 695.645 139.962C696.009 139.25 695.243 138.393 694.892 138.297" fill="#161B36"/>
<path d="M691.351 149.105C691.097 149.104 690.86 148.973 690.721 148.757C690.583 148.54 690.561 148.267 690.664 148.031C691.259 146.665 692.046 145.915 693.003 145.8C694.463 145.632 695.524 147.002 695.641 147.16C695.893 147.494 695.831 147.973 695.502 148.229C695.173 148.486 694.701 148.424 694.448 148.091C694.279 147.87 693.678 147.258 693.178 147.318C692.798 147.365 692.394 147.838 692.04 148.649C691.919 148.926 691.649 149.105 691.351 149.105V149.105Z" fill="#161B36"/>
<path d="M708.828 149.105C708.53 149.105 708.26 148.926 708.139 148.65C707.785 147.838 707.381 147.365 707.001 147.318C706.507 147.26 705.9 147.87 705.731 148.091C705.477 148.423 705.006 148.485 704.678 148.228C704.349 147.972 704.287 147.495 704.538 147.16C704.656 147.002 705.733 145.63 707.176 145.8C708.132 145.915 708.92 146.665 709.515 148.031C709.618 148.267 709.596 148.54 709.458 148.757C709.319 148.974 709.082 149.104 708.828 149.105H708.828Z" fill="#161B36"/>
<g style="mix-blend-mode:overlay" opacity="0.6">
<path d="M698.523 161.961C697.797 161.988 697.077 161.818 696.437 161.469C696.017 161.231 695.725 160.814 695.641 160.333C695.485 159.337 696.488 157.795 697.716 156.031C698.028 155.61 698.313 155.169 698.571 154.712C698.821 154.169 698.749 149.221 698.536 144.752L699.288 144.715C699.362 146.265 699.707 154.046 699.253 155.035C698.979 155.535 698.671 156.015 698.331 156.471C697.557 157.583 696.263 159.443 696.384 160.213C696.434 160.473 696.599 160.696 696.831 160.818C697.912 161.29 699.128 161.329 700.236 160.925L700.466 161.653C699.838 161.856 699.183 161.96 698.523 161.961V161.961Z" fill="#030F1C"/>
</g>
<path fill-rule="evenodd" clip-rule="evenodd" d="M803.799 262.84C806.538 269.876 809.625 277.809 813.177 286.763C819.515 302.74 808.886 318.425 787.119 316.266C782.381 315.796 777.704 315.283 772.879 314.669C772.491 322.914 772.527 331.07 776.288 345.36C778.396 353.9 779.533 362.651 779.676 371.447C779.676 371.447 690.087 386.522 671.774 371.447C667.974 368.319 669.837 360.821 671.531 354.006C672.367 350.642 673.161 347.445 673.214 345.022C673.361 338.198 673.676 331.71 673.975 325.568C674.17 321.573 674.357 317.725 674.486 314.027C671.949 318.122 669.186 322.074 666.21 325.862C658.295 335.931 652.315 339.551 641.372 333.749C632.604 329.1 617.67 315.82 599.254 298.133C598.438 298.407 597.54 298.277 596.835 297.785L592.288 294.518C591.054 293.653 589.884 290.118 590.75 288.885L603.3 270.827C604.165 269.593 607.366 268.549 608.6 269.414L614.052 273.239C614.706 273.7 615.123 274.427 615.19 275.225L643.089 292.465C643.761 292.882 644.601 292.923 645.311 292.572C646.02 292.222 646.498 291.529 646.574 290.741C647.545 280.735 649.094 270.794 651.213 260.966C654.825 244.551 660.867 226.515 670.734 218.016C670.738 218.011 670.742 218.004 670.745 217.998C670.749 217.991 670.753 217.984 670.757 217.978C674.823 212.558 700.401 201.548 700.401 201.548L714.509 211.301L740.716 199.515C740.716 199.515 752.949 202.101 761.717 204.377C782.821 208.942 785.685 216.298 803.799 262.84ZM774.245 282.032C774.217 282.754 774.19 283.47 774.162 284.18L775.631 284.249C775.144 283.255 774.717 282.383 774.267 281.476L774.245 282.032Z" fill="#34AD82"/>
<path d="M595.55 204.921L581.857 194.136L583.034 192.641C583.388 192.191 583.311 191.54 582.861 191.186L580.089 189.002L580.969 187.885C581.258 187.519 581.195 186.988 580.828 186.699L570.473 178.543C570.107 178.255 569.576 178.318 569.287 178.684L568.407 179.802L565.635 177.618C565.419 177.448 565.144 177.371 564.872 177.403C564.599 177.436 564.35 177.575 564.18 177.791L563.002 179.286L549.309 168.502C548.668 167.997 547.854 167.768 547.045 167.864C546.236 167.96 545.498 168.374 544.993 169.014L490.933 237.654C490.429 238.294 490.2 239.108 490.296 239.917C490.392 240.726 490.806 241.464 491.446 241.968L537.688 278.389C539.021 279.438 540.953 279.209 542.003 277.876L596.063 209.236C597.113 207.903 596.883 205.971 595.55 204.921V204.921Z" fill="#3871D6"/>
<g style="mix-blend-mode:overlay" opacity="0.6">
<path fill-rule="evenodd" clip-rule="evenodd" d="M591.102 205.095L580.069 196.406L579.135 197.593C578.965 197.809 578.716 197.948 578.443 197.98C578.17 198.013 577.896 197.935 577.68 197.765L560.453 184.198C560.004 183.844 559.926 183.193 560.28 182.743L561.215 181.556L550.183 172.867C549.607 172.414 548.874 172.207 548.147 172.294C547.419 172.381 546.755 172.753 546.302 173.329L496.937 236.006C496.484 236.582 496.278 237.314 496.364 238.042C496.451 238.769 496.823 239.433 497.398 239.886L538.317 272.114C538.893 272.568 539.625 272.774 540.353 272.687C541.081 272.601 541.745 272.229 542.198 271.653L591.563 208.976C592.016 208.4 592.222 207.668 592.136 206.94C592.049 206.212 591.677 205.549 591.102 205.095ZM528.165 204.532C528.352 204.293 528.627 204.137 528.929 204.1C529.23 204.064 529.535 204.148 529.774 204.335L543.616 215.163C544.114 215.553 544.202 216.274 543.812 216.772C543.422 217.271 542.702 217.359 542.203 216.969L528.362 206.141C527.863 205.751 527.775 205.031 528.165 204.532ZM518.493 217.44C518.191 217.477 517.916 217.633 517.729 217.872C517.34 218.371 517.428 219.091 517.926 219.481L538.689 235.723C539.187 236.113 539.908 236.025 540.298 235.526C540.688 235.028 540.6 234.307 540.101 233.917L519.339 217.675C519.099 217.488 518.795 217.403 518.493 217.44ZM544.809 249.807C544.622 250.046 544.347 250.202 544.046 250.239C543.744 250.276 543.44 250.191 543.2 250.004L512.708 226.151C512.211 225.761 512.124 225.041 512.513 224.543C512.903 224.045 513.622 223.957 514.121 224.345L544.613 248.198C545.111 248.588 545.199 249.308 544.809 249.807ZM553.381 236.038C553.683 236.001 553.958 235.846 554.145 235.607C554.535 235.108 554.447 234.388 553.948 233.998L524.556 211.005C524.234 210.753 523.801 210.692 523.421 210.845C523.042 210.998 522.772 211.343 522.715 211.748C522.658 212.154 522.821 212.559 523.144 212.811L552.536 235.804C552.775 235.991 553.079 236.075 553.381 236.038ZM561.923 220.187C561.735 220.427 561.461 220.582 561.159 220.619C560.857 220.656 560.553 220.571 560.314 220.384L533.579 199.471C533.081 199.081 532.993 198.361 533.383 197.862C533.773 197.363 534.493 197.275 534.992 197.665L561.726 218.578C562.224 218.968 562.313 219.688 561.923 220.187ZM574.38 220.635C574.878 221.025 575.599 220.937 575.989 220.438C576.378 219.94 576.29 219.22 575.792 218.83L540.21 190.995C539.887 190.743 539.454 190.682 539.075 190.835C538.695 190.988 538.426 191.333 538.368 191.738C538.311 192.144 538.474 192.549 538.797 192.801L574.38 220.635Z" fill="white"/>
</g>
<g style="mix-blend-mode:overlay" opacity="0.6">
<path d="M674.653 303.859C674.59 296.418 673.273 281.813 671.998 266.705C670.428 269.24 669.171 271.955 668.255 274.792C663.324 290.174 668.437 299.368 668.21 307.514C668.032 313.866 654.647 323.162 660.919 331.798C664.163 328.365 666.21 325.862 666.21 325.862C669.186 322.074 671.949 318.124 674.486 314.029C674.609 310.503 674.681 307.109 674.653 303.859Z" fill="#030F1C"/>
</g>
<g style="mix-blend-mode:overlay" opacity="0.6">
<path d="M641.325 300.436C639.715 299.646 626.626 293.021 619.764 286.74C615.953 283.251 615.565 278.234 617.326 276.545L643.089 292.465C643.761 292.882 644.601 292.923 645.311 292.572C646.02 292.221 646.498 291.529 646.575 290.741C647.545 280.735 649.094 270.793 651.213 260.966C653.754 262.033 656.549 264.574 655.786 271.688C654.951 279.485 654.855 294.422 651.806 299.384C651.029 300.649 647.293 303.364 641.325 300.436Z" fill="white"/>
</g>
<path d="M645.783 306.832C645.649 306.832 645.525 306.763 645.456 306.649C645.387 306.534 645.382 306.392 645.444 306.274C648.415 300.542 645.932 294.632 645.906 294.573C645.851 294.448 645.867 294.302 645.948 294.192C646.03 294.081 646.165 294.023 646.301 294.039C646.437 294.056 646.554 294.144 646.608 294.27C646.717 294.524 649.264 300.564 646.123 306.626C646.057 306.752 645.926 306.832 645.783 306.832Z" fill="#0B122D"/>
<g style="mix-blend-mode:overlay" opacity="0.6">
<path d="M600.635 297.117L614.719 277.039C615.565 275.833 602.931 284.79 601.488 291.99C600.554 296.652 596.706 295.372 595.166 293.796C593.005 291.584 592.972 285.687 592.972 285.687C592.944 285.668 590.932 288.684 590.905 288.664L590.75 288.885C589.885 290.118 591.054 293.653 592.288 294.518L596.835 297.784C597.427 298.2 598.16 298.363 598.873 298.238C599.586 298.113 600.22 297.71 600.635 297.117V297.117Z" fill="#030F1C"/>
</g>
<path d="M671.836 266.258C671.647 266.258 671.487 266.12 671.459 265.933C668.913 249.016 670.121 236.78 670.133 236.658C670.155 236.449 670.342 236.297 670.552 236.318C670.761 236.34 670.914 236.526 670.893 236.736C670.881 236.856 669.683 249.005 672.214 265.82C672.229 265.92 672.204 266.022 672.144 266.103C672.084 266.185 671.994 266.239 671.893 266.254C671.874 266.257 671.855 266.258 671.836 266.258V266.258Z" fill="#0B122D"/>
<path d="M682.107 357.6C682.04 357.6 681.974 357.582 681.916 357.548C675.25 353.702 672.94 345.471 672.846 345.122C672.81 344.991 672.847 344.85 672.943 344.753C673.039 344.656 673.179 344.617 673.311 344.652C673.443 344.687 673.547 344.789 673.583 344.921C673.605 345.003 675.909 353.201 682.298 356.887C682.448 356.974 682.52 357.15 682.476 357.317C682.431 357.483 682.28 357.6 682.107 357.6V357.6Z" fill="#0B122D"/>
<g style="mix-blend-mode:overlay" opacity="0.6">
<path d="M766.867 267.042C766.592 266.515 766.317 265.98 766.034 265.445C765.759 264.918 765.476 264.383 765.193 263.848C762.89 259.461 760.402 254.796 757.801 250.02C757.363 256.612 757.309 267.681 759.422 283.485L773.66 284.156C773.71 282.944 773.762 281.748 773.815 280.567C772.489 277.911 770.776 274.565 766.867 267.042Z" fill="#030F1C"/>
</g>
<g style="mix-blend-mode:overlay" opacity="0.6">
<path d="M772.939 314.677C769.925 314.294 766.85 313.869 763.665 313.387C764.453 335.067 756.304 349.907 747.322 359.42C738.157 369.127 719.204 371.446 705.596 378.147C731.654 379.577 779.676 371.446 779.676 371.446C779.676 371.446 780.264 358.878 775.087 340.451C773.515 336.797 772.961 326.743 772.939 314.677Z" fill="#030F1C"/>
</g>
<g style="mix-blend-mode:overlay" opacity="0.6">
<path d="M724.312 213.611L753.185 202.306L740.716 199.515L724.312 213.611V213.611Z" fill="#030F1C"/>
</g>
<path d="M784.729 291.933C784.542 291.932 784.383 291.797 784.353 291.613C784.311 291.362 783.249 285.469 776.267 285.268C776.056 285.262 775.89 285.086 775.896 284.875C775.91 284.668 776.081 284.507 776.289 284.504C783.913 284.724 785.095 291.422 785.106 291.489C785.123 291.589 785.099 291.692 785.04 291.774C784.981 291.856 784.891 291.912 784.791 291.928C784.771 291.931 784.75 291.933 784.729 291.933Z" fill="#0B122D"/>
<g style="mix-blend-mode:overlay" opacity="0.6">
<path d="M758.598 289.586C749.896 288.508 747.918 285.712 747.918 282.942L775.631 284.249C773.621 280.146 764.562 262.645 764.279 262.11C766.894 261.273 770.228 263.587 773.018 267.989C776.278 273.134 785.404 285.648 781.67 289.227C779.521 291.286 763.528 290.197 758.598 289.586Z" fill="white"/>
</g>
<g style="mix-blend-mode:overlay" opacity="0.6">
<path d="M743.193 308.356L744.107 283.847C744.162 282.375 738.422 296.759 741.123 303.588C742.872 308.009 738.946 309.026 736.796 308.539C733.78 307.857 730.549 302.924 730.549 302.924C730.515 302.923 730.464 306.548 730.431 306.545L730.421 306.815C730.365 308.321 733.267 310.653 734.773 310.709L740.365 310.981C741.088 311.008 741.792 310.746 742.322 310.254C742.853 309.762 743.166 309.079 743.193 308.356V308.356Z" fill="#030F1C"/>
</g>
<path d="M762.859 284.132L762.841 284.131L743.94 283.238C743.76 283.23 743.611 283.098 743.581 282.92C743.448 282.108 742.767 281.498 741.945 281.456L736.454 281.151C736.243 281.14 736.082 280.96 736.093 280.749C736.105 280.538 736.285 280.377 736.496 280.389L741.987 280.694C743.05 280.748 743.963 281.468 744.264 282.489L762.877 283.369C763.084 283.379 763.245 283.552 763.24 283.759C763.235 283.966 763.066 284.132 762.859 284.132V284.132Z" fill="#0B122D"/>
<path d="M782.553 316.178C782.533 316.178 782.513 316.177 782.493 316.174L745.478 310.401C745.343 310.38 745.229 310.289 745.179 310.161C745.13 310.033 745.152 309.889 745.238 309.783C745.324 309.676 745.461 309.624 745.596 309.645L782.611 315.419C782.808 315.45 782.948 315.627 782.933 315.826C782.918 316.024 782.752 316.178 782.553 316.178V316.178Z" fill="#0B122D"/>
<path fill-rule="evenodd" clip-rule="evenodd" d="M718.201 203.678C732.794 194.539 737.233 186.472 737.233 186.472L740.716 199.515L724.314 213.611C723.629 211.807 722.793 210.065 721.814 208.403L714.509 211.301L718.201 203.678ZM714.509 211.301L712.86 203.306C706.341 200.338 705.991 194.941 705.991 194.941L700.401 201.548L706.044 213.902L710.247 208.355L714.509 211.301Z" fill="#2D2B72"/>
<g style="mix-blend-mode:overlay" opacity="0.6">
<path d="M718.2 203.678L714.509 211.301L721.814 208.403C720.867 206.647 719.647 205.052 718.2 203.678V203.678Z" fill="#030F1C"/>
</g>
<g style="mix-blend-mode:overlay" opacity="0.6">
<path d="M712.859 203.306L714.509 211.302L710.247 208.355L712.859 203.306V203.306Z" fill="#030F1C"/>
</g>
<path fill-rule="evenodd" clip-rule="evenodd" d="M716.901 206.36L713.546 206.633L714.509 211.302L716.901 206.36ZM578.557 253.099L574.21 241.368L571.296 235.238C570.984 234.219 570.373 233.318 569.543 232.65C569.543 232.65 564.725 229.392 563.498 230.458C562.293 231.505 563.897 233.642 565.655 235.986L565.656 235.987C565.821 236.207 565.987 236.428 566.152 236.651C567.444 238.389 567.573 239.609 567.344 240.415C566.864 242.042 566.78 243.761 567.099 245.427L567.194 245.896L557.076 258.742C557.076 258.742 560.7 263.531 564.627 264.438C566.674 265.003 568.603 265.933 570.32 267.182L591.617 287.637L603.3 270.826C603.323 270.794 603.351 270.762 603.378 270.73L603.379 270.729C603.389 270.718 603.398 270.707 603.408 270.695L582.599 256.396L578.557 253.099ZM699.803 282.082L701.843 282.321L731.148 284.813C731.148 284.821 731.146 284.829 731.145 284.836L730.524 303.677L698.783 297.57L693.832 296.698C693.832 296.698 673.051 297.643 669.308 295.567C665.565 293.491 667.9 291.494 667.9 291.494C667.9 291.494 661.875 289.533 664.452 286.161C664.452 286.161 659.129 284.99 660.889 280.625C660.889 280.625 643.01 279.176 643.865 275.926C644.721 272.677 679.817 275.316 679.817 275.316C679.817 275.316 668.635 263.996 672.635 260.592C677.065 264.904 682.189 268.441 687.793 271.054C697.09 275.383 699.803 282.082 699.803 282.082Z" fill="#FFB7B6"/>
<path d="M668.396 280.798H661.75C661.539 280.798 661.368 280.627 661.368 280.416C661.368 280.205 661.539 280.034 661.75 280.034H668.396C668.607 280.034 668.778 280.205 668.778 280.416C668.778 280.627 668.607 280.798 668.396 280.798Z" fill="#030F1C"/>
<path d="M674.003 286.484H665.281C665.07 286.484 664.899 286.313 664.899 286.102C664.899 285.891 665.07 285.72 665.281 285.72H674.003C674.214 285.72 674.385 285.891 674.385 286.102C674.385 286.313 674.214 286.484 674.003 286.484Z" fill="#030F1C"/>
<path d="M674.77 291.786H668.909C668.698 291.786 668.527 291.615 668.527 291.404C668.527 291.193 668.698 291.022 668.909 291.022H674.77C674.981 291.022 675.152 291.193 675.152 291.404C675.152 291.615 674.981 291.786 674.77 291.786Z" fill="#030F1C"/>
<mask id="mask0_458_4456" style="mask-type:luminance" maskUnits="userSpaceOnUse" x="851" y="263" width="109" height="109">
<path fill-rule="evenodd" clip-rule="evenodd" d="M851 317.234L905.234 263L959.467 317.234L905.234 371.467L851 317.234Z" fill="white"/>
</mask>
<g mask="url(#mask0_458_4456)">
<circle cx="853.791" cy="317.234" r="1.97384" transform="rotate(-45 853.791 317.234)" fill="#85CEB4"/>
<circle cx="860.57" cy="324.012" r="1.97384" transform="rotate(-45 860.57 324.012)" fill="#85CEB4"/>
<circle cx="867.35" cy="330.792" r="1.97384" transform="rotate(-45 867.35 330.792)" fill="#85CEB4"/>
<circle cx="874.128" cy="337.571" r="1.97384" transform="rotate(-45 874.128 337.571)" fill="#85CEB4"/>
<circle cx="880.909" cy="344.351" r="1.97384" transform="rotate(-45 880.909 344.351)" fill="#85CEB4"/>
<circle cx="887.688" cy="351.13" r="1.97384" transform="rotate(-45 887.688 351.13)" fill="#85CEB4"/>
<circle cx="894.467" cy="357.909" r="1.97384" transform="rotate(-45 894.467 357.909)" fill="#85CEB4"/>
<circle cx="901.246" cy="364.688" r="1.97384" transform="rotate(-45 901.246 364.688)" fill="#85CEB4"/>
<circle cx="860.57" cy="310.455" r="1.97384" transform="rotate(-45 860.57 310.455)" fill="#85CEB4"/>
<circle cx="867.35" cy="317.234" r="1.97384" transform="rotate(-45 867.35 317.234)" fill="#85CEB4"/>
<circle cx="874.128" cy="324.012" r="1.97384" transform="rotate(-45 874.128 324.012)" fill="#85CEB4"/>
<circle cx="880.909" cy="330.792" r="1.97384" transform="rotate(-45 880.909 330.792)" fill="#85CEB4"/>
<circle cx="887.688" cy="337.571" r="1.97384" transform="rotate(-45 887.688 337.571)" fill="#85CEB4"/>
<circle cx="894.467" cy="344.351" r="1.97384" transform="rotate(-45 894.467 344.351)" fill="#85CEB4"/>
<circle cx="901.246" cy="351.13" r="1.97384" transform="rotate(-45 901.246 351.13)" fill="#85CEB4"/>
<circle cx="908.025" cy="357.909" r="1.97384" transform="rotate(-45 908.025 357.909)" fill="#85CEB4"/>
<circle cx="867.35" cy="303.675" r="1.97384" transform="rotate(-45 867.35 303.675)" fill="#85CEB4"/>
<circle cx="874.128" cy="310.455" r="1.97384" transform="rotate(-45 874.128 310.455)" fill="#85CEB4"/>
<circle cx="880.909" cy="317.234" r="1.97384" transform="rotate(-45 880.909 317.234)" fill="#85CEB4"/>
<circle cx="887.688" cy="324.012" r="1.97384" transform="rotate(-45 887.688 324.012)" fill="#85CEB4"/>
<circle cx="894.467" cy="330.792" r="1.97384" transform="rotate(-45 894.467 330.792)" fill="#85CEB4"/>
<circle cx="901.246" cy="337.571" r="1.97384" transform="rotate(-45 901.246 337.571)" fill="#85CEB4"/>
<circle cx="908.025" cy="344.351" r="1.97384" transform="rotate(-45 908.025 344.351)" fill="#85CEB4"/>
<circle cx="914.804" cy="351.13" r="1.97384" transform="rotate(-45 914.804 351.13)" fill="#85CEB4"/>
<circle cx="874.128" cy="296.896" r="1.97384" transform="rotate(-45 874.128 296.896)" fill="#85CEB4"/>
<circle cx="880.909" cy="303.675" r="1.97384" transform="rotate(-45 880.909 303.675)" fill="#85CEB4"/>
<circle cx="887.688" cy="310.455" r="1.97384" transform="rotate(-45 887.688 310.455)" fill="#85CEB4"/>
<circle cx="894.467" cy="317.234" r="1.97384" transform="rotate(-45 894.467 317.234)" fill="#85CEB4"/>
<circle cx="901.246" cy="324.012" r="1.97384" transform="rotate(-45 901.246 324.012)" fill="#85CEB4"/>
<circle cx="908.025" cy="330.792" r="1.97384" transform="rotate(-45 908.025 330.792)" fill="#85CEB4"/>
<circle cx="914.804" cy="337.571" r="1.97384" transform="rotate(-45 914.804 337.571)" fill="#85CEB4"/>
<circle cx="921.583" cy="344.351" r="1.97384" transform="rotate(-45 921.583 344.351)" fill="#85CEB4"/>
<circle cx="880.909" cy="290.116" r="1.97384" transform="rotate(-45 880.909 290.116)" fill="#85CEB4"/>
<circle cx="887.688" cy="296.896" r="1.97384" transform="rotate(-45 887.688 296.896)" fill="#85CEB4"/>
<circle cx="894.467" cy="303.675" r="1.97384" transform="rotate(-45 894.467 303.675)" fill="#85CEB4"/>
<circle cx="901.246" cy="310.455" r="1.97384" transform="rotate(-45 901.246 310.455)" fill="#85CEB4"/>
<circle cx="908.025" cy="317.234" r="1.97384" transform="rotate(-45 908.025 317.234)" fill="#85CEB4"/>
<circle cx="914.804" cy="324.012" r="1.97384" transform="rotate(-45 914.804 324.012)" fill="#85CEB4"/>
<circle cx="921.583" cy="330.792" r="1.97384" transform="rotate(-45 921.583 330.792)" fill="#85CEB4"/>
<circle cx="928.363" cy="337.571" r="1.97384" transform="rotate(-45 928.363 337.571)" fill="#85CEB4"/>
<circle cx="887.688" cy="283.337" r="1.97384" transform="rotate(-45 887.688 283.337)" fill="#85CEB4"/>
<circle cx="894.467" cy="290.116" r="1.97384" transform="rotate(-45 894.467 290.116)" fill="#85CEB4"/>
<circle cx="901.246" cy="296.896" r="1.97384" transform="rotate(-45 901.246 296.896)" fill="#85CEB4"/>
<circle cx="908.025" cy="303.675" r="1.97384" transform="rotate(-45 908.025 303.675)" fill="#85CEB4"/>
<circle cx="914.804" cy="310.455" r="1.97384" transform="rotate(-45 914.804 310.455)" fill="#85CEB4"/>
<circle cx="921.583" cy="317.234" r="1.97384" transform="rotate(-45 921.583 317.234)" fill="#85CEB4"/>
<circle cx="928.363" cy="324.012" r="1.97384" transform="rotate(-45 928.363 324.012)" fill="#85CEB4"/>
<circle cx="935.142" cy="330.792" r="1.97384" transform="rotate(-45 935.142 330.792)" fill="#85CEB4"/>
<circle cx="894.467" cy="276.559" r="1.97384" transform="rotate(-45 894.467 276.559)" fill="#85CEB4"/>
<circle cx="901.246" cy="283.337" r="1.97384" transform="rotate(-45 901.246 283.337)" fill="#85CEB4"/>
<circle cx="908.025" cy="290.116" r="1.97384" transform="rotate(-45 908.025 290.116)" fill="#85CEB4"/>
<circle cx="914.804" cy="296.896" r="1.97384" transform="rotate(-45 914.804 296.896)" fill="#85CEB4"/>
<circle cx="921.583" cy="303.675" r="1.97384" transform="rotate(-45 921.583 303.675)" fill="#85CEB4"/>
<circle cx="928.363" cy="310.455" r="1.97384" transform="rotate(-45 928.363 310.455)" fill="#85CEB4"/>
<circle cx="935.142" cy="317.234" r="1.97384" transform="rotate(-45 935.142 317.234)" fill="#85CEB4"/>
<circle cx="941.921" cy="324.012" r="1.97384" transform="rotate(-45 941.921 324.012)" fill="#85CEB4"/>
<circle cx="901.246" cy="269.779" r="1.97384" transform="rotate(-45 901.246 269.779)" fill="#85CEB4"/>
<circle cx="908.025" cy="276.559" r="1.97384" transform="rotate(-45 908.025 276.559)" fill="#85CEB4"/>
<circle cx="914.804" cy="283.337" r="1.97384" transform="rotate(-45 914.804 283.337)" fill="#85CEB4"/>
<circle cx="921.583" cy="290.116" r="1.97384" transform="rotate(-45 921.583 290.116)" fill="#85CEB4"/>
<circle cx="928.363" cy="296.896" r="1.97384" transform="rotate(-45 928.363 296.896)" fill="#85CEB4"/>
<circle cx="935.142" cy="303.675" r="1.97384" transform="rotate(-45 935.142 303.675)" fill="#85CEB4"/>
<circle cx="941.921" cy="310.455" r="1.97384" transform="rotate(-45 941.921 310.455)" fill="#85CEB4"/>
<circle cx="948.701" cy="317.234" r="1.97384" transform="rotate(-45 948.701 317.234)" fill="#85CEB4"/>
</g>
</g>
<defs>
<clipPath id="clip0_458_4456">
<rect width="1000" height="669" fill="white"/>
</clipPath>
</defs>
</svg>
