<svg width="1167" height="908" viewBox="0 0 1167 908" fill="none" xmlns="http://www.w3.org/2000/svg">
<circle cx="420.817" cy="212.992" r="212.992" fill="#FCF2FF"/>
<rect x="421.288" y="87.2812" width="356.193" height="225.8" fill="#F2E9FF"/>
<g style="mix-blend-mode:overlay">
<rect x="421.288" y="87.2812" width="356.193" height="22.0477" fill="#231F20"/>
</g>
<g style="mix-blend-mode:overlay" opacity="0.6">
<ellipse cx="433.329" cy="98.1696" rx="4.84243" ry="4.83857" fill="#414042"/>
</g>
<g style="mix-blend-mode:overlay" opacity="0.6">
<ellipse cx="449.876" cy="98.1696" rx="4.84243" ry="4.83857" fill="#414042"/>
</g>
<g style="mix-blend-mode:overlay" opacity="0.6">
<ellipse cx="467.225" cy="98.1696" rx="4.84243" ry="4.83857" fill="#414042"/>
</g>
<path d="M566.207 164.295V165.101C565.756 178.71 554.753 189.6 541.13 189.921C527.507 190.242 516.002 179.883 514.909 166.311V165.505L497.719 166.246V167.053C498.617 190.43 518.112 208.767 541.519 208.251C564.926 207.736 583.594 188.559 583.462 165.166V164.359L566.207 164.295Z" fill="#0071BC"/>
<path d="M515.297 164.296L497.154 163.715C497.478 153.51 501.4 143.748 508.227 136.151L521.738 148.264C517.772 152.685 515.492 158.362 515.297 164.296V164.296Z" fill="#231F20"/>
<path d="M565.689 163.744C565.301 156.788 562.06 150.3 556.73 145.809L556.198 145.341C546.212 137.42 531.881 138.188 522.801 147.131L510.033 134.228C525.657 118.855 550.3 117.533 567.481 131.148L568.417 131.922C577.579 139.652 583.149 150.812 583.816 162.776L565.689 163.744Z" fill="#EC7EF2"/>
<path d="M659.873 207.15C636.907 207.272 618.085 188.973 617.579 166.031C617.072 143.089 635.068 123.978 658.016 123.088L658.694 138.636C644.175 139.114 632.747 151.181 633.07 165.693C633.393 180.205 645.347 191.753 659.873 191.586V207.15Z" fill="#0071BC"/>
<path d="M676.708 146.341C672.293 142.37 666.617 140.085 660.68 139.889L661.261 121.761C671.474 122.083 681.245 126.002 688.846 132.825L676.708 146.341Z" fill="#231F20"/>
<path d="M662.198 208.372L661.229 190.26C668.191 189.872 674.684 186.634 679.179 181.309L679.55 180.825C687.482 170.855 686.713 156.536 677.758 147.471L690.671 134.729C706.094 150.308 707.452 174.938 693.835 192.115L693.077 193.05C685.329 202.181 674.161 207.723 662.198 208.372Z" fill="#EC7EF2"/>
<path d="M550.645 288.425C570.127 287.893 577.262 255.394 596.745 252.733C616.227 250.071 622.087 265.458 635.726 265.458C649.366 265.458 662.037 242.12 684.393 239.491C706.749 236.862 753.575 288.248 753.575 288.248C753.575 288.248 531.162 288.893 550.645 288.425Z" fill="#EC7EF2"/>
<path d="M551.713 288.164C571.083 287.842 578.201 268.181 597.587 266.584C616.973 264.988 622.784 274.278 636.327 274.278C649.869 274.278 662.508 260.181 684.751 258.568C706.994 256.956 753.562 288.051 753.562 288.051C753.562 288.051 532.327 288.487 551.713 288.164Z" fill="#0071BC"/>
<path d="M753.464 289.309H550.76V239.424H552.229V287.826H753.464V289.309V289.309Z" fill="#A4C3EE"/>
<g style="mix-blend-mode:overlay">
<rect x="511.875" y="218.531" width="56.1076" height="7.04818" rx="3.52409" fill="#231F20"/>
</g>
<g style="mix-blend-mode:overlay">
<rect x="632.128" y="218.531" width="56.1076" height="7.04818" rx="3.52409" fill="#231F20"/>
</g>
<g style="mix-blend-mode:overlay">
<rect x="449.186" y="234.985" width="82.5634" height="4.72568" rx="2.36284" fill="#231F20"/>
<rect x="449.183" y="246.199" width="75.2029" height="4.72566" rx="2.36283" fill="#231F20"/>
<rect x="449.183" y="257.4" width="57.3828" height="4.72566" rx="2.36283" fill="#231F20"/>
</g>
<g style="mix-blend-mode:overlay">
<rect x="449.991" y="272.101" width="52.5565" height="14.4835" rx="7.24173" fill="#231F20"/>
</g>
<g style="mix-blend-mode:overlay">
<ellipse cx="754.336" cy="98.1696" rx="4.84242" ry="4.83857" fill="#231F20"/>
</g>
<g style="mix-blend-mode:overlay">
<rect x="691.786" y="94.2295" width="48.6181" height="8.87071" rx="4.43535" fill="#231F20"/>
</g>
<rect x="801.736" y="180.257" width="209.358" height="132.823" rx="24.372" fill="#F2E9FF"/>
<g style="mix-blend-mode:overlay">
<path d="M807.22 180.257L1005.6 180.257C1008.63 180.257 1011.08 182.712 1011.08 185.741V193.226L801.736 193.226V185.741C801.736 182.712 804.191 180.257 807.22 180.257Z" fill="#231F20"/>
</g>
<g style="mix-blend-mode:overlay" opacity="0.6">
<ellipse cx="808.809" cy="186.661" rx="2.84622" ry="2.84622" fill="#414042"/>
</g>
<g style="mix-blend-mode:overlay" opacity="0.6">
<circle cx="818.539" cy="186.661" r="2.84622" fill="#414042"/>
</g>
<g style="mix-blend-mode:overlay" opacity="0.6">
<ellipse cx="828.738" cy="186.661" rx="2.84622" ry="2.84622" fill="#414042"/>
</g>
<g style="mix-blend-mode:overlay">
<ellipse cx="997.487" cy="186.661" rx="2.84621" ry="2.84622" fill="#231F20"/>
</g>
<g style="mix-blend-mode:overlay">
<rect x="960.723" y="184.344" width="28.576" height="5.21806" rx="2.60903" fill="#231F20"/>
</g>
<path d="M953.466 228.972H958.362V230.537H954.975L954.88 231.922C955.219 231.825 955.57 231.777 955.923 231.78C957.498 231.78 958.713 232.529 958.713 234.342C958.713 236.154 957.517 237.102 955.686 237.102C954.574 237.124 953.5 236.696 952.707 235.916L953.77 234.645C954.264 235.172 954.945 235.486 955.667 235.518C956.483 235.518 956.995 235.12 956.995 234.398C956.995 233.677 956.436 233.307 955.582 233.307C955.124 233.315 954.672 233.415 954.253 233.602L953.238 232.928L953.466 228.972Z" fill="#EC7EF2"/>
<path fill-rule="evenodd" clip-rule="evenodd" d="M960.003 232.972C960.003 235.287 961.407 237.071 963.532 237.071C965.657 237.071 967.08 235.268 967.08 232.944C967.08 230.62 965.676 228.836 963.551 228.836C961.426 228.836 960.003 230.658 960.003 232.972ZM961.805 232.951C961.805 231.481 962.47 230.428 963.532 230.428V230.418C964.595 230.418 965.287 231.528 965.287 232.98C965.287 234.431 964.604 235.504 963.551 235.504C962.498 235.504 961.805 234.422 961.805 232.951Z" fill="#EC7EF2"/>
<path fill-rule="evenodd" clip-rule="evenodd" d="M970.135 232.947C969.61 232.948 969.107 232.731 968.748 232.348C968.388 231.965 968.203 231.451 968.237 230.926C968.209 230.391 968.402 229.868 968.772 229.48C969.142 229.092 969.656 228.874 970.192 228.877C970.717 228.876 971.219 229.093 971.579 229.476C971.939 229.859 972.123 230.374 972.089 230.898C972.133 231.437 971.944 231.969 971.571 232.36C971.198 232.752 970.675 232.965 970.135 232.947ZM970.36 236.932H969.004L974.819 228.972H976.176L970.36 236.932ZM969.405 230.861C969.405 230.367 969.661 229.912 970.136 229.912C970.61 229.912 970.885 230.434 970.885 230.927C970.885 231.421 970.62 231.876 970.164 231.876C969.709 231.876 969.405 231.354 969.405 230.861ZM975.03 237.026C974.503 237.028 973.999 236.81 973.639 236.424C973.279 236.039 973.095 235.522 973.132 234.996C973.089 234.459 973.276 233.928 973.647 233.537C974.019 233.146 974.538 232.932 975.077 232.947C975.604 232.945 976.108 233.163 976.468 233.549C976.828 233.934 977.012 234.451 976.975 234.977C977.018 235.514 976.831 236.045 976.46 236.436C976.089 236.827 975.569 237.042 975.03 237.026ZM974.301 234.93C974.301 234.436 974.548 233.981 975.032 233.981C975.487 233.981 975.781 234.484 975.781 234.987C975.781 235.49 975.506 235.936 975.051 235.936C974.595 235.936 974.301 235.423 974.301 234.93Z" fill="#EC7EF2"/>
<g style="mix-blend-mode:overlay">
<rect x="948.95" y="268.717" width="45.6628" height="5.65448" rx="2.82724" fill="#231F20"/>
</g>
<rect x="948.95" y="268.717" width="37.8452" height="5.65448" rx="2.82724" fill="#EC7EF2"/>
<rect x="938.991" y="268.717" width="6.29018" height="5.65448" fill="#EC7EF2"/>
<rect x="938.988" y="280.87" width="6.29018" height="5.65449" fill="#B4D7FF"/>
<rect x="938.991" y="293.048" width="6.29018" height="5.6545" fill="#44DCA6"/>
<g style="mix-blend-mode:overlay">
<rect x="948.95" y="280.811" width="45.6628" height="5.65449" rx="2.82724" fill="#231F20"/>
</g>
<rect x="948.95" y="280.811" width="16.3753" height="5.65449" rx="2.82724" fill="#B4D7FF"/>
<g style="mix-blend-mode:overlay">
<rect x="948.95" y="292.91" width="45.6628" height="5.65448" rx="2.82724" fill="#231F20"/>
</g>
<rect x="948.95" y="292.91" width="26.0429" height="5.65448" rx="2.82724" fill="#44DCA6"/>
<path d="M903.849 278.711H832.162L826.441 288.028L820.104 298.331H915.898L909.57 288.028L903.849 278.711V278.711Z" fill="#EC7EF2"/>
<path d="M903.849 278.711H832.162L826.441 288.028L820.104 298.331H915.898L909.57 288.028L903.849 278.711V278.711Z" fill="#EC7EF2"/>
<path d="M839.208 267.239L832.823 277.628L832.159 278.709H903.846L903.182 277.628L896.787 267.239L891.987 259.421L891.892 259.27H844.104L844.009 259.421L839.208 267.239V267.239Z" fill="#EC7EF2"/>
<path d="M839.208 267.239L832.823 277.628L832.159 278.709H903.846L903.182 277.628L896.787 267.239L891.987 259.421L891.892 259.27H844.104L844.009 259.421L839.208 267.239V267.239Z" fill="#0071BC"/>
<path d="M877.624 236.046L871.239 225.647L868.004 220.382L864.769 225.647L858.374 236.046L856.05 239.831H879.949L877.624 236.046V236.046Z" fill="#0071BC"/>
<path d="M845.603 256.836L844.104 259.265H891.892L890.403 256.836L884.008 246.438L879.948 239.835H856.049L851.989 246.438L845.603 256.836V256.836Z" fill="#EC7EF2"/>
<path d="M845.603 256.836L844.104 259.265H891.892L890.403 256.836L884.008 246.438L879.948 239.835H856.049L851.989 246.438L845.603 256.836V256.836Z" fill="#EC7EF2"/>
<g style="mix-blend-mode:overlay">
<path fill-rule="evenodd" clip-rule="evenodd" d="M934.396 233.556C934.396 250.323 947.988 263.916 964.755 263.916C972.807 263.916 980.529 260.717 986.223 255.023C991.916 249.33 995.115 241.608 995.115 233.556C995.115 216.789 981.522 203.196 964.755 203.196C947.988 203.196 934.396 216.789 934.396 233.556ZM945.473 225.568C948.704 217.769 956.315 212.683 964.757 212.683V212.655C970.297 212.655 975.611 214.858 979.526 218.778C983.441 222.699 985.637 228.015 985.629 233.556C985.629 241.998 980.544 249.609 972.744 252.839C964.945 256.07 955.967 254.284 949.998 248.315C944.028 242.345 942.243 233.368 945.473 225.568Z" fill="#231F20"/>
</g>
<path d="M964.758 261.542C949.304 261.521 936.782 248.998 936.761 233.545C936.761 232.235 937.823 231.173 939.133 231.173C940.443 231.173 941.504 232.235 941.504 233.545C942.008 246.017 952.266 255.868 964.749 255.868C977.231 255.868 987.489 246.017 987.993 233.545C987.993 232.235 989.055 231.173 990.364 231.173C991.674 231.173 992.736 232.235 992.736 233.545C992.715 248.991 980.204 261.511 964.758 261.542V261.542Z" fill="#0071BC"/>
<rect x="801.733" y="27.5137" width="209.358" height="132.823" fill="#F2E9FF"/>
<g style="mix-blend-mode:overlay">
<rect x="801.733" y="27.5137" width="209.358" height="12.9693" fill="#231F20"/>
</g>
<g style="mix-blend-mode:overlay" opacity="0.6">
<ellipse cx="808.812" cy="33.9175" rx="2.84622" ry="2.84622" fill="#414042"/>
</g>
<g style="mix-blend-mode:overlay" opacity="0.6">
<circle cx="818.536" cy="33.9175" r="2.84622" fill="#414042"/>
</g>
<g style="mix-blend-mode:overlay" opacity="0.6">
<ellipse cx="828.735" cy="33.9175" rx="2.84622" ry="2.84622" fill="#414042"/>
</g>
<g style="mix-blend-mode:overlay">
<ellipse cx="818.848" cy="53.6411" rx="2.64698" ry="2.64698" fill="#231F20"/>
</g>
<g style="mix-blend-mode:overlay">
<rect x="825.775" y="52.6953" width="24.6577" height="1.8785" rx="0.939252" fill="#231F20"/>
</g>
<g style="mix-blend-mode:overlay">
<ellipse cx="818.848" cy="63.4976" rx="2.64698" ry="2.64698" fill="#231F20"/>
</g>
<g style="mix-blend-mode:overlay">
<rect x="825.772" y="62.5586" width="24.6577" height="1.87849" rx="0.939246" fill="#231F20"/>
</g>
<g style="mix-blend-mode:overlay">
<ellipse cx="857.748" cy="53.6411" rx="2.64698" ry="2.64698" fill="#231F20"/>
</g>
<g style="mix-blend-mode:overlay">
<rect x="864.672" y="52.6953" width="24.6577" height="1.8785" rx="0.939252" fill="#231F20"/>
</g>
<g style="mix-blend-mode:overlay">
<ellipse cx="857.745" cy="63.4976" rx="2.64698" ry="2.64698" fill="#231F20"/>
</g>
<g style="mix-blend-mode:overlay">
<rect x="864.672" y="62.5645" width="24.6577" height="1.87849" rx="0.939246" fill="#231F20"/>
</g>
<g style="mix-blend-mode:overlay">
<rect x="819.598" y="84.9141" width="12.5803" height="57.7118" fill="#231F20"/>
</g>
<rect x="819.595" y="123.897" width="12.5803" height="18.7281" fill="#3268AE"/>
<g style="mix-blend-mode:overlay">
<rect x="837.215" y="84.9141" width="12.5803" height="57.7118" fill="#231F20"/>
</g>
<rect x="837.218" y="104.343" width="12.5803" height="38.2816" fill="#EC7EF2"/>
<g style="mix-blend-mode:overlay">
<rect x="854.824" y="84.9141" width="12.5803" height="57.7118" fill="#231F20"/>
</g>
<rect x="854.824" y="114.486" width="12.5803" height="28.1396" fill="#3268AE"/>
<g style="mix-blend-mode:overlay">
<rect x="872.441" y="84.9082" width="12.5803" height="57.7118" fill="#231F20"/>
</g>
<rect x="872.444" y="95.3965" width="12.5803" height="47.2377" fill="#EC7EF2"/>
<g style="mix-blend-mode:overlay" opacity="0.6">
<path d="M956.234 131.675C943.618 131.345 933.483 121.17 933.205 108.553C932.926 95.9361 942.602 85.3228 955.19 84.4368L954.479 67.1982C932.346 68.2616 915.092 86.7671 915.578 108.92C916.065 131.072 934.114 148.803 956.272 148.894L956.234 131.675Z" fill="#231F20"/>
</g>
<path d="M972.59 90.8507C968.375 86.8289 962.825 84.5045 957.002 84.3234L957.543 67.2461C967.564 67.5596 977.118 71.5593 984.373 78.4792L972.59 90.8507Z" fill="#EC7EF2"/>
<path d="M986.905 81.125L987.246 81.5235C993.58 88.8967 997.052 98.3015 997.028 108.022C997.019 117.232 993.904 126.17 988.186 133.391C987.949 133.695 987.702 133.989 987.455 134.283C980.188 142.904 969.683 148.143 958.424 148.761L957.522 131.683C964.059 131.348 970.168 128.327 974.401 123.334L974.827 122.813C981.907 113.886 981.64 101.188 974.192 92.5668L986.905 81.125Z" fill="#3268AE"/>
<g style="mix-blend-mode:overlay" opacity="0.6">
<ellipse cx="956.206" cy="108.05" rx="12.9693" ry="12.9693" fill="#231F20"/>
</g>
<g style="mix-blend-mode:overlay">
<ellipse cx="997.487" cy="33.9175" rx="2.84621" ry="2.84622" fill="#231F20"/>
</g>
<g style="mix-blend-mode:overlay">
<rect x="960.723" y="31.6006" width="28.576" height="5.21806" rx="2.60903" fill="#231F20"/>
</g>
<path d="M143.895 787.454C143.895 787.454 141.504 728.072 139.616 714.401C139.616 714.145 139.55 713.898 139.512 713.671C138.705 708.528 138.089 702.485 137.472 696.707C136.627 688.899 135.783 681.575 134.464 677.618C132.159 670.74 131.685 653.663 132.396 650.579C133.108 647.496 130.973 632.079 130.973 632.079L122.074 630.182L130.138 626.149C130.138 626.149 129.075 612.507 127.491 599.793V599.793C127.206 597.488 126.903 595.221 126.542 593.076C126.46 592.444 126.365 591.811 126.258 591.179C126.258 590.875 126.172 590.581 126.115 590.287C125.935 589.13 125.745 588.02 125.556 586.985C125.489 586.653 125.432 586.331 125.375 586.037C125.318 585.743 125.243 585.401 125.186 585.088L125.129 584.851C125.072 584.557 125.005 584.272 124.948 583.997C124.667 582.653 124.29 581.331 123.819 580.041C120.499 571.654 116.704 551.892 115.442 546.674C114.18 541.455 100.613 513.572 93.4978 516.807C93.4978 516.807 78.0808 526.057 82.1129 563.295C83.7946 563.41 85.4349 563.869 86.9325 564.643C88.5476 565.465 90.2834 566.026 92.0747 566.303C92.0747 566.303 86.8566 568.514 85.5948 568.599C84.5607 568.817 83.6041 569.308 82.8245 570.022C82.8245 570.022 82.8814 585.202 83.9914 603.228C84.0768 604.623 84.1717 606.074 84.276 607.459C84.276 607.564 84.276 607.677 84.276 607.782C84.3804 609.195 84.4848 610.628 84.5986 612.051V612.421C84.7125 613.835 84.8358 615.267 84.9591 616.671L85.2153 619.423C85.2912 620.125 85.3576 620.817 85.4335 621.51C89.7882 628.104 97.9663 636.31 102.302 641.016C105.357 644.194 108.621 654.137 113.089 666.964C114.408 670.759 115.831 674.829 117.378 679.051C120.395 687.277 123.876 696.128 127.965 704.8C131.827 713.006 134.512 723.433 136.381 734.087C136.978 737.522 137.5 740.975 137.946 744.391C139.732 758.676 140.626 773.058 140.622 787.454H143.895Z" fill="#C1D4EE"/>
<path d="M223.639 576.027C221.58 577.764 218.421 578.238 210.508 580.771C202.596 583.304 198.023 587.099 195.49 591.369C195.129 591.933 194.729 592.472 194.294 592.981L193.535 593.864C192.994 594.48 192.368 595.154 191.685 595.875C191.239 600.211 190.329 606.311 190.034 606.7C189.74 607.089 187.112 606.861 185.765 606.463C184.816 606.197 181.23 607.412 179.067 608.152L178.583 608.598L178.128 609.034C180.047 609.778 182.019 610.374 184.029 610.818C185.604 610.97 185.167 612.99 186.002 617.136C186.837 621.282 185.054 631.728 183.991 635.637C183.647 637.215 183.453 638.822 183.412 640.437C183.33 643.073 183.077 645.7 182.653 648.302C182.434 649.612 181.96 650.866 181.259 651.993C178.65 655.788 174.855 667.894 174.38 671.452C173.906 675.009 171.771 694.933 164.656 715.094C162.815 720.312 161.307 727.664 160.083 735.7V735.88L158.622 748.375L157.284 759.865V760.13C157.289 760.178 157.289 760.225 157.284 760.273C155.965 775.196 155.462 787.435 155.462 787.435H170.348C170.348 787.435 178.887 744.903 184.579 740.159C190.272 735.416 192.805 722.769 194.361 713.281C195.917 703.794 205.746 690.512 205.746 690.512L200.527 686.394H208.279C213.971 678.178 216.182 649.393 219.028 646.395C221.874 643.397 223.772 629.157 223.458 624.574C223.145 619.992 225.992 613.664 228.677 610.021C231.361 606.378 233.582 598.958 232.633 592.659C231.684 586.359 233.259 586.018 233.895 577.612C234.53 569.206 225.688 574.291 223.639 576.027Z" fill="#C1D4EE"/>
<path d="M193.751 568.75C192.955 573.816 191.93 589.385 191.93 592.355C191.93 593.114 191.835 594.395 191.674 595.884V595.884C191.228 600.22 190.317 606.32 190.023 606.709C189.729 607.098 187.101 606.871 185.754 606.472C184.805 606.206 181.219 607.421 179.055 608.161C178.107 608.502 177.376 608.768 177.376 608.768L178.107 609.034V609.034C180.026 609.777 181.998 610.374 184.008 610.817C185.583 610.969 185.146 612.99 185.981 617.136C186.816 621.282 185.033 631.727 183.97 635.636C183.626 637.215 183.432 638.822 183.391 640.437C183.309 643.072 183.056 645.7 182.632 648.302C182.413 649.611 181.939 650.865 181.238 651.993C178.629 655.787 174.834 667.893 174.359 671.451C173.885 675.009 171.75 694.932 164.635 715.093C162.794 720.311 161.286 727.664 160.062 735.7V735.88V735.927C158.885 743.726 157.965 752.132 157.272 759.864V760.13C157.277 760.177 157.277 760.225 157.272 760.272C155.954 775.196 155.451 787.434 155.451 787.434H143.895C143.895 787.434 141.504 728.053 139.616 714.382C139.616 714.125 139.55 713.879 139.512 713.651C138.706 708.509 138.089 702.465 137.472 696.688C136.628 688.88 135.783 681.555 134.465 677.599C132.159 670.721 131.685 653.643 132.396 650.56C133.108 647.477 130.973 632.06 130.973 632.06L122.074 630.162L130.138 626.13C130.138 626.13 129.076 612.506 127.492 599.793V599.793C129.076 586.406 131.505 573.475 131.742 572.469C132.159 570.752 143.307 571.397 143.307 571.397C143.307 571.397 133.459 565.591 132.757 564.879C132.055 564.168 133.82 556.692 135.48 552.46C137.14 548.229 141.647 535.819 142.833 528.23C144.019 520.64 151.371 519.454 153.269 507.832C154.588 499.739 166.077 489.967 172.965 484.73C174.059 483.905 175.481 483.651 176.793 484.046C178.105 484.442 179.15 485.439 179.606 486.732C182.869 495.944 190.991 506.371 193.173 519.416C194.767 528.837 194.539 563.693 193.751 568.75Z" fill="#5DC472"/>
<path d="M140.623 787.454H125.282C120.538 734.562 62.4279 668.15 56.0239 664.829C49.6199 661.509 44.6391 655.797 43.2159 652.733C41.7928 649.669 40.1325 645.618 33.2542 639.925C26.3758 634.233 26.3758 623.559 26.3758 623.559L33.2542 614.072L23.0552 617.393C19.2603 612.174 14.2794 590.828 14.2794 586.084C14.2794 581.34 4.08047 573.257 1.94581 566.853C-0.188853 560.449 1.94581 553.571 1.94581 553.571C2.73326 549.406 17.7613 557.84 20.7593 558.163C23.7573 558.485 32.4667 566.54 33.7286 568.751C34.9904 570.961 47.324 582.982 52.3902 583.931C57.4565 584.879 64.4013 593.105 67.4088 595.951C70.4163 598.797 68.3575 602.592 68.3575 602.592L65.6726 609.233C68.3523 608.67 70.9923 607.931 73.5756 607.023C76.8962 605.752 81.6778 612.582 82.9017 616.51C83.5243 618.277 84.3759 619.955 85.4348 621.501C85.3589 620.808 85.2925 620.115 85.2261 619.423C85.302 620.125 85.3684 620.818 85.4443 621.51C89.799 628.104 97.9771 636.31 102.313 641.016C105.358 644.194 108.622 654.137 113.091 666.964C114.409 670.759 115.832 674.829 117.379 679.051C120.396 687.277 123.878 696.128 127.967 704.8C131.828 713.006 134.513 723.433 136.382 734.087C136.98 737.522 137.502 740.975 137.948 744.391C139.734 758.676 140.627 773.058 140.623 787.454V787.454Z" fill="#5DC472"/>
<path d="M193.926 818.278C175.397 810.233 176.137 793.611 176.137 793.525H178.85C180.532 793.525 181.896 792.162 181.896 790.48C181.896 788.798 180.532 787.435 178.85 787.435H116.167C114.485 787.435 113.122 788.798 113.122 790.48C113.122 792.162 114.485 793.525 116.167 793.525H118.88C118.88 793.62 119.62 810.233 101.092 818.278C86.8605 824.454 87.9136 859.302 93.606 872.461C94.3825 874.311 95.2991 876.1 96.3478 877.811C97.2966 879.31 98.1125 880.506 98.9853 881.919C102.639 887.892 109.128 891.544 116.129 891.568H178.888C185.89 891.544 192.378 887.892 196.032 881.919C196.905 880.506 197.759 879.31 198.669 877.811C199.714 876.098 200.631 874.31 201.411 872.461C207.104 859.302 208.147 824.454 193.926 818.278Z" fill="#B6D3F2"/>
<path d="M233.911 577.608C233.275 585.986 231.7 586.356 232.649 592.655C233.598 598.955 231.378 606.384 228.693 610.036C226.008 613.689 223.162 619.998 223.475 624.59C223.788 629.182 221.89 643.403 219.044 646.411C216.198 649.418 213.987 678.194 208.295 686.41H200.544L205.762 690.527C205.762 690.527 195.914 703.81 194.377 713.297C192.84 722.784 190.288 735.431 184.596 740.175C178.903 744.918 170.364 787.45 170.364 787.45H155.403C155.403 787.45 155.906 775.212 157.224 760.288C157.229 760.241 157.229 760.193 157.224 760.146V759.88L158.562 748.391L160.014 735.943V735.896V735.716C161.238 727.68 162.746 720.327 164.587 715.109C171.702 694.948 173.837 675.025 174.311 671.467C174.786 667.909 178.581 655.794 181.19 652.008C181.891 650.881 182.365 649.627 182.584 648.318C183.008 645.715 183.261 643.088 183.343 640.453C183.384 638.838 183.578 637.231 183.922 635.652C184.984 631.743 186.768 621.307 185.933 617.152C185.098 612.996 185.535 610.985 183.96 610.833C181.95 610.389 179.978 609.793 178.059 609.049V609.049L178.524 608.623L179.007 608.177C181.171 607.399 184.776 606.222 185.706 606.488C187.053 606.886 189.576 607.199 189.975 606.725C190.373 606.251 191.18 600.236 191.626 595.9C192.309 595.179 192.935 594.505 193.476 593.889L194.235 593.006C194.67 592.497 195.069 591.958 195.43 591.393C197.963 587.124 202.546 583.329 210.449 580.796C218.352 578.263 221.52 577.789 223.579 576.052C225.638 574.316 234.547 569.24 233.911 577.608Z" fill="#85ED96"/>
<g style="mix-blend-mode:overlay" opacity="0.6">
<path d="M221.266 586.731C206.492 605.999 193.564 626.614 182.652 648.304C183.075 645.701 183.329 643.074 183.411 640.439C184.271 638.807 185.125 637.226 185.972 635.695C195.64 617.939 206.699 600.976 219.046 584.966C219.366 584.569 219.873 584.374 220.377 584.453C220.881 584.532 221.304 584.874 221.487 585.349C221.67 585.825 221.586 586.362 221.266 586.759V586.731Z" fill="#030F1C"/>
</g>
<g style="mix-blend-mode:overlay" opacity="0.6">
<path d="M198.667 877.815C197.718 879.314 196.903 880.51 196.03 881.923C192.376 887.896 185.887 891.548 178.886 891.572H116.127C109.125 891.548 102.637 887.896 98.9832 881.923C98.1104 880.51 97.2565 879.314 96.3457 877.815H198.667Z" fill="#030F1C"/>
</g>
<g style="mix-blend-mode:overlay" opacity="0.6">
<path d="M171.697 504.227C171.393 505.109 143.453 588.058 139.62 714.401C139.62 714.145 139.554 713.898 139.516 713.671C138.709 708.529 138.093 702.485 137.476 696.707C143.169 579.842 168.718 504.113 169.003 503.307C169.265 502.563 170.08 502.172 170.824 502.434C171.568 502.696 171.959 503.512 171.697 504.256V504.227Z" fill="#030F1C"/>
</g>
<path d="M140.622 787.454C140.624 773.071 139.731 758.701 137.946 744.429C137.5 741.014 136.997 737.56 136.381 734.126C134.483 723.471 131.827 713.045 127.965 704.838C123.876 696.138 120.376 687.315 117.378 679.089C115.831 674.868 114.408 670.807 113.089 667.003C108.621 654.157 105.31 644.233 102.35 641.036C98.0138 636.292 89.8357 628.123 85.4809 621.53C85.405 620.837 85.3386 620.144 85.2627 619.442L85.0066 616.691C84.8832 615.268 84.7599 613.845 84.6461 612.441V612.071C84.5322 610.638 84.4278 609.224 84.3235 607.801C84.3235 607.697 84.3235 607.583 84.3235 607.479C84.2191 606.056 84.1242 604.632 84.0389 603.247C82.9288 585.221 82.8719 570.041 82.8719 570.041C83.6515 569.328 84.6082 568.837 85.6422 568.618C86.8566 568.514 92.0747 566.303 92.0747 566.303C90.2834 566.026 88.5476 565.466 86.9325 564.643C85.4349 563.869 83.7946 563.411 82.1129 563.296C78.0808 526.058 93.4978 516.808 93.4978 516.808C100.613 513.573 114.209 541.399 115.48 546.617C116.751 551.835 120.537 571.597 123.857 579.984C124.328 581.274 124.705 582.596 124.986 583.94C125.043 584.216 125.11 584.5 125.167 584.794L125.224 585.032C125.281 585.335 125.347 585.648 125.413 585.98C125.48 586.312 125.527 586.616 125.594 586.929C125.783 587.963 125.973 589.073 126.153 590.231C126.21 590.525 126.258 590.819 126.296 591.122C126.403 591.755 126.498 592.387 126.58 593.02C126.903 595.164 127.206 597.432 127.529 599.737V599.737C129.075 612.507 130.138 626.169 130.138 626.169L122.074 630.201L130.973 632.098C130.973 632.098 133.108 647.515 132.396 650.599C131.685 653.682 132.159 670.76 134.464 677.638C135.783 681.594 136.627 688.918 137.472 696.727C138.089 702.504 138.705 708.548 139.512 713.69C139.512 713.918 139.588 714.164 139.616 714.421C141.513 728.073 143.895 787.473 143.895 787.473L140.622 787.454Z" fill="#85ED96"/>
<g style="mix-blend-mode:overlay" opacity="0.6">
<path d="M117.38 679.071C115.833 674.849 114.41 670.788 113.091 666.984C107.873 623.845 96.014 532.415 95.8812 531.314C95.7816 530.528 96.338 529.81 97.124 529.711C97.91 529.611 98.6278 530.168 98.7274 530.954C98.8697 532.177 113.48 644.878 117.38 679.071Z" fill="#030F1C"/>
</g>
<g style="mix-blend-mode:overlay" opacity="0.6">
<path d="M133.698 787.285V787.456H136.336C137.617 756.034 123.186 715.21 92.0012 664.803C77.5454 641.547 61.5287 619.299 44.0614 598.211C43.7309 597.825 43.2194 597.644 42.7195 597.737C42.2197 597.83 41.8074 598.183 41.638 598.662C41.4686 599.141 41.5678 599.675 41.8983 600.061C42.866 601.181 138.091 716.766 133.698 787.285Z" fill="#030F1C"/>
</g>
<g style="mix-blend-mode:overlay" opacity="0.6">
<path d="M181.893 790.48C181.893 792.162 180.529 793.525 178.847 793.525H116.164C114.482 793.525 113.119 792.162 113.119 790.48C113.119 788.798 114.482 787.435 116.164 787.435H178.847C179.655 787.435 180.43 787.755 181.001 788.327C181.572 788.898 181.893 789.672 181.893 790.48Z" fill="#030F1C"/>
</g>
<path d="M880.389 397.563L1109.2 397.563C1140.65 397.563 1166.15 423.059 1166.15 454.511V824.124H823.44L823.44 454.511C823.44 423.059 848.937 397.562 880.389 397.562V397.563Z" fill="#A4C3EE"/>
<path d="M876.474 397.563L1067.61 397.563C1096.9 397.563 1120.65 421.306 1120.65 450.596V824.124H823.44L823.44 450.596C823.44 436.531 829.028 423.041 838.974 413.096C848.919 403.15 862.409 397.562 876.474 397.562V397.563Z" fill="#CFE3FF"/>
<rect x="598.882" y="542.799" width="320.927" height="347.619" fill="#A4C3EE"/>
<path d="M604.652 542.614H604.652C635.523 542.614 660.549 567.641 660.549 598.512L660.549 890.435H548.754L548.754 598.512C548.754 583.687 554.643 569.469 565.126 558.986C575.609 548.503 589.827 542.614 604.652 542.614Z" fill="#CFE3FF"/>
<rect x="661.539" y="703.632" width="313.084" height="186.902" fill="#C1D4EE"/>
<rect x="685.558" y="791.211" width="172.203" height="6.07783" fill="#A4C3EE"/>
<rect x="685.558" y="746.97" width="172.203" height="6.07786" fill="#A4C3EE"/>
<rect x="685.558" y="835.399" width="172.203" height="6.07786" fill="#A4C3EE"/>
<rect x="661.465" y="703.93" width="24.4471" height="185.563" fill="#A4C3EE"/>
<path d="M904.739 374.354C902.131 363.12 898.278 354.818 884.097 365.405C884.097 365.405 883.598 354.208 878.314 349.955C873.031 345.702 839.926 327.073 839.76 359.502C839.76 359.502 840.028 385.542 840.244 392.038C840.459 398.534 850.593 420.229 858.409 419.969C860.059 419.887 861.693 419.596 863.27 419.103C861.912 426.867 859.274 434.352 855.461 441.25L903.502 431.875C898.722 420.056 895.397 407.699 893.602 395.077C900.391 388.6 906.574 382.257 904.739 374.354Z" fill="#FFDDDD"/>
<g style="mix-blend-mode:overlay" opacity="0.6">
<path d="M863.859 418.936C863.657 419.002 863.459 419.052 863.258 419.111C862.556 422.969 861.552 426.765 860.257 430.465C864.678 430.166 870.977 428.849 875.002 424.316C878.945 419.791 881.473 414.208 882.272 408.26C877.343 412.526 872.071 414.994 863.859 418.936Z" fill="#030F1C"/>
</g>
<path d="M896.548 372.022C894.241 371.325 892.104 373.469 890.511 375.868L890.499 375.886C889.404 377.587 888.479 379.39 887.735 381.27C887.642 381.515 887.765 381.789 888.009 381.882C888.254 381.976 888.528 381.853 888.622 381.609C889.315 379.839 890.179 378.142 891.202 376.541C892.175 376.338 893.189 376.489 894.061 376.967C894.931 377.571 895.505 378.514 895.641 379.565C895.686 379.792 895.89 379.953 896.121 379.946C896.147 379.945 896.173 379.942 896.199 379.937C896.322 379.912 896.431 379.84 896.501 379.735C896.57 379.631 896.596 379.502 896.571 379.379C896.389 378.067 895.655 376.894 894.554 376.157C893.759 375.689 892.844 375.466 891.923 375.515C893.249 373.754 894.786 372.478 896.273 372.93C896.435 372.98 896.611 372.938 896.735 372.822C896.858 372.706 896.911 372.533 896.872 372.368C896.834 372.203 896.71 372.071 896.548 372.022L896.548 372.022Z" fill="#0B122D"/>
<path d="M863.156 419.052C862.932 419.059 862.734 418.909 862.68 418.692C862.626 418.474 862.732 418.248 862.934 418.151C863.091 418.075 878.742 410.44 885.162 401.626C885.262 401.489 885.428 401.415 885.596 401.433C885.765 401.451 885.911 401.558 885.98 401.713C886.048 401.868 886.029 402.048 885.929 402.185C879.368 411.192 863.998 418.69 863.347 419.005C863.287 419.034 863.223 419.05 863.156 419.052V419.052Z" fill="#0B122D"/>
<path d="M864.027 371.728C863.098 371.657 862.164 371.677 861.239 371.79C860.249 371.931 859.636 373.365 859.869 374.992C860.101 376.619 861.092 377.823 862.081 377.681C863.07 377.54 863.684 376.106 863.451 374.479C863.362 373.763 863.087 373.083 862.653 372.507C863.376 372.428 864.105 372.434 864.826 372.526C865.526 372.625 865.463 371.854 864.027 371.728Z" fill="#161B36"/>
<path d="M846.302 375.524C845.444 375.457 844.581 375.469 843.725 375.56C843.714 375.562 843.702 375.558 843.691 375.56C843.684 375.561 843.677 375.565 843.669 375.567C843.577 375.577 843.514 375.585 843.514 375.585L843.51 375.617C842.631 375.901 842.104 377.24 842.321 378.761C842.554 380.388 843.545 381.592 844.534 381.451C845.523 381.309 846.137 379.876 845.904 378.249C845.815 377.536 845.542 376.859 845.111 376.284C845.774 376.224 846.441 376.237 847.102 376.321C847.801 376.42 847.738 375.649 846.302 375.524Z" fill="#161B36"/>
<g style="mix-blend-mode:overlay" opacity="0.6">
<path d="M853.402 395.798C852.5 395.961 851.572 395.881 850.712 395.566C850.146 395.348 849.708 394.888 849.517 394.312C849.148 393.115 850.129 391.042 851.349 388.654C851.665 388.081 851.944 387.488 852.186 386.879C852.402 386.168 851.444 380.1 850.392 374.644L851.323 374.464C851.688 376.356 853.487 385.859 853.094 387.155C852.84 387.819 852.539 388.465 852.195 389.087C851.425 390.59 850.139 393.107 850.425 394.032C850.533 394.343 850.778 394.587 851.089 394.696C852.521 395.081 854.044 394.911 855.356 394.22L855.771 395.072C855.023 395.434 854.224 395.679 853.402 395.798V395.798Z" fill="#030F1C"/>
</g>
<path d="M855.286 365.019C855.81 364.227 856.591 363.557 859.19 363.345C861.789 363.133 866.039 364.995 865.269 365.742C864.5 366.49 861.622 364.75 859.692 365.743C857.763 366.736 856.68 367.481 855.943 367.196C855.015 366.837 855.034 365.399 855.286 365.019Z" fill="#161B36"/>
<path d="M844.02 365.913C843.135 365.566 842.112 365.468 839.863 366.789C837.615 368.111 835.21 372.079 836.269 372.247C837.329 372.416 838.682 369.337 840.832 369.04C842.982 368.742 844.296 368.728 844.735 368.071C845.287 367.244 844.445 366.079 844.02 365.913Z" fill="#161B36"/>
<path d="M853.604 404.936C853.484 404.671 853.476 404.368 853.581 404.096C853.685 403.824 853.894 403.605 854.161 403.488C855.486 402.89 857.925 401.774 859.771 400.836C861.679 399.744 863.512 398.527 865.258 397.193C865.563 396.966 865.964 396.912 866.318 397.05C866.673 397.189 866.931 397.5 867.001 397.874C867.546 400.746 868.006 406.441 863.625 408.242C858.296 410.432 854.975 407.855 853.604 404.936Z" fill="#161B36"/>
<path d="M856.523 408.185C856.523 408.185 860.33 400.86 867.342 401.406C867.342 401.406 868.095 406.594 863.882 408.39C859.345 410.323 856.523 408.185 856.523 408.185Z" fill="#E55151"/>
<path fill-rule="evenodd" clip-rule="evenodd" d="M925.863 365.028C933.084 373.37 924.742 381.986 924.742 381.986C924.742 381.986 937.865 389.777 930.312 403.994C925.163 413.688 915.195 411.388 915.195 411.388C912.104 424.643 899.542 424.726 899.542 424.726C895.007 415.607 892.777 395.861 892.777 395.861C903.344 386.13 902.427 375.405 900.732 368.727C899.037 362.049 889.01 364.276 885.786 368.592C884.117 370.826 884.081 374.698 884.053 377.823C884.026 380.733 884.006 382.995 882.676 382.678C881.589 382.419 881.112 379.843 880.51 376.595C879.584 371.597 878.362 365.006 874.174 362.812C867.264 359.192 851.157 346.066 851.157 346.066C839.641 347.816 840.416 363.932 840.416 363.932C840.416 363.932 831.864 364.216 828.484 354.078C826.483 348.076 830.764 331.064 839.034 323.214C844.105 318.4 851.703 321.741 851.703 321.741C851.703 321.741 855.498 316.664 866.473 314.096C893.726 307.72 924.855 334.676 919.03 349.39C916.734 355.19 918.773 357.366 922.82 361.685C923.74 362.666 924.763 363.758 925.863 365.028ZM840.106 385.874C840.153 388.496 840.2 390.692 840.244 392.04C840.46 398.536 850.594 420.231 858.41 419.971C860.061 419.901 861.696 419.613 863.272 419.115C863.272 419.115 862.371 424.707 861.96 424.845C854.695 427.268 840.397 430.129 833.062 418.58C825.954 407.389 836.24 391.243 840.106 385.874Z" fill="#161B36"/>
<path fill-rule="evenodd" clip-rule="evenodd" d="M677.343 630.795C677.343 630.795 704.526 659.738 703.308 661.036C686.109 679.36 657.716 694.75 631.548 708.933C620.497 714.924 609.842 720.699 600.595 726.389C594.384 730.211 579.806 740.336 577.771 742.036C576.996 742.683 575.94 744.248 574.673 746.124C571.495 750.83 566.991 757.501 562.266 756.608C561.707 756.502 560.59 756.378 559.04 756.204C545.868 754.732 501.399 749.761 501.806 723.329C504.705 721.054 507.14 721.709 511.138 723.12C532.854 730.781 546.081 729.26 551.701 727.795C560.427 725.519 577.31 715.206 584.202 709.785C612.064 687.872 677.343 630.795 677.343 630.795ZM705.54 666.149C705.54 666.149 744.133 684.342 744.402 686.101C748.052 709.976 740.066 738.409 732.207 766.388C728.434 779.818 724.692 793.144 722.279 805.811C720.914 812.974 717.925 831.152 718.006 833.802C718.037 834.811 718.616 836.608 719.31 838.763C721.05 844.168 723.517 851.83 719.898 854.996C712.7 857.4 705.469 863.745 698.127 870.188C684.468 882.175 670.425 894.5 655.491 882.405C654.868 878.657 659.672 875.834 664.5 873.687C684.909 864.608 687.705 853.6 689.175 847.814C689.22 847.635 689.264 847.461 689.308 847.292C696.409 819.676 705.54 666.149 705.54 666.149Z" fill="#FFDDDD"/>
<path fill-rule="evenodd" clip-rule="evenodd" d="M498.172 721.872C498.172 721.872 514.621 742.834 518.849 745.407C521.128 746.794 526.256 747.423 531.808 748.105C536.558 748.688 541.617 749.309 545.467 750.474C551.545 752.315 565.899 761.5 565.899 761.5L534.382 779.98L528.825 772.898C527.942 769.396 526.503 766.058 524.564 763.011C521.354 757.983 512.655 752.292 512.655 752.292L494.418 729.052C494.737 726.409 498.172 721.872 498.172 721.872ZM694.574 873.54C697.965 870.164 701.577 866.567 704.87 864.258C710.07 860.612 726.158 854.99 726.158 854.99L721.24 891.193H712.238C708.938 889.726 705.424 888.797 701.829 888.441C695.892 887.862 686.045 891.193 686.045 891.193H656.503C654.621 889.31 653.173 883.807 653.173 883.807C653.173 883.807 679.818 883.807 684.452 882.07C686.949 881.133 690.611 877.487 694.574 873.54Z" fill="#F76161"/>
<path fill-rule="evenodd" clip-rule="evenodd" d="M557.281 725.422L550.736 727.705L547.891 749.62L547.903 749.626C544.856 748.281 541.667 747.281 538.397 746.646C535.85 746.323 533.285 746.163 530.718 746.166C530.153 742.31 528.089 728.285 527.9 727.64C527.681 726.892 516.362 723.257 516.362 723.257L505.42 727.61L499.072 719.521C499.072 719.521 497.69 719.87 498.168 721.887L514.617 742.849C514.617 742.849 518.664 749.983 533.353 749.132C540.193 748.735 549.121 753.185 559.437 758.328C561.534 759.373 563.689 760.447 565.895 761.515C565.895 761.515 567.408 761.801 568.288 759.638C568.288 759.638 561.173 755.636 553.444 752.054L553.461 752.061L554.697 744.899L573.781 747.548L577.944 742.856L555.094 739.435L557.281 725.422ZM516.412 741.638L509.439 732.753L522.483 727.118L524.673 745.849C521.484 745.548 518.529 744.042 516.412 741.638ZM726.155 851.97C726.155 851.97 718.615 855.096 711.026 858.965L711.042 858.957L706.171 853.563L720.035 840.185L718.915 834.013L702.116 849.878L690.785 838.151L688.54 844.709L705.684 861.832L705.695 861.826C702.756 863.393 700.001 865.285 697.483 867.465C695.656 869.269 693.947 871.188 692.364 873.21C688.982 871.274 676.675 864.239 676.051 863.989C675.326 863.7 665.479 870.361 665.479 870.361L662.149 881.657H651.867C651.867 881.657 651.288 882.96 653.17 883.829H679.816C679.816 883.829 687.926 885.048 696.324 872.968C700.235 867.342 709.247 863.066 719.66 858.125L719.661 858.125C721.778 857.12 723.953 856.088 726.155 855.011C726.166 855.002 727.309 853.989 726.155 851.97ZM679.955 881.656H668.66L672.28 867.916L688.368 877.756C686.162 880.08 683.153 881.474 679.955 881.656Z" fill="#6E35AA"/>
<path d="M934.957 635.832C933.484 610.823 928.229 604.229 926.558 591.776C898.336 592.64 758.479 596.497 726.248 596.479C714.097 596.473 696.287 601.624 677.592 617.611C639.394 650.276 629.384 659.153 594.101 688.081C595.77 704.721 621.852 735.259 625.005 733.375C651.664 717.442 649.689 716.27 677.409 697.546C684.141 692.998 690.673 687.604 696.844 682.562C695.571 687.243 694.716 692.028 694.29 696.861C689.158 751.565 688.519 747.92 685.559 793.197C698.065 800.079 736.201 800.397 736.201 800.397C741.64 762.01 746.842 750.545 748.286 705.467L814.644 704.787C821.385 704.746 828.051 703.372 834.258 700.745C863.724 705.694 890.97 704.439 912.768 690.029C924.041 682.576 936.477 661.659 934.957 635.832Z" fill="#A2003F"/>
<path d="M816.124 704.858C816.113 704.609 816.136 704.361 816.191 704.118C816.191 704.118 816.172 704.374 816.124 704.858Z" fill="#030F1C"/>
<g style="mix-blend-mode:overlay" opacity="0.6">
<path d="M757.545 679.399C746.744 675.743 723.389 664.729 715.975 668.672C710.117 671.788 703.526 677.132 696.467 682.903C695.188 688.794 694.364 694.773 694.003 700.79C718.332 693.634 756.779 705.41 756.779 705.41L816.631 704.956C822.065 704.893 828.001 703.371 834.226 700.769C809.588 696.628 783.4 688.152 757.545 679.399Z" fill="#030F1C"/>
</g>
<g style="mix-blend-mode:overlay" opacity="0.6">
<path d="M840.511 593.731L820.904 594.651C820.904 594.651 822.327 609.978 864.657 614.079C906.987 618.181 930.56 608.773 930.56 608.773C927.274 598.068 925.095 587.054 924.056 575.905C905.131 563.827 840.511 593.731 840.511 593.731Z" fill="#030F1C"/>
</g>
<path d="M905.912 632.036C873.276 630.681 871.369 593.417 871.354 593.041L872.302 593.002C872.317 593.37 874.193 629.769 905.951 631.088L905.912 632.036Z" fill="#0B122D"/>
<path d="M929.236 586.58C926.298 573.592 919.532 544.683 925.349 515.853C930.831 488.686 930.047 437.737 926.73 436.508C921.804 434.683 908.451 431.101 904.175 429.968L897.299 415.945C897.299 415.945 894.643 429.614 877.446 437.775C877.446 450.885 873.932 467.328 872.728 467.212C871.524 467.096 871.109 448.125 871.109 437.475C867.12 434.551 863.964 430.635 861.954 426.116L855.013 434.319L855.052 434.431L838.018 440.247C838.018 440.247 832.274 441.394 831.24 449.479C827.756 476.722 821.37 497.921 820.657 506.252C819.695 517.505 822.842 522.625 826.16 531.018C829.491 539.445 831.492 558.974 827.036 588.589C826.695 590.745 827.534 592.919 829.234 594.288C845.589 607.146 911.227 602.56 927.244 591.778C928.915 590.621 929.705 588.558 929.236 586.58Z" fill="#B6D3F2"/>
<path d="M884.882 502.727C885.151 499.993 885.458 497.326 885.8 494.727C880.478 503.132 873.993 510.741 866.539 517.33C861.694 512.733 855.016 501.955 851.015 495.12C850.568 502.375 850.276 508.516 850.276 512.22C850.276 518.277 852.236 554.426 851.72 592.109L865.89 575.186C865.89 575.186 884.359 596.95 884.535 596.826C884.56 596.808 884.762 594.304 885.09 590.029C884.967 553.291 884.688 512.872 884.882 502.727Z" fill="#A2003F"/>
<path d="M931.535 532.935C935.392 519.076 942.627 459.011 941.509 450.533C940.377 441.949 932.509 438.546 926.187 436.516C926.176 436.51 926.164 436.499 926.153 436.495C920.253 434.31 904.202 430.115 904.202 430.115C904.202 430.115 889.335 457.498 884.882 502.697C884.793 507.385 884.804 518.544 884.854 532.811C875.87 538.21 862.349 546.417 851.516 553.023C851.072 532.126 850.276 516.048 850.276 512.19C850.276 502.989 852.07 478.776 853.608 459.704C853.978 456.95 854.204 454.18 854.288 451.403C855.132 441.221 855.773 433.975 855.773 433.975L837.441 440.234C834.839 441.053 832.645 442.828 831.3 445.201C818.8 461.677 806.172 514.401 806.172 514.401C805.401 516.676 803.709 518.521 801.509 519.486L749.726 545.187C757.063 548.648 757.576 556.627 758.984 565.43C772.98 561.048 814.011 546.325 825.234 542.212C825.9 541.968 826.526 541.721 827.135 541.469C827.856 551.091 827.856 566.476 825.826 587.516C824.404 602.258 800.352 600.7 785.265 614.93C783.681 616.423 812.484 632.496 827.269 632.751C845.964 622.343 851.274 615.679 851.64 596.963C851.727 592.547 851.775 588.137 851.795 583.775C860.33 579.983 872.924 573.801 885.002 567.684C885.156 603.13 885.284 641.482 884.827 652.508C906.538 650.092 935.946 631.342 941.012 624.395C938.066 615.137 929.136 573.253 926.508 542.871C928.803 539.911 930.509 536.538 931.535 532.935V532.935Z" fill="#E89256"/>
<g style="mix-blend-mode:overlay" opacity="0.6">
<path d="M811.238 494.833C811.238 494.833 816.134 498.826 815.119 504.467C814.104 510.109 813.246 520.246 809.125 523.187C805.003 526.128 787.682 534.349 784.109 534.114C781.406 533.774 778.774 533.003 776.314 531.829L801.513 519.494C803.769 518.61 805.49 516.733 806.176 514.409C807.188 510.591 811.238 494.833 811.238 494.833Z" fill="white"/>
</g>
<g style="mix-blend-mode:overlay" opacity="0.6">
<path d="M827.133 541.468C826.698 535.685 826.002 531.99 825.331 530.409C821.803 522.102 819.118 517.528 820.08 506.275C820.266 504.104 820.471 501.187 820.809 497.552C818.63 501.39 817.253 505.63 816.761 510.016C814.226 531.033 821.106 537.513 810.772 539.318C800.438 541.123 791.399 545.509 789.602 555.288C789.602 555.288 815.652 545.86 825.234 542.248C825.906 541.995 826.532 541.734 827.133 541.468Z" fill="#030F1C"/>
</g>
<g style="mix-blend-mode:overlay" opacity="0.6">
<path d="M897.307 415.945C897.307 415.945 894.651 429.614 877.454 437.775C882.292 442.402 885.085 451.356 885.085 451.356L905.079 431.795L897.307 415.945Z" fill="white"/>
</g>
<g style="mix-blend-mode:overlay" opacity="0.6">
<path d="M861.959 426.124C863.97 430.643 867.125 434.558 871.114 437.483L860.818 450.893L855.019 434.327L861.959 426.124Z" fill="white"/>
</g>
<g style="mix-blend-mode:overlay" opacity="0.6">
<path d="M862.939 546.099L863.337 521.901L866.543 517.327L866.049 516.826L862.586 521.546L861.779 546.804C862.166 546.569 862.553 546.334 862.939 546.099Z" fill="#030F1C"/>
</g>
<g style="mix-blend-mode:overlay" opacity="0.6">
<path d="M862.314 578.915L862.396 579.353L863.062 578.557C862.811 578.677 862.562 578.796 862.314 578.915Z" fill="#030F1C"/>
</g>
<g style="mix-blend-mode:overlay" opacity="0.6">
<ellipse cx="868.888" cy="526.401" rx="1.26413" ry="1.26406" fill="#030F1C"/>
</g>
<g style="mix-blend-mode:overlay" opacity="0.6">
<ellipse cx="868.888" cy="538.846" rx="1.26413" ry="1.26406" fill="#030F1C"/>
</g>
<g style="mix-blend-mode:overlay" opacity="0.6">
<path d="M890.302 529.57C890.656 529.36 890.993 529.159 891.308 528.973C893.001 527.991 894.493 526.698 895.704 525.161C890.256 526.765 887.955 526.266 889.434 528.779C889.646 529.117 889.946 529.39 890.302 529.57V529.57Z" fill="#030F1C"/>
</g>
<g style="mix-blend-mode:overlay" opacity="0.6">
<path d="M926.404 543.014C923.897 546.207 920.773 548.865 917.22 550.83C915.64 551.714 913.474 552.891 910.897 554.267C926.484 624.086 884.828 652.519 884.828 652.519C909.195 649.172 935.223 630.87 941.013 624.406C938.033 615.827 932.037 582.815 932.037 582.815C929.283 569.687 927.401 556.391 926.404 543.014Z" fill="#030F1C"/>
</g>
<g style="mix-blend-mode:overlay" opacity="0.6">
<path d="M855.778 433.994C855.778 433.994 850.673 490.539 850.281 512.209L837.833 485.28L846.805 471.609L836.16 457.307L842.239 438.524L855.778 433.994Z" fill="#030F1C"/>
</g>
<g style="mix-blend-mode:overlay" opacity="0.6">
<path d="M822.73 524.388C822.73 524.388 828.919 527.831 839.493 528.555C850.068 529.279 840.215 532.57 835.091 532.826C829.968 533.082 828.036 533.103 826.24 532.783C825.157 529.869 822.73 524.388 822.73 524.388Z" fill="#030F1C"/>
</g>
<g style="mix-blend-mode:overlay" opacity="0.6">
<path d="M899.891 492.623L894.212 473.772L905.516 465.704L906.118 460.972C906.118 460.972 907.226 446.121 911.995 441.597C913.359 440.262 914.817 439.024 916.357 437.895L916.592 433.483L904.207 430.115C890.11 458.024 883.992 499.038 884.833 509.568L899.891 492.623Z" fill="#030F1C"/>
</g>
<g style="mix-blend-mode:overlay" opacity="0.6">
<path d="M896.819 608.033L894.254 602.927L897.885 621.051C898.79 625.566 903.184 628.493 907.7 627.589L917.497 625.626C919.708 625.183 921.646 623.864 922.868 621.968C924.09 620.073 924.492 617.764 923.983 615.567L919.787 597.463L919.235 603.546C919.12 604.815 918.186 605.858 916.938 606.112L899.972 609.565C898.696 609.824 897.404 609.197 896.819 608.033V608.033Z" fill="white"/>
</g>
<path fill-rule="evenodd" clip-rule="evenodd" d="M896.346 608.148C896.942 609.33 898.152 610.075 899.475 610.076C899.708 610.076 899.941 610.053 900.17 610.006L916.928 606.596C918.447 606.294 919.583 605.026 919.716 603.483L920.258 597.505C920.272 597.354 920.213 597.207 920.1 597.107C919.988 597.007 919.834 596.966 919.686 596.998L894.154 602.461C894.01 602.492 893.889 602.588 893.825 602.72C893.761 602.852 893.763 603.007 893.829 603.138L896.346 608.148ZM897.195 607.738L894.953 603.276L919.256 598.076L918.772 603.414C918.675 604.538 917.847 605.462 916.74 605.683L899.982 609.093C898.854 609.32 897.713 608.766 897.195 607.738Z" fill="#0B122D"/>
<g style="mix-blend-mode:overlay" opacity="0.6">
<path d="M819.426 603.785L822.17 599.188L807.994 612.745C804.462 616.123 805.257 620.23 809.769 621.919L815.83 624.375C820.439 626.1 827.117 624.633 830.585 621.133L844.286 607.305L838.093 610.963C836.8 611.727 835.244 611.909 833.808 611.466L820.533 606.364C819.254 605.889 818.8 604.832 819.426 603.785Z" fill="white"/>
</g>
<path fill-rule="evenodd" clip-rule="evenodd" d="M833.345 611.766C833.468 611.811 833.594 611.852 833.723 611.887C835.364 612.271 837.09 612.009 838.543 611.156L844.63 607.56C844.764 607.497 844.857 607.371 844.878 607.224C844.872 607.09 844.779 606.976 844.648 606.945L822.533 598.829C822.367 598.776 822.188 598.776 822.022 598.829C821.862 598.87 821.722 598.967 821.628 599.102L818.935 603.612C818.178 604.879 818.731 606.166 820.272 606.738L833.345 611.766ZM820.023 603.754L822.419 599.741L843.296 607.402L837.858 610.614C836.717 611.29 835.343 611.452 834.075 611.062L821.002 606.034C820.515 605.939 820.106 605.609 819.91 605.153C819.714 604.696 819.757 604.173 820.023 603.754Z" fill="#0B122D"/>
<path d="M903.635 480.907C903.617 480.907 903.6 480.906 903.583 480.904C903.362 480.876 903.206 480.674 903.234 480.453C904.22 471.875 905.757 463.37 907.834 454.99C907.894 454.777 908.116 454.652 908.33 454.711C908.544 454.771 908.67 454.992 908.611 455.206C906.545 463.549 905.016 472.016 904.034 480.555C904.008 480.756 903.837 480.907 903.635 480.907Z" fill="#0B122D"/>
<g style="mix-blend-mode:overlay" opacity="0.6">
<path d="M908.208 504.539C907.804 509.37 908.078 524.918 903.917 529.748C899.764 534.571 877.837 547.175 872.773 548.118C869.748 548.635 866.672 547.542 864.652 545.232L864.661 545.224C874.096 539.417 883.023 533.853 891.313 528.942C895.282 526.639 898.035 522.703 898.837 518.184L901.555 496.838C901.555 496.838 908.611 499.709 908.208 504.539Z" fill="white"/>
</g>
<path d="M843.708 558.488C843.527 558.488 843.369 558.368 843.32 558.194C843.271 558.02 843.344 557.835 843.498 557.741L875.796 537.998C875.986 537.882 876.234 537.941 876.35 538.132C876.466 538.322 876.406 538.57 876.216 538.686L843.918 558.429C843.855 558.468 843.782 558.489 843.708 558.488Z" fill="#0B122D"/>
<path d="M857.836 581.692C857.656 581.674 857.51 581.539 857.479 581.361C857.447 581.183 857.538 581.006 857.701 580.927L891.808 564.505C892.009 564.408 892.25 564.493 892.346 564.693C892.443 564.894 892.358 565.135 892.158 565.232L858.051 581.654C857.984 581.687 857.91 581.7 857.836 581.692V581.692Z" fill="#0B122D"/>
<path fill-rule="evenodd" clip-rule="evenodd" d="M865.033 431.393C866.716 433.733 868.769 435.783 871.111 437.464C871.111 448.113 871.526 467.085 872.73 467.201C873.934 467.317 877.448 450.874 877.448 437.763C881.813 435.74 885.789 432.966 889.195 429.568L865.033 431.393ZM750.341 545.518L733.851 553.042L733.854 553.051L708.706 559.4C706.704 559.905 704.969 561.155 703.857 562.895L698.742 570.892L691.409 574.573C691.409 574.573 684.059 583.835 684.809 584.353C684.871 584.396 684.936 584.445 685.004 584.496L685.004 584.496H685.004C685.716 585.03 686.835 585.87 690.181 584.277L686.513 590.012C686.231 590.454 686.16 590.999 686.32 591.498C686.481 591.997 686.856 592.399 687.343 592.594L687.651 592.717C689.4 593.415 691.398 592.974 692.69 591.604L696.177 587.905C696.546 587.514 697.073 587.313 697.608 587.359L698.368 587.425C700.778 587.633 703.135 586.633 704.66 584.754L711.022 576.919C711.344 576.522 711.823 576.285 712.334 576.27C715.862 576.17 730.116 575.556 735.527 572.081C737.662 570.654 739.581 568.929 741.228 566.959L758.336 561.229C757.269 554.41 755.949 548.529 750.341 545.518ZM787.306 574.943L817.919 574.073L837.686 563.412C838.02 571.461 840.469 577.032 843.324 580.885C832.152 585.042 823.413 588.3 823.283 588.426C821.615 590.031 815.469 592.63 809.708 594.396C803.559 596.28 789.669 593.023 786.244 592.167C785.748 592.043 785.223 592.142 784.806 592.438L776.565 598.264C774.589 599.661 772.05 599.988 769.785 599.137L769.071 598.868C768.568 598.679 768.007 598.731 767.546 599.008L763.19 601.628C761.576 602.598 759.533 602.483 758.038 601.339L757.774 601.137C757.358 600.818 757.105 600.33 757.085 599.806C757.066 599.282 757.281 598.776 757.673 598.427L762.748 593.9C759.304 594.521 758.141 593.22 757.559 592.519C756.977 591.817 766.555 584.884 766.555 584.884L774.609 583.319L781.693 577C783.234 575.625 785.242 574.89 787.306 574.943Z" fill="#FFDDDD"/>
<path d="M767.901 599.066C767.738 599.066 767.591 598.968 767.529 598.818C767.466 598.668 767.501 598.494 767.615 598.379L783.89 582.016C784.047 581.862 784.3 581.863 784.456 582.019C784.612 582.174 784.615 582.426 784.461 582.585L768.187 598.947C768.112 599.024 768.009 599.067 767.901 599.066Z" fill="#0B122D"/>
<g style="mix-blend-mode:overlay" opacity="0.6">
<path d="M774.66 583.322L766.554 584.897C766.554 584.897 756.977 591.83 757.559 592.532C758.14 593.233 759.304 594.534 762.748 593.913L774.66 583.322Z" fill="#030F1C"/>
</g>
<g style="mix-blend-mode:overlay" opacity="0.6">
<path d="M690.181 584.31L698.742 570.925L691.409 574.605C691.409 574.605 684.059 583.867 684.808 584.386C685.521 584.878 686.513 586.055 690.181 584.31Z" fill="#030F1C"/>
</g>
<path d="M696.583 587.852C696.425 587.923 696.239 587.885 696.121 587.756C696.004 587.628 695.982 587.439 696.067 587.288L707.319 567.138C707.428 566.945 707.673 566.877 707.867 566.985C708.06 567.093 708.13 567.337 708.024 567.531L696.771 587.681C696.729 587.757 696.663 587.817 696.583 587.852Z" fill="#0B122D"/>
<path d="M815.264 597.373V600.541C815.264 601.042 815.065 601.523 814.711 601.877C814.357 602.231 813.876 602.43 813.376 602.429H648.556C648.47 602.431 648.385 602.427 648.299 602.42C647.809 602.409 647.321 602.339 646.848 602.211C646.837 602.204 646.823 602.2 646.81 602.202C645.214 601.776 643.831 600.78 642.92 599.403C642.44 598.687 642.105 597.885 641.933 597.04L641.374 594.346L625.132 515.035C624.776 513.32 625.212 511.537 626.318 510.179C627.424 508.82 629.082 508.033 630.834 508.033H745.617C748.383 508.028 750.768 509.973 751.319 512.682L768.291 595.485H813.376C813.876 595.484 814.357 595.683 814.711 596.037C815.065 596.391 815.264 596.872 815.264 597.373Z" fill="#AA5DFF"/>
<g style="mix-blend-mode:overlay" opacity="0.6">
<path d="M815.263 597.363V600.532C815.263 601.033 815.064 601.513 814.71 601.867C814.356 602.222 813.876 602.421 813.375 602.42H767.475C764.268 602.423 761.501 600.172 760.852 597.031L744.051 515.026C742.91 513.607 742.846 511.604 743.893 510.115C744.94 508.625 746.847 508.008 748.568 508.601C750.29 509.194 751.411 510.855 751.318 512.673L768.291 595.476H813.375C813.875 595.475 814.356 595.674 814.71 596.028C815.064 596.382 815.263 596.863 815.263 597.363V597.363Z" fill="#030F1C"/>
</g>
<g style="mix-blend-mode:overlay">
<path d="M685.376 565.269H682.916C680.457 565.269 678.338 563.535 677.852 561.124L677.314 558.456C677.008 556.938 677.399 555.362 678.38 554.163C679.362 552.964 680.829 552.269 682.378 552.269H684.838C687.298 552.269 689.416 554.003 689.903 556.414L690.441 559.081C690.747 560.6 690.355 562.176 689.374 563.375C688.393 564.574 686.925 565.269 685.376 565.269V565.269Z" fill="white"/>
</g>
<path d="M908.174 542.8H1107.87C1139.61 542.8 1165.34 568.53 1165.34 600.27V890.419H908.174L908.174 542.8Z" fill="#A4C3EE"/>
<path d="M913.941 542.615H913.941C944.812 542.615 969.839 567.642 969.839 598.513V890.436H858.043L858.043 598.513C858.043 583.688 863.932 569.47 874.415 558.987C884.898 548.504 899.116 542.615 913.941 542.615Z" fill="#CFE3FF"/>
<path d="M315.723 226.324C315.723 210.362 333.351 215.451 336.351 216.451C339.351 217.451 346.351 194.451 346.351 194.451C346.351 194.451 382.351 191.451 389.351 198.451C389.351 198.451 391.351 228.451 390.351 247.451C389.351 266.451 383.246 274.432 376.246 274.432C374.032 274.308 371.857 273.8 369.817 272.931V307.908L327.473 285.96L332.688 244.643C332.474 244.517 332.351 244.451 332.351 244.451C332.351 244.451 315.723 241.4 315.723 226.324Z" fill="#FFB7B6"/>
<path d="M390.495 224.457C390.495 224.457 388.542 208.036 388.294 203.49C387.936 196.95 381.845 195.577 378.264 200.164C373.113 206.976 364.372 210.021 356.104 207.884C348.85 206.195 345.795 204.255 345.13 211.576C344.465 218.897 341.971 231.055 339.643 227.803C337.316 224.551 334.711 217.401 330.099 216.57C323.052 215.299 318.693 223.713 320.356 228.732C322.019 233.75 324.37 236.88 333.069 241.626L330.356 263.121C308.801 234.539 300.681 195.287 329.917 186.198C340.839 182.802 352.185 160.796 373.319 165.802C388.294 169.349 388.294 180.821 389.358 190.798C409.477 191.629 390.495 224.457 390.495 224.457Z" fill="#352316"/>
<ellipse cx="1.87054" cy="3.076" rx="1.87054" ry="3.076" transform="matrix(-1 0 0 1 369.786 218.305)" fill="#161B36"/>
<ellipse cx="1.87054" cy="3.076" rx="1.87054" ry="3.076" transform="matrix(-1 0 0 1 388.294 219.582)" fill="#161B36"/>
<path d="M371.782 209.076C371.116 208.328 370.202 207.746 367.459 207.912C364.715 208.079 360.558 210.656 361.473 211.321C362.387 211.986 365.131 209.741 367.292 210.49C369.454 211.238 370.695 211.853 371.421 211.446C372.336 210.933 372.101 209.436 371.782 209.076Z" fill="#161B36"/>
<path d="M383.67 208.313C384.541 207.82 385.595 207.564 388.137 208.607C390.68 209.65 393.782 213.432 392.702 213.766C391.622 214.1 389.75 211.09 387.463 211.1C385.175 211.11 383.802 211.292 383.246 210.672C382.546 209.891 383.251 208.55 383.67 208.313Z" fill="#161B36"/>
<g style="mix-blend-mode:overlay" opacity="0.6">
<path d="M379.612 242.129C380.577 242.164 381.534 241.942 382.385 241.485C382.943 241.174 383.331 240.628 383.443 239.999C383.651 238.695 382.318 236.677 380.687 234.368C380.273 233.817 379.893 233.24 379.55 232.642C379.219 231.932 379.314 225.457 379.597 219.607L378.598 219.559C378.5 221.587 378.041 231.771 378.644 233.065C379.008 233.72 379.418 234.348 379.871 234.945C380.898 236.399 382.616 238.834 382.456 239.841C382.389 240.182 382.17 240.474 381.861 240.633C380.426 241.25 378.809 241.301 377.338 240.774L377.032 241.726C377.867 241.992 378.737 242.127 379.612 242.129Z" fill="#030F1C"/>
</g>
<path d="M380.823 251.643C380.908 251.347 380.872 251.031 380.722 250.763C380.572 250.494 380.321 250.297 380.026 250.215C378.554 249.789 375.842 248.988 373.777 248.284C371.623 247.43 369.528 246.434 367.507 245.302C367.155 245.111 366.729 245.114 366.38 245.312C366.031 245.509 365.808 245.873 365.79 246.273C365.65 249.351 366.021 255.362 370.861 256.587C376.747 258.078 379.828 254.893 380.823 251.643Z" fill="#161B36"/>
<path d="M378.265 255.48C378.265 255.48 373.2 248.405 365.964 250.021C365.964 250.021 365.953 255.547 370.618 256.792C375.64 258.132 378.265 255.48 378.265 255.48Z" fill="#E55151"/>
<path d="M326.759 222.912C331.553 221.291 336.005 231.726 336.193 232.171C336.3 232.426 336.18 232.719 335.926 232.826C335.671 232.933 335.378 232.813 335.271 232.559C334.496 230.757 333.548 229.035 332.441 227.417C331.43 227.241 330.389 227.431 329.506 227.954C328.63 228.606 328.071 229.598 327.967 230.686C327.927 230.927 327.718 231.104 327.474 231.104C327.446 231.104 327.419 231.102 327.392 231.097C327.261 231.076 327.144 231.003 327.067 230.895C326.99 230.787 326.959 230.653 326.98 230.523C327.154 228.102 329.222 226.259 331.646 226.362C330.222 224.599 328.598 223.343 327.08 223.859C326.911 223.917 326.724 223.88 326.589 223.762C326.455 223.644 326.394 223.463 326.429 223.288C326.464 223.113 326.589 222.97 326.759 222.912H326.759Z" fill="#0B122D"/>
<path d="M369.817 273.432C370.053 273.432 370.257 273.267 370.306 273.036C370.355 272.805 370.236 272.571 370.02 272.475C369.855 272.402 353.425 265.051 346.49 256.167C346.32 255.95 346.007 255.912 345.79 256.081C345.573 256.251 345.533 256.564 345.702 256.782C352.792 265.865 368.931 273.087 369.615 273.389C369.679 273.418 369.747 273.432 369.817 273.432V273.432Z" fill="#0B122D"/>
<path d="M346.387 202.907C346.498 202.907 346.606 202.87 346.694 202.802C354.24 196.942 351.431 185.583 351.308 185.102C351.239 184.836 350.967 184.676 350.701 184.744C350.434 184.813 350.273 185.084 350.34 185.35C350.368 185.462 353.104 196.557 346.08 202.012C345.911 202.143 345.845 202.367 345.914 202.569C345.983 202.771 346.174 202.907 346.387 202.907V202.907Z" fill="white"/>
<g style="mix-blend-mode:overlay" opacity="0.6">
<path d="M369.784 273.161C369.784 273.161 355.374 266.457 350.718 261.58C350.718 261.58 351.793 274.729 361.31 283.971C370.827 293.213 369.784 285.745 369.784 285.745L369.784 273.161Z" fill="#030F1C"/>
</g>
<path fill-rule="evenodd" clip-rule="evenodd" d="M396.263 876.332H418.946V847.537H395.155L396.263 876.332ZM306.255 848.424L282.805 847.61L281.809 876.332H304.492L306.255 848.424Z" fill="#FFB7B6"/>
<path fill-rule="evenodd" clip-rule="evenodd" d="M395.693 860.899C395.693 860.899 394.016 860.028 393.684 866.803C393.625 868.008 392.997 869.106 392.288 870.347C391.559 871.622 390.744 873.048 390.372 874.895C389.143 880.991 389.527 893.656 389.527 893.656V896.743C389.527 897.618 389.874 898.457 390.493 899.075C391.111 899.694 391.95 900.041 392.825 900.041H476.694C477.569 900.041 478.408 899.694 479.026 899.075C479.645 898.457 479.992 897.618 479.992 896.743V892.713H479.867C479.064 889.08 474.28 887.568 456.683 883.255C445.186 880.437 423.559 867.424 421.631 860.097C421.498 859.502 421.025 859.043 420.426 858.929C419.827 858.814 419.218 859.066 418.875 859.57C418.084 872.983 415.063 875.369 410.824 875.477C399.905 875.754 395.693 860.899 395.693 860.899ZM261.681 899.398L261.74 899.401C261.245 900.214 260.98 901.146 260.972 902.098V906.021H310.266V902.098C310.264 901.627 310.197 901.158 310.066 900.706L305.978 872.198C305.835 871.202 302.849 870.391 301.642 870.626C301.119 870.467 300.585 870.349 300.045 870.27C300.479 869.586 300.753 868.812 300.847 868.007C300.935 866.692 300.33 865.425 299.251 864.667C298.693 864.181 297.922 864.02 297.216 864.241C295.589 864.744 294.027 867.204 292.774 869.841C291.861 869.836 290.955 869.843 290.085 869.856C289.478 867.367 288.48 864.879 286.824 863.551C285.754 862.673 284.335 862.345 282.988 862.665C281.301 863.015 280.308 863.776 280.038 864.926C279.704 866.351 280.624 868.181 281.997 869.993C281.23 870.019 280.468 870.156 280.217 870.547L261.681 899.398ZM284.044 863.552C284.832 863.55 285.595 863.826 286.198 864.331C287.608 865.461 288.494 867.634 289.055 869.874C286.809 869.922 284.932 870.008 284.064 870.047L284.064 870.047C283.777 870.06 283.601 870.068 283.558 870.068C283.501 870.06 283.432 870.053 283.362 870.045L283.317 870.04C281.789 868.197 280.723 866.386 281.012 865.154C281.185 864.416 281.918 863.908 283.192 863.644C283.472 863.584 283.758 863.554 284.044 863.552ZM299.85 867.925C299.907 866.94 299.441 865.999 298.624 865.446C298.327 865.167 297.9 865.072 297.512 865.197C296.31 865.568 295.023 867.541 293.893 869.853C295.708 869.883 297.488 869.963 298.978 870.128C299.448 869.478 299.748 868.721 299.85 867.925Z" fill="#4C3939"/>
<g style="mix-blend-mode:overlay" opacity="0.4">
<path d="M396.042 896.31C394.083 896.31 392.495 894.722 392.495 892.763C392.495 890.804 394.083 889.216 396.042 889.216C398.001 889.216 399.589 890.804 399.589 892.763C399.589 894.722 398.001 896.31 396.042 896.31V896.31Z" fill="#030F1C"/>
</g>
<g style="mix-blend-mode:overlay" opacity="0.4">
<path d="M397.26 886.98H389.51V885.98H397.26C400.84 885.985 403.742 888.886 403.747 892.467V898.692H480.063V902.722C480.063 903.597 479.716 904.436 479.097 905.054C478.479 905.673 477.64 906.021 476.765 906.021H392.896C392.022 906.021 391.183 905.673 390.564 905.054C389.946 904.436 389.598 903.597 389.598 902.722V898.692H402.747V892.467C402.743 889.438 400.289 886.984 397.26 886.98V886.98Z" fill="#030F1C"/>
</g>
<g style="mix-blend-mode:overlay" opacity="0.4">
<path d="M271.289 894.966H299.949C305.647 894.966 310.266 898.159 310.266 902.097V906.02H260.972V902.097C260.972 898.159 265.591 894.966 271.289 894.966Z" fill="#030F1C"/>
</g>
<g style="mix-blend-mode:overlay" opacity="0.4">
<path d="M432.711 876.448C432.886 876.881 433.027 877.197 433.081 877.314C433.102 877.361 433.131 877.404 433.165 877.441C431.6 878.981 430.145 880.63 428.813 882.376C428.648 882.597 428.694 882.909 428.914 883.074C429.135 883.239 429.447 883.195 429.613 882.975C431.062 881.087 432.653 879.312 434.371 877.666C434.539 877.663 434.806 877.655 435.133 877.636C437.039 878.563 439.176 879.58 441.326 880.561C439.65 882.183 438.097 883.928 436.68 885.781C436.514 886.002 436.559 886.316 436.78 886.481C437.002 886.647 437.315 886.602 437.481 886.381C438.949 884.468 440.563 882.671 442.307 881.005C444.037 881.784 445.753 882.526 447.337 883.162C447.929 883.4 448.538 883.631 449.152 883.858C447.533 885.439 446.029 887.136 444.654 888.934C444.49 889.155 444.536 889.468 444.756 889.633C444.977 889.798 445.289 889.754 445.455 889.534C446.901 887.651 448.486 885.881 450.199 884.237C456.317 886.404 462.771 887.932 462.771 887.932C462.771 887.932 461.718 892.153 458.06 893.15C454.402 894.148 433.619 886.998 428.126 884.338C422.633 881.678 428.265 874.206 428.265 874.206C428.265 874.206 430.058 875.133 432.711 876.448Z" fill="#030F1C"/>
</g>
<g style="mix-blend-mode:overlay" opacity="0.4">
<path d="M290.854 874.54C290.707 872.962 290.449 871.397 290.084 869.855C290.954 869.842 291.86 869.836 292.773 869.84C291.994 871.481 291.333 873.19 290.854 874.54Z" fill="#030F1C"/>
</g>
<g style="mix-blend-mode:overlay" opacity="0.4">
<path fill-rule="evenodd" clip-rule="evenodd" d="M282.89 871.107C284.572 873.012 286.404 874.779 288.366 876.394C286.336 876.549 284.346 877.046 282.481 877.865C282.32 877.942 282.213 878.1 282.2 878.278C282.187 878.457 282.27 878.628 282.418 878.729C282.566 878.829 282.756 878.843 282.917 878.765C285.066 877.873 287.359 877.38 289.685 877.313C289.815 877.181 290.013 877.144 290.182 877.219C290.351 877.294 290.456 877.465 290.446 877.65C290.69 877.685 290.923 877.536 290.994 877.299C291.779 874.75 292.747 872.261 293.893 869.853C295.708 869.882 297.489 869.962 298.979 870.126C296.854 873.329 291.606 876.341 291.541 876.378C291.352 876.485 291.254 876.701 291.298 876.914C291.341 877.126 291.517 877.286 291.732 877.31C294.462 877.627 297.168 878.123 299.833 878.796C299.877 878.809 299.922 878.815 299.968 878.815C300.217 878.815 300.429 878.63 300.463 878.383C300.497 878.135 300.343 877.901 300.102 877.833C297.852 877.247 295.567 876.8 293.261 876.497C295.102 875.316 298.497 872.892 300.045 870.269C301.68 870.527 302.779 870.925 302.845 871.53C303.183 874.636 301.931 888.412 300.268 889.382C298.605 890.352 275.201 890.13 275.055 889.564C274.724 888.274 280.806 874.948 282.89 871.107ZM299.91 881.253C299.62 881.167 292.677 879.195 280.73 881.24C280.459 881.287 280.276 881.545 280.323 881.817C280.369 882.088 280.626 882.271 280.898 882.226C292.574 880.224 299.535 882.186 299.628 882.212L299.629 882.212C299.8 882.263 299.985 882.218 300.114 882.094C300.243 881.971 300.297 881.788 300.255 881.615C300.213 881.441 300.081 881.304 299.91 881.253L299.91 881.253ZM300.697 886.132C293.37 885.303 285.973 885.304 278.646 886.134L278.646 886.134C278.373 886.161 278.128 885.967 278.091 885.695C278.06 885.42 278.257 885.172 278.531 885.14C285.942 884.301 293.425 884.301 300.836 885.142C301.095 885.179 301.283 885.41 301.265 885.671C301.247 885.933 301.03 886.136 300.767 886.137C300.744 886.137 300.72 886.135 300.697 886.132Z" fill="#030F1C"/>
</g>
<g style="mix-blend-mode:overlay" opacity="0.4">
<path d="M283.437 870.188C283.49 870.117 283.535 870.068 283.557 870.068C283.73 870.068 286.066 869.938 289.054 869.873C289.563 872.022 289.875 874.213 289.986 876.418C287.617 874.547 285.424 872.461 283.437 870.188V870.188Z" fill="#030F1C"/>
</g>
<path d="M415.291 509.893C415.291 509.893 427.031 658.211 426.366 682.819C425.701 707.427 423.706 859.065 423.706 859.065C423.706 859.065 407.744 867.711 391.117 859.065C391.117 859.065 381.141 765.289 376.485 737.355C371.83 709.422 373.16 671.512 373.16 671.512L349.217 612.32L307.867 860.993C307.867 860.993 286.699 866.381 276.723 859.73C276.723 859.73 278.718 812.51 276.723 765.954C274.728 719.398 278.718 685.479 284.704 667.522C284.704 667.522 271.412 572.41 274.072 509.893H415.291Z" fill="#2D2B72"/>
<g style="mix-blend-mode:overlay" opacity="0.6">
<path d="M310.998 842.158C310.998 842.158 296.584 848.307 277.252 842.158V846.207C287.942 849.888 299.543 849.972 310.285 846.445L310.998 842.158Z" fill="white"/>
</g>
<g style="mix-blend-mode:overlay" opacity="0.6">
<path d="M423.931 842.158C423.931 842.158 408.618 848.307 389.286 842.158L389.791 846.789C389.791 846.789 406.453 852.432 423.873 846.446L423.931 842.158Z" fill="white"/>
</g>
<g style="mix-blend-mode:overlay" opacity="0.6">
<path d="M274.451 550.309C274.48 550.309 274.51 550.306 274.539 550.301C305.471 544.798 300.392 510.509 300.337 510.163C300.293 509.891 300.037 509.706 299.765 509.749C299.493 509.793 299.307 510.048 299.349 510.32C299.403 510.656 304.325 543.986 274.364 549.317C274.109 549.363 273.931 549.595 273.954 549.853C273.976 550.111 274.192 550.309 274.451 550.309V550.309Z" fill="#030F1C"/>
</g>
<g style="mix-blend-mode:overlay" opacity="0.6">
<path d="M418.201 543.319C418.431 543.319 418.632 543.161 418.687 542.938C418.742 542.714 418.637 542.482 418.433 542.375C418.217 542.262 396.811 530.823 397.943 510.269C397.95 510.136 397.905 510.007 397.816 509.908C397.728 509.809 397.604 509.75 397.471 509.742C397.339 509.733 397.208 509.778 397.109 509.867C397.009 509.956 396.95 510.081 396.945 510.214C395.777 531.418 417.748 543.146 417.97 543.262C418.041 543.299 418.121 543.318 418.201 543.319Z" fill="#030F1C"/>
</g>
<g style="mix-blend-mode:overlay" opacity="0.6">
<path d="M415.291 509.893L415.923 519.865C360.329 541.902 273.793 526.524 273.793 526.524L274.071 509.893H415.291Z" fill="#030F1C"/>
</g>
<g style="mix-blend-mode:overlay" opacity="0.6">
<path d="M349.216 612.32L362.527 562.771C362.527 562.771 369.501 589.606 366.508 618.638C363.516 647.671 366.508 655.07 366.508 655.07L349.216 612.32Z" fill="#030F1C"/>
</g>
<g style="mix-blend-mode:overlay" opacity="0.6">
<path d="M417.958 546.114C417.958 546.114 412.076 543.484 409.748 552.796C407.42 562.107 410.18 607.997 412.84 633.936C415.5 659.874 418.702 699.446 419.209 720.064C419.715 740.681 425.302 744.686 425.302 744.686C425.302 744.686 427.028 686.014 426.043 670.83C425.057 655.646 422.497 595.166 417.958 546.114Z" fill="white"/>
</g>
<g style="mix-blend-mode:overlay" opacity="0.6">
<path d="M345.336 636.283C345.336 636.283 326.408 658.304 322.016 687.853C317.625 717.403 313.967 776.041 311.75 791.116C309.533 806.191 304.297 822.875 313.988 824.177L345.336 636.283Z" fill="white"/>
</g>
<g style="mix-blend-mode:overlay" opacity="0.6">
<path d="M373.004 680.21C373.02 680.21 373.037 680.209 373.053 680.207C373.185 680.194 373.306 680.129 373.39 680.027C373.475 679.925 373.515 679.793 373.502 679.661C373.486 679.498 371.979 663.293 378.465 652.481C378.607 652.245 378.53 651.938 378.293 651.796C378.056 651.654 377.749 651.731 377.608 651.968C370.949 663.065 372.49 679.594 372.507 679.759C372.532 680.014 372.747 680.21 373.004 680.21V680.21Z" fill="#030F1C"/>
</g>
<path fill-rule="evenodd" clip-rule="evenodd" d="M251.427 358.15C246.341 372.07 240.073 389.224 231.601 410.384C223.101 431.614 228.451 447.444 254.101 452.604C255.324 452.849 256.509 453.091 257.681 453.33C264.491 454.718 270.904 456.026 282.218 457.604C281.532 465.983 280.058 474.279 277.814 482.38C275.054 493.557 273.567 505.01 273.38 516.521C273.38 516.521 390.631 536.252 414.599 516.521C419.572 512.428 417.133 502.615 414.917 493.695C413.823 489.294 412.783 485.109 412.714 481.937C412.522 473.012 412.108 464.524 411.717 456.488C411.219 446.27 410.756 436.785 410.83 428.065C410.889 421.031 411.806 409.101 412.939 395.568C412.99 395.64 413.04 395.711 413.09 395.783C413.145 395.863 413.201 395.943 413.258 396.024C423.231 409.983 434.93 422.624 448.078 433.644C455.629 439.978 462.104 443.972 468.749 444.188C483.67 444.673 497.664 428.272 527.74 375.101C529.375 376.064 531.477 375.577 532.521 373.993L536.478 367.826C537.561 366.178 537.278 361.313 535.631 360.23L511.65 344.315C510.002 343.232 505.604 343.506 504.521 345.154L499.732 352.437C499.083 353.425 498.965 354.669 499.417 355.761L497.948 357.384L467.988 391.164C467.304 391.94 466.267 392.307 465.247 392.134C464.227 391.961 463.368 391.272 462.978 390.314C457.99 378.139 452.304 366.263 445.948 354.744C438.308 341.034 428.667 326.916 418.338 317.194C417.023 315.975 415.619 314.855 414.139 313.842C405.479 306.367 377.133 294.162 377.133 294.162L358.668 306.928L324.369 291.502C324.369 291.502 297.101 297.266 288.233 300.37C287.706 300.555 287.188 300.769 286.684 301.011C270.235 306.676 265.103 320.723 251.427 358.15ZM281.2 417.783L276.945 416.493C276.104 416.239 275.416 415.628 275.065 414.823C274.713 414.017 274.733 413.098 275.118 412.309C276.314 409.859 278.177 406.074 280.557 401.318C280.786 407.245 281.003 412.824 281.2 417.783Z" fill="#34AD82"/>
<path d="M401.076 498.399C401.164 498.399 401.25 498.376 401.326 498.332C410.05 493.299 413.073 482.525 413.197 482.068C413.27 481.802 413.113 481.527 412.846 481.454C412.58 481.382 412.305 481.539 412.232 481.805C412.203 481.913 409.187 492.642 400.826 497.466C400.629 497.579 400.534 497.81 400.592 498.028C400.651 498.247 400.85 498.399 401.076 498.399V498.399Z" fill="#0B122D"/>
<g style="mix-blend-mode:overlay" opacity="0.6">
<path d="M421.419 321.124C421.419 321.124 410.221 312.674 398.416 309.847C390.715 307.917 383.203 305.302 375.969 302.033L379.395 295.155C379.395 295.155 404.845 306.467 411.933 312.12C415.419 314.76 418.6 317.78 421.419 321.124V321.124Z" fill="white"/>
</g>
<g style="mix-blend-mode:overlay" opacity="0.6">
<path d="M291.081 380.684C291.441 379.994 291.801 379.294 292.171 378.594C294.848 373.478 297.726 368.047 300.743 362.459C301.17 367.862 302.896 395.325 296.466 422.248C296.454 422.3 296.444 422.349 296.432 422.401L281.861 417.984C281.6 411.431 281.265 405.417 280.954 400.526C283.729 394.989 287.167 388.215 291.081 380.684Z" fill="#030F1C"/>
</g>
<g style="mix-blend-mode:overlay" opacity="0.6">
<path d="M281.823 457.549C285.525 458.068 289.761 458.618 294.712 459.208C297.386 474.86 304.707 489.346 315.723 500.781C327.719 513.486 352.525 516.522 370.334 525.291C336.23 527.163 273.38 516.522 273.38 516.522C273.38 516.522 273.198 500.347 279.386 475.956C280.739 469.904 281.555 463.744 281.823 457.549V457.549Z" fill="#030F1C"/>
</g>
<g style="mix-blend-mode:overlay" opacity="0.6">
<path d="M345.836 309.95L308.049 295.155L324.369 291.502L345.836 309.95V309.95Z" fill="#030F1C"/>
</g>
<g style="mix-blend-mode:overlay" opacity="0.6">
<path d="M527.576 375.015L500.755 357.382C499.144 356.323 518.836 361.124 524.065 369.188C527.45 374.409 531.514 370.996 532.628 368.335C534.19 364.602 531.385 357.412 531.385 357.412C531.409 357.375 535.312 360.073 535.335 360.035L535.631 360.229C537.278 361.313 537.561 366.177 536.478 367.825L532.521 373.992C531.438 375.64 529.224 376.098 527.576 375.015Z" fill="#030F1C"/>
</g>
<g style="mix-blend-mode:overlay" opacity="0.6">
<path d="M467.273 406.995C476.651 396.987 507.915 362.474 497.947 357.379L467.992 391.161C467.306 391.938 466.268 392.305 465.247 392.132C464.226 391.96 463.366 391.272 462.974 390.313C457.989 378.137 452.304 366.259 445.947 354.739C441.83 363.058 449.228 386.335 462.573 406.586C463.078 407.355 463.907 407.85 464.824 407.93C465.74 408.01 466.643 407.665 467.273 406.995Z" fill="white"/>
</g>
<path d="M470.41 408.699C470.611 408.699 470.792 408.579 470.871 408.394C470.949 408.209 470.909 407.995 470.769 407.851C464.887 401.785 465.773 393.442 465.783 393.359C465.815 393.084 465.618 392.836 465.344 392.804C465.07 392.772 464.821 392.969 464.79 393.243C464.748 393.603 463.831 402.133 470.051 408.548C470.145 408.645 470.275 408.7 470.41 408.699V408.699Z" fill="#0B122D"/>
<g style="mix-blend-mode:overlay" opacity="0.6">
<path d="M412.939 395.568C413.94 383.622 415.108 370.429 416.008 358.239C416.225 358.502 416.443 358.764 416.659 359.037C426.148 371.049 420.638 394.253 427.819 404.562C442.108 425.077 450.421 416.431 462.721 427.738C466.33 431.055 468.379 439.768 468.749 444.188C462.105 443.972 455.629 439.978 448.079 433.644C434.931 422.624 423.231 409.983 413.259 396.024C413.15 395.872 413.047 395.72 412.939 395.568Z" fill="#030F1C"/>
</g>
<path d="M354.777 474.033L389.697 414.773L399.247 398.563C400.005 397.273 401.39 396.482 402.887 396.483H459.477C461.152 396.676 462.639 397.642 463.497 399.093C463.683 399.356 463.854 399.63 464.007 399.913C464.245 400.339 464.44 400.788 464.587 401.253C464.587 401.263 464.597 401.263 464.597 401.273C465.054 402.372 465.017 403.614 464.497 404.683L464.557 404.563C464.531 404.635 464.501 404.705 464.467 404.773L464.437 404.813C464.427 404.823 464.427 404.833 464.417 404.843C464.391 404.905 464.361 404.965 464.327 405.023L433.217 457.823L427.577 467.383L419.857 480.493C419.098 481.783 417.713 482.575 416.217 482.573H359.627C359.419 482.572 359.212 482.555 359.007 482.523C355.737 482.513 353.117 476.853 354.777 474.033Z" fill="#3871D6"/>
<g style="mix-blend-mode:overlay" opacity="0.6">
<path d="M464.784 403.936C464.82 403.791 464.848 403.644 464.869 403.495C464.85 403.644 464.821 403.791 464.784 403.936Z" fill="#030F1C"/>
<path d="M464.56 404.562C464.527 404.63 464.504 404.704 464.466 404.769L464.417 404.848C464.467 404.753 464.518 404.658 464.56 404.562Z" fill="#030F1C"/>
<path d="M464.608 404.456C464.677 404.288 464.736 404.116 464.783 403.941C464.74 404.117 464.681 404.29 464.608 404.456V404.456Z" fill="#030F1C"/>
<path d="M359.007 482.523C357.617 482.318 356.42 481.435 355.814 480.167C355.209 478.9 355.273 477.414 355.987 476.203L391.587 415.793L400.457 400.733C401.215 399.444 402.601 398.652 404.097 398.653H460.687C462.395 398.645 463.938 399.673 464.587 401.253C464.44 400.788 464.246 400.339 464.007 399.913C463.856 399.629 463.686 399.355 463.497 399.093C462.64 397.642 461.152 396.676 459.477 396.483H402.887C401.391 396.482 400.005 397.273 399.247 398.563L389.697 414.773L354.777 474.033C353.117 476.853 355.737 482.513 359.007 482.523Z" fill="#030F1C"/>
</g>
<g style="mix-blend-mode:overlay" opacity="0.6">
<path d="M461.203 402.54H457.286C457.031 402.54 456.794 402.676 456.665 402.896L455.708 404.534C455.578 404.756 455.577 405.031 455.706 405.255C455.834 405.478 456.072 405.616 456.329 405.616H460.246C460.501 405.616 460.738 405.48 460.867 405.26L461.824 403.622C461.954 403.4 461.955 403.125 461.826 402.901C461.698 402.678 461.46 402.54 461.203 402.54Z" fill="#030F1C"/>
</g>
<g style="mix-blend-mode:overlay" opacity="0.6">
<path d="M422.598 429.46H417.461C415.948 429.52 414.534 430.226 413.576 431.398V431.398C411.369 434.005 412.392 437.283 415.412 437.283H420.549C422.061 437.223 423.475 436.517 424.433 435.345V435.345C426.64 432.738 425.618 429.46 422.598 429.46Z" fill="#030F1C"/>
</g>
<g style="mix-blend-mode:overlay" opacity="0.6">
<path d="M299.793 456.85L309.021 426.107C309.575 424.26 310.604 444.503 304.372 451.819C300.337 456.556 304.769 459.475 307.638 459.781C311.662 460.211 317.75 455.467 317.75 455.467C317.792 455.479 316.323 459.991 316.365 460.002L316.264 460.341C315.697 462.23 311.116 463.891 309.227 463.324L302.186 461.297C301.279 461.024 300.518 460.403 300.069 459.569C299.62 458.735 299.521 457.757 299.793 456.85Z" fill="#030F1C"/>
</g>
<path d="M296.266 459.521C296.53 459.521 296.748 459.315 296.764 459.052C296.78 458.789 296.589 458.558 296.327 458.525L271.43 455.444C271.253 455.421 271.076 455.494 270.968 455.637C270.86 455.78 270.836 455.97 270.906 456.135C270.976 456.3 271.129 456.415 271.307 456.436L296.204 459.517C296.224 459.52 296.245 459.521 296.266 459.521V459.521Z" fill="#0B122D"/>
<path d="M304.151 425.237C304.399 425.237 304.61 425.055 304.646 424.81C304.682 424.565 304.533 424.33 304.296 424.258L290.794 420.167C290.531 420.089 290.254 420.239 290.174 420.502C290.095 420.765 290.242 421.043 290.504 421.124L304.006 425.215C304.053 425.23 304.102 425.237 304.151 425.237V425.237Z" fill="#0B122D"/>
<g style="mix-blend-mode:overlay" opacity="0.6">
<path d="M264.383 415.132C268.632 407.17 279.157 387.453 281.15 383.752C282.87 380.572 288.451 379.634 291.081 380.684C283.469 395.331 277.632 407.161 275.044 412.46C274.677 413.213 274.659 414.089 274.995 414.856C275.33 415.623 275.986 416.204 276.788 416.446L308.451 426.044L308.991 426.207L307.365 431.623C295.079 430.688 274.382 423.07 266.14 419.873C265.239 419.523 264.531 418.804 264.195 417.898C263.859 416.991 263.927 415.985 264.383 415.132V415.132Z" fill="white"/>
</g>
<path d="M263.984 424.178C264.228 424.178 264.436 424.001 264.476 423.76C264.531 423.432 265.921 415.718 275.059 415.456C275.336 415.448 275.553 415.218 275.545 414.942C275.537 414.666 275.307 414.448 275.031 414.456C265.053 414.743 263.504 423.509 263.49 423.598C263.445 423.87 263.63 424.127 263.902 424.172C263.929 424.176 263.956 424.178 263.984 424.178Z" fill="#0B122D"/>
<path d="M293.13 373.62C293.232 373.62 293.332 373.589 293.415 373.531C307.714 363.603 307.759 341.993 307.758 341.775C307.756 341.5 307.533 341.278 307.258 341.278H307.255C307.122 341.279 306.995 341.333 306.902 341.427C306.809 341.521 306.757 341.649 306.758 341.781C306.759 341.993 306.707 363.084 292.845 372.709C292.665 372.834 292.587 373.061 292.653 373.27C292.718 373.478 292.912 373.62 293.13 373.62V373.62Z" fill="#0B122D"/>
<path d="M414.416 378.631C414.663 378.631 414.873 378.45 414.91 378.206C418.244 356.066 416.662 340.05 416.646 339.89C416.618 339.616 416.372 339.416 416.097 339.444C415.823 339.472 415.623 339.718 415.651 339.993C415.668 340.151 417.235 356.051 413.921 378.056C413.88 378.33 414.067 378.584 414.341 378.626C414.365 378.629 414.391 378.631 414.416 378.631Z" fill="#0B122D"/>
<path fill-rule="evenodd" clip-rule="evenodd" d="M532.032 299.032C532.032 299.032 532.553 288.595 535.738 285.692C537.753 283.976 540.485 283.365 543.039 284.058C543.039 284.058 543.294 283.476 543.67 282.606C543.994 281.854 544.422 280.893 544.86 279.913C545.644 278.154 546.458 276.329 546.754 275.512C550.946 263.943 558.255 249.066 561.896 250.291C564.763 251.256 562.409 257.846 556.686 273.869L556.685 273.87C555.944 275.945 555.146 278.179 554.296 280.579C554.776 279.719 557.345 276.546 562.34 278.496C565.856 279.859 563.402 285.86 563.402 285.86C563.402 285.86 568.375 283.679 570.788 286.202C573.418 288.968 571.101 293.657 570.923 293.971C571.2 293.838 575.843 291.638 577.704 295.902C578.44 297.6 576.579 302.547 572.993 308.374C572.547 309.094 572.077 309.826 571.584 310.57C571.471 310.736 571.363 310.897 571.249 311.071L571.24 311.075C570.332 312.421 569.338 313.794 568.278 315.168L568.27 315.167C567.961 315.566 567.662 315.953 567.372 316.33C562.042 323.245 559.478 326.572 551.225 329.526C551.225 329.526 542.113 346.324 534.52 359.492L512.698 345.01C514.666 341.862 516.671 338.671 518.582 335.628L518.585 335.624C524.757 325.797 529.96 317.513 529.855 317.167L529.855 317.167L529.856 317.166C529.863 317.097 530.572 310.619 532.032 299.032ZM355.537 300.461L359.929 300.818L358.669 306.928L355.537 300.461ZM357.054 441.043C356.605 441.006 340.216 437.499 324.273 434.074L316.911 458.218L349.884 463.232C349.892 463.248 349.9 463.265 349.909 463.282C349.917 463.3 349.926 463.318 349.936 463.336C354.204 464.084 359.076 465.256 362.107 467.009C367.005 469.841 379.004 470.536 383.28 469.516C390.428 470.193 400.326 471.008 402.15 470.529C405.064 469.762 404.219 466.997 402.628 466.019C401.944 465.599 404.911 464.932 407.346 464.385C408.146 464.205 408.889 464.038 409.426 463.897C412.684 463.043 411.739 459.949 409.962 458.858C408.813 458.152 412.829 457.072 415.351 456.411C418.608 455.556 417.664 452.462 415.887 451.372C415.491 451.128 414.717 450.809 413.881 450.463C411.858 449.628 409.465 448.64 411.137 448.201C414.393 447.345 413.447 444.252 411.671 443.161C410.285 442.309 396.319 441.234 390.253 440.803C389.81 440.758 389.349 440.716 388.884 440.673C386.184 440.426 383.319 440.164 382.719 439.357C382.156 438.602 383.521 436.597 385.291 433.995C386.103 432.801 387.001 431.481 387.837 430.099C390.498 425.705 386.402 419.843 385.098 420.299C384.503 420.507 382.232 423.615 379.653 427.145C376.57 431.364 373.048 436.186 371.422 437.376C369.28 438.946 366.447 439.727 364.215 440.342C363.337 440.584 362.553 440.8 361.939 441.029C360.32 441.299 358.67 441.335 357.041 441.137L357.054 441.043Z" fill="#FFB7B6"/>
<path d="M411.936 449.396C412.206 449.395 412.427 449.18 412.434 448.91C412.442 448.64 412.234 448.412 411.964 448.397L389.985 447.126C389.711 447.112 389.478 447.322 389.462 447.596C389.446 447.87 389.654 448.105 389.928 448.124L411.906 449.395L411.936 449.396Z" fill="#0B122D"/>
<path d="M411.301 459.358C411.568 459.357 411.788 459.147 411.799 458.879C411.811 458.612 411.61 458.383 411.344 458.36L388.992 456.401C388.717 456.377 388.474 456.581 388.45 456.856C388.426 457.131 388.63 457.373 388.905 457.397L411.257 459.356C411.272 459.357 411.286 459.358 411.301 459.358V459.358Z" fill="#0B122D"/>
<path d="M403.967 466.519C404.237 466.519 404.458 466.304 404.467 466.035C404.475 465.765 404.268 465.537 403.998 465.52L385.235 464.302C384.961 464.288 384.725 464.495 384.704 464.769C384.686 465.045 384.895 465.283 385.171 465.301L403.934 466.518L403.967 466.519Z" fill="#0B122D"/>
<path d="M548.208 297.087C548.484 297.092 548.704 297.32 548.699 297.596C548.677 298.895 548.84 300.523 549.747 300.907C551.049 301.458 553.736 299.461 555.122 298.071L556.278 296.911L555.967 298.52C555.428 301.302 555.74 303.156 556.892 304.032C559.226 305.804 564.353 303.282 564.405 303.257L565.211 302.855L565.126 303.752C564.924 305.873 565.302 307.321 566.248 308.057C567.687 309.178 570.068 308.347 570.091 308.338C570.351 308.245 570.637 308.38 570.731 308.639C570.825 308.899 570.69 309.186 570.43 309.279C569.721 309.516 568.979 309.639 568.232 309.644C567.303 309.676 566.391 309.396 565.639 308.85C564.546 308.003 564.023 306.542 564.078 304.501C562.422 305.192 558.522 306.523 556.288 304.829C555.036 303.878 554.529 302.17 554.774 299.74C553.405 300.892 551.035 302.537 549.358 301.829C548.217 301.346 547.659 299.916 547.699 297.578C547.699 297.445 547.753 297.317 547.849 297.225C547.945 297.132 548.075 297.082 548.208 297.087Z" fill="#0B122D"/>
<path d="M543.119 295.036C546.688 295.608 556.415 296.601 558.537 294.342C558.879 293.985 559.004 293.472 558.862 292.999C557.714 287.914 544.133 284.837 543.996 284.807C543.727 284.747 543.557 284.48 543.616 284.21C543.676 283.941 543.943 283.77 544.213 283.83C544.798 283.961 558.55 287.079 559.837 292.779C560.049 293.577 559.833 294.427 559.265 295.026C557.997 296.377 554.927 296.771 551.779 296.77C548.825 296.733 545.878 296.483 542.961 296.023C542.689 295.979 542.504 295.723 542.548 295.451C542.591 295.179 542.847 294.993 543.119 295.036H543.119Z" fill="#0B122D"/>
<path d="M566.531 302.566C566.392 302.801 566.09 302.882 565.852 302.746C565.615 302.61 565.53 302.309 565.663 302.07C566.842 300.006 567.943 297.863 568.936 295.699C569.051 295.448 569.348 295.338 569.599 295.453C569.85 295.568 569.96 295.865 569.845 296.116C568.84 298.306 567.725 300.477 566.531 302.566Z" fill="#0B122D"/>
<path d="M561.105 291.468C561.02 291.625 560.857 291.725 560.678 291.73C560.499 291.735 560.331 291.643 560.238 291.49C560.145 291.337 560.141 291.146 560.227 290.989L562.126 287.507C562.212 287.349 562.374 287.249 562.553 287.244C562.733 287.24 562.9 287.331 562.994 287.484C563.087 287.637 563.091 287.828 563.004 287.985L561.105 291.468Z" fill="#0B122D"/>
<path fill-rule="evenodd" clip-rule="evenodd" d="M353.837 296.949C334.738 284.989 328.928 274.431 328.928 274.431L324.37 291.501L345.837 309.949C346.733 307.589 347.827 305.309 349.109 303.134L358.669 306.927L353.837 296.949ZM358.669 306.927L364.247 303.07L369.747 310.33L377.133 294.161L369.817 285.515C369.817 285.515 369.36 292.579 360.827 296.463L358.669 306.927Z" fill="#2D2B72"/>
<g style="mix-blend-mode:overlay" opacity="0.6">
<path d="M353.837 296.95L358.669 306.928L349.109 303.134C350.348 300.836 351.944 298.748 353.837 296.95Z" fill="#030F1C"/>
</g>
<g style="mix-blend-mode:overlay" opacity="0.6">
<path d="M360.827 296.464L358.669 306.928L364.247 303.071L360.827 296.464V296.464Z" fill="#030F1C"/>
</g>
</svg>
