<svg width="64" height="64" viewBox="0 0 64 64" fill="none" xmlns="http://www.w3.org/2000/svg">
<path d="M15.5029 53.499C12.4699 53.499 10.0029 51.031 10.0029 47.999C10.0029 44.967 12.4699 42.499 15.5029 42.499C18.5359 42.499 21.0029 44.967 21.0029 47.999C21.0029 51.031 18.5359 53.499 15.5029 53.499ZM15.5029 43.499C13.0219 43.499 11.0029 45.518 11.0029 47.999C11.0029 50.48 13.0219 52.499 15.5029 52.499C17.9839 52.499 20.0029 50.48 20.0029 47.999C20.0029 45.518 17.9839 43.499 15.5029 43.499Z" fill="#161B36"/>
<path d="M7.5 61.5C7.36739 61.5 7.24021 61.4473 7.14645 61.3536C7.05268 61.2598 7 61.1326 7 61V57.609C7 56.436 7.69 55.364 8.759 54.878L12.493 53.183V52.325C12.493 52.1924 12.5457 52.0652 12.6394 51.9715C12.7332 51.8777 12.8604 51.825 12.993 51.825C13.1256 51.825 13.2528 51.8777 13.3466 51.9715C13.4403 52.0652 13.493 52.1924 13.493 52.325L13.494 53.506C13.494 53.602 13.4663 53.6959 13.4144 53.7766C13.3624 53.8573 13.2884 53.9213 13.201 53.961L9.174 55.789C8.82445 55.9479 8.52794 56.204 8.3198 56.5267C8.11166 56.8493 8.00065 57.225 8 57.609V61C8 61.1326 7.94732 61.2598 7.85355 61.3536C7.75979 61.4473 7.63261 61.5 7.5 61.5ZM23.5 61.5C23.3674 61.5 23.2402 61.4473 23.1464 61.3536C23.0527 61.2598 23 61.1326 23 61V57.608C23 56.826 22.54 56.111 21.828 55.788L17.786 53.95C17.6986 53.9103 17.6246 53.8463 17.5726 53.7656C17.5207 53.6849 17.493 53.591 17.493 53.495V52.336C17.493 52.2034 17.5457 52.0762 17.6394 51.9825C17.7332 51.8887 17.8604 51.836 17.993 51.836C18.1256 51.836 18.2528 51.8887 18.3466 51.9825C18.4403 52.0762 18.493 52.2034 18.493 52.336V53.172L22.241 54.878C22.765 55.1166 23.2094 55.5008 23.5212 55.9848C23.8331 56.4688 23.9993 57.0323 24 57.608V61C24 61.1326 23.9473 61.2598 23.8536 61.3536C23.7598 61.4473 23.6326 61.5 23.5 61.5ZM31.502 53.499C28.469 53.499 26.002 51.031 26.002 47.999C26.002 44.967 28.469 42.499 31.502 42.499C34.535 42.499 37.002 44.967 37.002 47.999C37.002 51.031 34.535 53.499 31.502 53.499ZM31.502 43.499C29.021 43.499 27.002 45.518 27.002 47.999C27.002 50.48 29.021 52.499 31.502 52.499C33.983 52.499 36.002 50.48 36.002 47.999C36.002 45.518 33.984 43.499 31.502 43.499Z" fill="#161B36"/>
<path d="M23.5 61.5C23.3674 61.5 23.2402 61.4473 23.1464 61.3536C23.0527 61.2598 23 61.1326 23 61V57.609C23 56.436 23.69 55.364 24.759 54.878L28.493 53.183V52.325C28.493 52.1924 28.5457 52.0652 28.6394 51.9715C28.7332 51.8777 28.8604 51.825 28.993 51.825C29.1256 51.825 29.2528 51.8777 29.3466 51.9715C29.4403 52.0652 29.493 52.1924 29.493 52.325L29.494 53.506C29.494 53.602 29.4663 53.6959 29.4144 53.7766C29.3624 53.8573 29.2884 53.9213 29.201 53.961L25.173 55.789C24.8236 55.948 24.5272 56.2041 24.3192 56.5268C24.1112 56.8494 24.0004 57.2251 24 57.609V61C24 61.1326 23.9473 61.2598 23.8536 61.3536C23.7598 61.4473 23.6326 61.5 23.5 61.5ZM39.5 61.5C39.3674 61.5 39.2402 61.4473 39.1464 61.3536C39.0527 61.2598 39 61.1326 39 61V57.608C39 56.826 38.54 56.111 37.828 55.788L33.786 53.95C33.6986 53.9103 33.6246 53.8463 33.5726 53.7656C33.5207 53.6849 33.493 53.591 33.493 53.495V52.336C33.493 52.2034 33.5457 52.0762 33.6394 51.9825C33.7332 51.8887 33.8604 51.836 33.993 51.836C34.1256 51.836 34.2528 51.8887 34.3466 51.9825C34.4403 52.0762 34.493 52.2034 34.493 52.336V53.172L38.241 54.878C38.765 55.1166 39.2094 55.5008 39.5212 55.9848C39.8331 56.4688 39.9993 57.0323 40 57.608V61C40 61.1326 39.9473 61.2598 39.8536 61.3536C39.7598 61.4473 39.6326 61.5 39.5 61.5ZM47.502 53.499C44.469 53.499 42.002 51.031 42.002 47.999C42.002 44.967 44.469 42.499 47.502 42.499C50.535 42.499 53.002 44.967 53.002 47.999C53.002 51.031 50.535 53.499 47.502 53.499ZM47.502 43.499C45.021 43.499 43.002 45.518 43.002 47.999C43.002 50.48 45.021 52.499 47.502 52.499C49.983 52.499 52.002 50.48 52.002 47.999C52.002 45.518 49.984 43.499 47.502 43.499Z" fill="#161B36"/>
<path d="M39.4999 61.5C39.3673 61.5 39.2401 61.4473 39.1463 61.3536C39.0526 61.2598 38.9999 61.1326 38.9999 61V57.609C38.9999 56.436 39.6899 55.364 40.7589 54.878L44.4929 53.183V52.325C44.4929 52.1924 44.5456 52.0652 44.6393 51.9714C44.7331 51.8777 44.8603 51.825 44.9929 51.825C45.1255 51.825 45.2527 51.8777 45.3464 51.9714C45.4402 52.0652 45.4929 52.1924 45.4929 52.325V53.506C45.4929 53.602 45.4652 53.6959 45.4133 53.7766C45.3613 53.8572 45.2872 53.9213 45.1999 53.961L41.1729 55.789C40.8234 55.948 40.5271 56.2041 40.3191 56.5267C40.1111 56.8494 40.0003 57.2251 39.9999 57.609V61C39.9999 61.1326 39.9472 61.2598 39.8534 61.3536C39.7597 61.4473 39.6325 61.5 39.4999 61.5ZM55.4999 61.5C55.3673 61.5 55.2401 61.4473 55.1463 61.3536C55.0526 61.2598 54.9999 61.1326 54.9999 61V57.608C54.9999 56.826 54.5399 56.111 53.8279 55.788L49.7869 53.95C49.6995 53.9103 49.6255 53.8462 49.5735 53.7656C49.5215 53.6849 49.4939 53.591 49.4939 53.495V52.336C49.4939 52.2034 49.5466 52.0762 49.6403 51.9824C49.7341 51.8887 49.8613 51.836 49.9939 51.836C50.1265 51.836 50.2537 51.8887 50.3474 51.9824C50.4412 52.0762 50.4939 52.2034 50.4939 52.336V53.172L54.2419 54.878C54.7656 55.1169 55.2097 55.5011 55.5214 55.9851C55.833 56.4691 55.9991 57.0324 55.9999 57.608V61C55.9999 61.1326 55.9472 61.2598 55.8534 61.3536C55.7597 61.4473 55.6325 61.5 55.4999 61.5ZM55.9999 24.815H45.9999C45.8673 24.815 45.7401 24.7623 45.6463 24.6686C45.5526 24.5748 45.4999 24.4476 45.4999 24.315C45.4999 24.1824 45.5526 24.0552 45.6463 23.9614C45.7401 23.8677 45.8673 23.815 45.9999 23.815H55.9999C56.1325 23.815 56.2597 23.8677 56.3534 23.9614C56.4472 24.0552 56.4999 24.1824 56.4999 24.315C56.4999 24.4476 56.4472 24.5748 56.3534 24.6686C56.2597 24.7623 56.1325 24.815 55.9999 24.815ZM51.9999 27.315H45.9999C45.8673 27.315 45.7401 27.2623 45.6463 27.1686C45.5526 27.0748 45.4999 26.9476 45.4999 26.815C45.4999 26.6824 45.5526 26.5552 45.6463 26.4614C45.7401 26.3677 45.8673 26.315 45.9999 26.315H51.9999C52.1325 26.315 52.2597 26.3677 52.3534 26.4614C52.4472 26.5552 52.4999 26.6824 52.4999 26.815C52.4999 26.9476 52.4472 27.0748 52.3534 27.1686C52.2597 27.2623 52.1325 27.315 51.9999 27.315ZM14.0049 23.5C10.4209 23.5 7.50488 20.584 7.50488 17C7.50488 13.416 10.4209 10.5 14.0049 10.5C17.5889 10.5 20.5049 13.416 20.5049 17C20.5049 20.584 17.5889 23.5 14.0049 23.5ZM14.0049 11.5C10.9719 11.5 8.50488 13.968 8.50488 17C8.50488 20.032 10.9719 22.5 14.0049 22.5C17.0379 22.5 19.5049 20.032 19.5049 17C19.5049 13.968 17.0379 11.5 14.0049 11.5Z" fill="#161B36"/>
<path d="M18.1649 13.5301L18.6119 13.1581C17.8222 12.2116 16.7603 11.5314 15.5704 11.2098C14.3805 10.8882 13.1204 10.9408 11.9615 11.3606C10.8026 11.7804 9.80111 12.5469 9.09319 13.5559C8.38526 14.5649 8.00527 15.7675 8.00488 17.0001H8.57088C12.0769 17.0001 15.4709 15.7721 18.1649 13.5301Z" fill="#34AD82"/>
<path d="M8.57103 17.5H8.00503C7.87242 17.5 7.74525 17.4473 7.65148 17.3536C7.55771 17.2598 7.50503 17.1326 7.50503 17C7.50503 13.416 10.421 10.5 14.005 10.5C15.937 10.5 17.756 11.353 18.996 12.838C19.0809 12.9399 19.1218 13.0712 19.1098 13.2032C19.0978 13.3353 19.0338 13.4571 18.932 13.542L18.485 13.914V13.915C15.6995 16.2296 12.1926 17.4977 8.57103 17.5ZM8.52703 16.5H8.57103C11.953 16.5 15.246 15.309 17.845 13.146L17.889 13.109C17.379 12.5987 16.7733 12.194 16.1067 11.918C15.4401 11.6421 14.7255 11.5004 14.004 11.501C12.6325 11.5024 11.3108 12.0156 10.2978 12.9403C9.28479 13.8649 8.65332 15.1343 8.52703 16.5ZM4.00003 40C3.86742 40 3.74025 39.9473 3.64648 39.8536C3.55271 39.7598 3.50003 39.6326 3.50003 39.5V30.591C3.4966 29.5686 3.77979 28.5656 4.31748 27.696C4.85517 26.8264 5.62583 26.1248 6.54203 25.671L10.772 23.558C10.8308 23.5287 10.8948 23.5112 10.9603 23.5065C11.0258 23.5019 11.0916 23.5102 11.1539 23.531C11.2162 23.5518 11.2738 23.5847 11.3234 23.6278C11.373 23.6708 11.4137 23.7232 11.443 23.782C11.4724 23.8408 11.4899 23.9047 11.4945 23.9703C11.4991 24.0358 11.4908 24.1016 11.47 24.1639C11.4492 24.2262 11.4163 24.2838 11.3733 24.3334C11.3302 24.383 11.2778 24.4236 11.219 24.453L6.98903 26.566C6.23936 26.9371 5.60875 27.511 5.16879 28.2225C4.72883 28.9339 4.49714 29.7545 4.50003 30.591V39.5C4.50003 39.6326 4.44735 39.7598 4.35358 39.8536C4.25982 39.9473 4.13264 40 4.00003 40Z" fill="#161B36"/>
<path d="M8.00488 39.9998C7.87227 39.9998 7.7451 39.9471 7.65133 39.8534C7.55756 39.7596 7.50488 39.6324 7.50488 39.4998V32.9998C7.50488 32.8672 7.55756 32.74 7.65133 32.6463C7.7451 32.5525 7.87227 32.4998 8.00488 32.4998C8.13749 32.4998 8.26467 32.5525 8.35844 32.6463C8.4522 32.74 8.50488 32.8672 8.50488 32.9998V39.4998C8.50488 39.6324 8.4522 39.7596 8.35844 39.8534C8.26467 39.9471 8.13749 39.9998 8.00488 39.9998ZM13.9999 28.9678C13.9179 28.9678 13.8372 28.9477 13.7648 28.9091C13.6924 28.8706 13.6306 28.8148 13.5849 28.7468L10.5809 24.2838C10.5252 24.2015 10.4956 24.1042 10.4959 24.0048L10.4949 22.1848C10.4952 22.0972 10.5185 22.0111 10.5624 21.9353C10.6064 21.8595 10.6695 21.7965 10.7454 21.7527C10.8213 21.7088 10.9074 21.6857 10.995 21.6855C11.0827 21.6854 11.1688 21.7082 11.2449 21.7518C12.0818 22.231 13.029 22.484 13.9934 22.4859C14.9578 22.4878 15.9061 22.2386 16.7449 21.7628C16.8211 21.7195 16.9072 21.6969 16.9949 21.6973C17.0825 21.6976 17.1685 21.7209 17.2443 21.7648C17.3202 21.8087 17.3832 21.8716 17.4271 21.9474C17.4711 22.0232 17.4945 22.1092 17.4949 22.1968L17.4959 23.9958C17.496 24.0947 17.4668 24.1915 17.4119 24.2738L14.4159 28.7468C14.3699 28.8149 14.3079 28.8706 14.2354 28.9091C14.1629 28.9477 14.082 28.9678 13.9999 28.9678ZM11.4969 23.8528L13.9999 27.5708L16.4969 23.8428L16.4959 22.9998C14.894 23.6599 13.0954 23.6567 11.4959 22.9908L11.4969 23.8528Z" fill="#161B36"/>
<path d="M14 32.9682C13.8674 32.9682 13.7402 32.9155 13.6464 32.8218C13.5527 32.728 13.5 32.6008 13.5 32.4682V28.4682C13.5 28.3356 13.5527 28.2084 13.6464 28.1147C13.7402 28.0209 13.8674 27.9682 14 27.9682C14.1326 27.9682 14.2598 28.0209 14.3536 28.1147C14.4473 28.2084 14.5 28.3356 14.5 28.4682V32.4682C14.5 32.6008 14.4473 32.728 14.3536 32.8218C14.2598 32.9155 14.1326 32.9682 14 32.9682ZM20.005 40.0002C19.8724 40.0002 19.7452 39.9475 19.6514 39.8538C19.5577 39.76 19.505 39.6328 19.505 39.5002L19.507 30.1692C19.5068 30.0702 19.5361 29.9733 19.591 29.891C19.6459 29.8086 19.7241 29.7443 19.8155 29.7064C19.907 29.6685 20.0077 29.6586 20.1048 29.678C20.2019 29.6973 20.2911 29.7451 20.361 29.8152L26.177 35.6302C26.743 36.1962 27.731 36.1962 28.298 35.6302L33.601 30.3272L31.48 28.2062L27.591 32.0952C27.4972 32.1889 27.3701 32.2416 27.2375 32.2416C27.1049 32.2416 26.9778 32.1889 26.884 32.0952L23 28.2122C22.3294 27.5417 21.5623 26.9755 20.724 26.5322L16.763 24.4372C16.6456 24.3751 16.5577 24.269 16.5186 24.1421C16.4795 24.0153 16.4924 23.8781 16.5545 23.7607C16.6166 23.6433 16.7227 23.5554 16.8496 23.5163C16.9764 23.4772 17.1136 23.4901 17.231 23.5522L21.192 25.6472C22.1182 26.1374 22.9659 26.7633 23.707 27.5042L27.238 31.0342L31.127 27.1452C31.2208 27.0515 31.3479 26.9988 31.4805 26.9988C31.6131 26.9988 31.7402 27.0515 31.834 27.1452L34.662 29.9732C34.7086 30.0196 34.7455 30.0748 34.7707 30.1356C34.7959 30.1963 34.8089 30.2614 34.8089 30.3272C34.8089 30.393 34.7959 30.4581 34.7707 30.5188C34.7455 30.5796 34.7086 30.6348 34.662 30.6812L29.005 36.3372C28.061 37.2822 26.414 37.2822 25.47 36.3372L20.507 31.3752L20.505 39.5002C20.505 39.6328 20.4523 39.76 20.3586 39.8538C20.2648 39.9475 20.1376 40.0002 20.005 40.0002Z" fill="#161B36"/>
<path d="M60 32.3154H35.722C35.5894 32.3154 35.4622 32.2627 35.3684 32.169C35.2747 32.0752 35.222 31.948 35.222 31.8154C35.222 31.6828 35.2747 31.5556 35.3684 31.4619C35.4622 31.3681 35.5894 31.3154 35.722 31.3154H59.5V8.31543H29.5V27.1514C29.5 27.284 29.4473 27.4112 29.3536 27.505C29.2598 27.5988 29.1326 27.6514 29 27.6514C28.8674 27.6514 28.7402 27.5988 28.6464 27.505C28.5527 27.4112 28.5 27.284 28.5 27.1514V7.81543C28.5 7.68282 28.5527 7.55564 28.6464 7.46188C28.7402 7.36811 28.8674 7.31543 29 7.31543H60C60.1326 7.31543 60.2598 7.36811 60.3536 7.46188C60.4473 7.55564 60.5 7.68282 60.5 7.81543V31.8154C60.5 31.948 60.4473 32.0752 60.3536 32.169C60.2598 32.2627 60.1326 32.3154 60 32.3154Z" fill="#161B36"/>
<path d="M35.722 29.414C35.6232 29.414 35.5266 29.3847 35.4444 29.3298C35.3622 29.2749 35.2982 29.1969 35.2603 29.1057C35.2224 29.0144 35.2124 28.9139 35.2316 28.817C35.2508 28.7201 35.2982 28.631 35.368 28.561C35.6485 28.2792 35.806 27.8977 35.806 27.5C35.806 27.1023 35.6485 26.7208 35.368 26.439C35.0862 26.1585 34.7047 26.001 34.307 26.001C33.9093 26.001 33.5278 26.1585 33.246 26.439C33.1517 26.5301 33.0254 26.5805 32.8943 26.5793C32.7632 26.5782 32.6378 26.5256 32.5451 26.4329C32.4524 26.3402 32.3998 26.2148 32.3987 26.0837C32.3975 25.9526 32.4479 25.8263 32.539 25.732C33.0083 25.2638 33.6441 25.0008 34.307 25.0008C34.9699 25.0008 35.6058 25.2638 36.075 25.732C36.5433 26.2012 36.8062 26.8371 36.8062 27.5C36.8062 28.1629 36.5433 28.7988 36.075 29.268C36.0287 29.3144 35.9736 29.3511 35.9131 29.3762C35.8525 29.4012 35.7876 29.4141 35.722 29.414ZM11 5.5H7C6.86739 5.5 6.74021 5.44732 6.64645 5.35355C6.55268 5.25979 6.5 5.13261 6.5 5C6.5 4.86739 6.55268 4.74021 6.64645 4.64645C6.74021 4.55268 6.86739 4.5 7 4.5H11C11.1326 4.5 11.2598 4.55268 11.3536 4.64645C11.4473 4.74021 11.5 4.86739 11.5 5C11.5 5.13261 11.4473 5.25979 11.3536 5.35355C11.2598 5.44732 11.1326 5.5 11 5.5Z" fill="#161B36"/>
<path d="M9 7.5C8.86739 7.5 8.74021 7.44732 8.64645 7.35355C8.55268 7.25979 8.5 7.13261 8.5 7V3C8.5 2.86739 8.55268 2.74021 8.64645 2.64645C8.74021 2.55268 8.86739 2.5 9 2.5C9.13261 2.5 9.25979 2.55268 9.35355 2.64645C9.44732 2.74021 9.5 2.86739 9.5 3V7C9.5 7.13261 9.44732 7.25979 9.35355 7.35355C9.25979 7.44732 9.13261 7.5 9 7.5ZM6 11H2C1.86739 11 1.74021 10.9473 1.64645 10.8536C1.55268 10.7598 1.5 10.6326 1.5 10.5C1.5 10.3674 1.55268 10.2402 1.64645 10.1464C1.74021 10.0527 1.86739 10 2 10H6C6.13261 10 6.25979 10.0527 6.35355 10.1464C6.44732 10.2402 6.5 10.3674 6.5 10.5C6.5 10.6326 6.44732 10.7598 6.35355 10.8536C6.25979 10.9473 6.13261 11 6 11Z" fill="#161B36"/>
<path d="M4 13C3.86739 13 3.74021 12.9473 3.64645 12.8536C3.55268 12.7598 3.5 12.6326 3.5 12.5V8.5C3.5 8.36739 3.55268 8.24021 3.64645 8.14645C3.74021 8.05268 3.86739 8 4 8C4.13261 8 4.25979 8.05268 4.35355 8.14645C4.44732 8.24021 4.5 8.36739 4.5 8.5V12.5C4.5 12.6326 4.44732 12.7598 4.35355 12.8536C4.25979 12.9473 4.13261 13 4 13ZM53 36.315H43C42.8674 36.315 42.7402 36.2623 42.6464 36.1686C42.5527 36.0748 42.5 35.9476 42.5 35.815C42.5 35.6824 42.5527 35.5552 42.6464 35.4614C42.7402 35.3677 42.8674 35.315 43 35.315H53C53.1326 35.315 53.2598 35.3677 53.3536 35.4614C53.4473 35.5552 53.5 35.6824 53.5 35.815C53.5 35.9476 53.4473 36.0748 53.3536 36.1686C53.2598 36.2623 53.1326 36.315 53 36.315ZM56 36.315H55C54.8674 36.315 54.7402 36.2623 54.6464 36.1686C54.5527 36.0748 54.5 35.9476 54.5 35.815C54.5 35.6824 54.5527 35.5552 54.6464 35.4614C54.7402 35.3677 54.8674 35.315 55 35.315H56C56.1326 35.315 56.2598 35.3677 56.3536 35.4614C56.4473 35.5552 56.5 35.6824 56.5 35.815C56.5 35.9476 56.4473 36.0748 56.3536 36.1686C56.2598 36.2623 56.1326 36.315 56 36.315ZM36 20.815H33C32.8674 20.815 32.7402 20.7623 32.6464 20.6686C32.5527 20.5748 32.5 20.4476 32.5 20.315V15.315C32.5 15.1824 32.5527 15.0552 32.6464 14.9614C32.7402 14.8677 32.8674 14.815 33 14.815H36C36.1326 14.815 36.2598 14.8677 36.3536 14.9614C36.4473 15.0552 36.5 15.1824 36.5 15.315V20.315C36.5 20.592 36.277 20.815 36 20.815ZM33.5 19.815H35.5V15.815H33.5V19.815ZM42 20.815H39C38.8674 20.815 38.7402 20.7623 38.6464 20.6686C38.5527 20.5748 38.5 20.4476 38.5 20.315V13.815C38.5 13.6824 38.5527 13.5552 38.6464 13.4614C38.7402 13.3677 38.8674 13.315 39 13.315H42C42.1326 13.315 42.2598 13.3677 42.3536 13.4614C42.4473 13.5552 42.5 13.6824 42.5 13.815V20.315C42.5 20.592 42.277 20.815 42 20.815ZM39.5 19.815H41.5V14.315H39.5V19.815Z" fill="#161B36"/>
<path d="M36 11.3154H39V20.3154H36V11.3154Z" fill="#F76161"/>
<path d="M39 20.8154H36C35.8674 20.8154 35.7402 20.7628 35.6464 20.669C35.5527 20.5752 35.5 20.448 35.5 20.3154V11.3154C35.5 11.1828 35.5527 11.0556 35.6464 10.9619C35.7402 10.8681 35.8674 10.8154 36 10.8154H39C39.1326 10.8154 39.2598 10.8681 39.3536 10.9619C39.4473 11.0556 39.5 11.1828 39.5 11.3154V20.3154C39.5 20.5924 39.277 20.8154 39 20.8154ZM36.5 19.8154H38.5V11.8154H36.5V19.8154Z" fill="#161B36"/>
<path d="M46 12.3154H56V20.3154H46V12.3154Z" fill="#4DB6AC"/>
<path d="M56 20.8154H46C45.8674 20.8154 45.7402 20.7628 45.6464 20.669C45.5527 20.5752 45.5 20.448 45.5 20.3154V12.3154C45.5 12.1828 45.5527 12.0556 45.6464 11.9619C45.7402 11.8681 45.8674 11.8154 46 11.8154H56C56.1326 11.8154 56.2598 11.8681 56.3536 11.9619C56.4473 12.0556 56.5 12.1828 56.5 12.3154V20.3154C56.5 20.448 56.4473 20.5752 56.3536 20.669C56.2598 20.7628 56.1326 20.8154 56 20.8154ZM46.5 19.8154H55.5V12.8154H46.5V19.8154Z" fill="#161B36"/>
<path d="M27 4.81543H62V7.81543H27V4.81543Z" fill="#40C4FF"/>
<path d="M62 8.31543H27C26.8674 8.31543 26.7402 8.26275 26.6464 8.16898C26.5527 8.07521 26.5 7.94804 26.5 7.81543V4.81543C26.5 4.68282 26.5527 4.55564 26.6464 4.46188C26.7402 4.36811 26.8674 4.31543 27 4.31543H62C62.1326 4.31543 62.2598 4.36811 62.3536 4.46188C62.4473 4.55564 62.5 4.68282 62.5 4.81543V7.81543C62.5 7.94804 62.4473 8.07521 62.3536 8.16898C62.2598 8.26275 62.1326 8.31543 62 8.31543ZM27.5 7.31543H61.5V5.31543H27.5V7.31543Z" fill="#161B36"/>
<path d="M47.75 17.8149C47.6465 17.8146 47.5456 17.7823 47.4612 17.7223C47.3768 17.6623 47.3131 17.5777 47.2788 17.48C47.2445 17.3823 47.2413 17.2764 47.2696 17.1768C47.2979 17.0773 47.3564 16.9889 47.437 16.9239L49.937 14.9239C49.9892 14.8818 50.0493 14.8506 50.1138 14.8323C50.1784 14.814 50.2459 14.809 50.3124 14.8175C50.3789 14.826 50.4431 14.8479 50.5009 14.8818C50.5588 14.9157 50.6091 14.961 50.649 15.0149L51.839 16.6019L53.936 14.9239C54.0403 14.85 54.1689 14.8188 54.2954 14.8366C54.422 14.8544 54.537 14.9199 54.6169 15.0197C54.6967 15.1195 54.7354 15.246 54.725 15.3734C54.7146 15.5008 54.656 15.6194 54.561 15.7049L52.061 17.7049C52.0091 17.7473 51.949 17.7785 51.8845 17.7966C51.8199 17.8146 51.7524 17.8192 51.686 17.8099C51.6196 17.8012 51.5557 17.7794 51.4978 17.7458C51.44 17.7121 51.3894 17.6673 51.349 17.6139L50.159 16.0269L48.062 17.7049C47.9737 17.7762 47.8635 17.8151 47.75 17.8149Z" fill="#161B36"/>
</svg>
