<svg width="64" height="64" viewBox="0 0 64 64" fill="none" xmlns="http://www.w3.org/2000/svg">
<path d="M32 40.9961C27.313 40.9961 23.5 37.1831 23.5 32.4961C23.5 27.8091 27.313 23.9961 32 23.9961C36.687 23.9961 40.5 27.8091 40.5 32.4961C40.5 37.1831 36.687 40.9961 32 40.9961ZM32 24.9961C27.864 24.9961 24.5 28.3601 24.5 32.4961C24.5 36.6321 27.864 39.9961 32 39.9961C36.136 39.9961 39.5 36.6321 39.5 32.4961C39.5 28.3601 36.136 24.9961 32 24.9961Z" fill="#161B36"/>
<path d="M37.547 27.8702L38.143 27.3742C37.0902 26.1123 35.6743 25.2051 34.0878 24.7762C32.5012 24.3474 30.8211 24.4175 29.2759 24.9771C27.7306 25.5367 26.3952 26.5587 25.4513 27.904C24.5073 29.2494 24.0006 30.8528 24 32.4962H24.755C29.4284 32.4958 33.9542 30.8591 37.547 27.8702Z" fill="#34AD82"/>
<path d="M24.755 32.9961H24C23.8674 32.9961 23.7402 32.9434 23.6464 32.8496C23.5527 32.7559 23.5 32.6287 23.5 32.4961C23.5 27.8091 27.313 23.9961 32 23.9961C33.2458 23.9951 34.4765 24.2686 35.6046 24.7971C36.7327 25.3256 37.7305 26.0962 38.527 27.0541C38.5692 27.1046 38.6009 27.1628 38.6206 27.2256C38.6402 27.2884 38.6472 27.3544 38.6412 27.4199C38.6353 27.4854 38.6165 27.549 38.5859 27.6072C38.5553 27.6654 38.5136 27.7171 38.463 27.7591L37.867 28.2551C34.1827 31.3157 29.5447 32.9927 24.755 32.9961ZM24.517 31.9961H24.756C29.312 31.9927 33.7236 30.3975 37.228 27.4861L37.427 27.3201C36.7275 26.5849 35.8858 25.9998 34.9529 25.6002C34.0201 25.2007 33.0158 24.9952 32.001 24.9961C28.033 24.9961 24.775 28.0921 24.517 31.9961ZM32.004 46.4631C31.922 46.4631 31.8413 46.443 31.7689 46.4044C31.6965 46.3659 31.6348 46.3101 31.589 46.2421L28.586 41.7801C28.5309 41.6975 28.5013 41.6004 28.501 41.5011L28.5 39.9061C28.4998 39.824 28.5199 39.7431 28.5584 39.6706C28.5968 39.5981 28.6526 39.5361 28.7207 39.4903C28.7888 39.4444 28.8672 39.416 28.9488 39.4076C29.0305 39.3992 29.113 39.4111 29.189 39.4421C30.9921 40.1745 33.0094 40.1767 34.814 39.4481C34.8898 39.4173 34.9721 39.4055 35.0535 39.414C35.1349 39.4224 35.213 39.4508 35.2809 39.4965C35.3488 39.5423 35.4043 39.604 35.4427 39.6763C35.4811 39.7486 35.5011 39.8292 35.501 39.9111L35.5 41.4901C35.5 41.5901 35.471 41.6861 35.416 41.7691L32.419 46.2421C32.3733 46.3102 32.3115 46.366 32.2392 46.4045C32.1668 46.4431 32.086 46.4632 32.004 46.4631ZM29.5 41.3481L32.002 45.0661L34.5 41.3381V40.6191C32.8706 41.1195 31.1284 41.1177 29.5 40.6141V41.3481ZM39 59.0001C38.8674 59.0001 38.7402 58.9474 38.6464 58.8536C38.5527 58.7599 38.5 58.6327 38.5 58.5001V51.5001C38.5 51.3675 38.5527 51.2403 38.6464 51.1465C38.7402 51.0528 38.8674 51.0001 39 51.0001C39.1326 51.0001 39.2598 51.0528 39.3536 51.1465C39.4473 51.2403 39.5 51.3675 39.5 51.5001V58.5001C39.5 58.6327 39.4473 58.7599 39.3536 58.8536C39.2598 58.9474 39.1326 59.0001 39 59.0001ZM25 59.0001C24.8674 59.0001 24.7402 58.9474 24.6464 58.8536C24.5527 58.7599 24.5 58.6327 24.5 58.5001V51.5001C24.5 51.3675 24.5527 51.2403 24.6464 51.1465C24.7402 51.0528 24.8674 51.0001 25 51.0001C25.1326 51.0001 25.2598 51.0528 25.3536 51.1465C25.4473 51.2403 25.5 51.3675 25.5 51.5001V58.5001C25.5 58.6327 25.4473 58.7599 25.3536 58.8536C25.2598 58.9474 25.1326 59.0001 25 59.0001Z" fill="#161B36"/>
<path d="M34.5 57.9999L32.01 60.4999L29.5 57.9999L31 45.9639H33L34.5 57.9999Z" fill="#40C4FF"/>
<path d="M32.0098 60.9999C31.9443 61.0001 31.8793 60.9872 31.8187 60.9622C31.7581 60.9371 31.7031 60.9003 31.6568 60.8539L29.1468 58.3539C29.0929 58.2998 29.052 58.2342 29.0272 58.1619C29.0024 58.0897 28.9944 58.0127 29.0038 57.9369L30.5038 45.8999C30.5189 45.779 30.5777 45.6678 30.669 45.5871C30.7603 45.5065 30.878 45.4619 30.9998 45.4619H32.9998C33.1217 45.4619 33.2393 45.5065 33.3306 45.5871C33.422 45.6678 33.4807 45.779 33.4958 45.8999L34.9958 57.9369C35.0052 58.0123 34.9974 58.0889 34.9728 58.1608C34.9481 58.2327 34.9075 58.2981 34.8538 58.3519L32.3638 60.8519C32.3176 60.8989 32.2625 60.9361 32.2017 60.9615C32.1409 60.9869 32.0757 61 32.0098 60.9999ZM30.0258 57.8189L32.0078 59.7929L33.9728 57.8199L32.5578 46.4629H31.4408L30.0258 57.8189Z" fill="#161B36"/>
<path d="M32.0039 46.4626H28.4999C28.4295 46.4625 28.36 46.4475 28.2957 46.4187C28.2315 46.3899 28.174 46.348 28.1271 46.2955C28.0801 46.2431 28.0447 46.1814 28.0232 46.1144C28.0016 46.0474 27.9944 45.9766 28.0019 45.9066L28.5019 41.4446C28.5133 41.3429 28.5557 41.247 28.6234 41.1701C28.691 41.0932 28.7806 41.039 28.8801 41.0146C28.9795 40.9903 29.0841 40.9971 29.1796 41.0341C29.275 41.0712 29.3569 41.1366 29.4139 41.2216L32.0019 45.0666L34.5829 41.2136C34.64 41.1286 34.7217 41.0632 34.8171 41.0261C34.9125 40.9891 35.017 40.9822 35.1164 41.0064C35.2158 41.0306 35.3055 41.0847 35.3732 41.1615C35.4409 41.2382 35.4834 41.3339 35.4949 41.4356L35.9949 45.9076C36.0028 45.9777 35.9958 46.0486 35.9744 46.1157C35.9529 46.1829 35.9176 46.2447 35.8705 46.2972C35.8235 46.3497 35.7659 46.3917 35.7015 46.4204C35.6371 46.449 35.5674 46.4638 35.4969 46.4636L32.0039 46.4626ZM32.9409 45.4626H34.9409L34.6549 42.9036L32.9409 45.4626ZM29.0589 45.4626H31.0639L29.3449 42.9086L29.0589 45.4626Z" fill="#161B36"/>
<path d="M44 59.0005C43.8674 59.0005 43.7402 58.9478 43.6464 58.854C43.5527 58.7603 43.5 58.6331 43.5 58.5005V48.7475C43.4996 47.8777 43.2473 47.0266 42.7737 46.2971C42.3 45.5676 41.6253 44.9908 40.831 44.6365L35.182 42.1195L32.42 46.2425C32.3743 46.3106 32.3126 46.3664 32.2403 46.4051C32.168 46.4437 32.0873 46.464 32.0053 46.4641C31.9233 46.4642 31.8425 46.4441 31.7701 46.4057C31.6977 46.3672 31.6358 46.3115 31.59 46.2435L28.821 42.1295L23.174 44.6385C22.3786 44.9921 21.7028 45.5687 21.2284 46.2985C20.754 47.0283 20.5013 47.88 20.501 48.7505V58.5005C20.501 58.6331 20.4483 58.7603 20.3546 58.854C20.2608 58.9478 20.1336 59.0005 20.001 59.0005C19.8684 59.0005 19.7412 58.9478 19.6474 58.854C19.5537 58.7603 19.501 58.6331 19.501 58.5005V48.7505C19.5013 47.6865 19.8101 46.6455 20.3899 45.7535C20.9698 44.8614 21.7958 44.1567 22.768 43.7245L28.799 41.0445C28.9065 40.9969 29.0274 40.9887 29.1403 41.0212C29.2533 41.0538 29.3512 41.125 29.417 41.2225L32.004 45.0675L34.586 41.2135C34.6517 41.1156 34.7498 41.0441 34.863 41.0115C34.9763 40.979 35.0974 40.9874 35.205 41.0355L41.239 43.7235C42.2097 44.1566 43.0343 44.8614 43.6131 45.753C44.192 46.6445 44.5004 47.6845 44.501 48.7475V58.5005C44.5005 58.6331 44.4475 58.7601 44.3536 58.8538C44.2597 58.9475 44.1326 59.0002 44 59.0005ZM13 34.8135C8.313 34.8135 4.5 31.0005 4.5 26.3135C4.5 21.6265 8.313 17.8135 13 17.8135C17.687 17.8135 21.5 21.6265 21.5 26.3135C21.5 31.0005 17.687 34.8135 13 34.8135ZM13 18.8135C8.864 18.8135 5.5 22.1775 5.5 26.3135C5.5 30.4495 8.864 33.8135 13 33.8135C17.136 33.8135 20.5 30.4495 20.5 26.3135C20.5 22.1775 17.136 18.8135 13 18.8135Z" fill="#161B36"/>
<path d="M18.547 21.6876L19.143 21.1916C18.0902 19.9296 16.6743 19.0225 15.0878 18.5936C13.5012 18.1647 11.8211 18.2349 10.2759 18.7945C8.73063 19.3541 7.39523 20.3761 6.45126 21.7214C5.5073 23.0667 5.00057 24.6701 5 26.3136H5.755C10.429 26.3136 14.955 24.6766 18.547 21.6876Z" fill="#34AD82"/>
<path d="M5.755 26.8135H5C4.86739 26.8135 4.74021 26.7608 4.64645 26.667C4.55268 26.5733 4.5 26.4461 4.5 26.3135C4.5 21.6265 8.313 17.8135 13 17.8135C14.2457 17.8127 15.4764 18.0863 16.6044 18.6148C17.7325 19.1433 18.7303 19.9138 19.527 20.8715C19.5692 20.9219 19.6009 20.9802 19.6206 21.043C19.6402 21.1058 19.6472 21.1718 19.6412 21.2373C19.6353 21.3027 19.6165 21.3664 19.5859 21.4246C19.5553 21.4828 19.5136 21.5344 19.463 21.5765L18.867 22.0725C15.1829 25.1335 10.5448 26.8105 5.755 26.8135ZM5.517 25.8135H5.756C10.303 25.8135 14.732 24.2115 18.228 21.3035L18.426 21.1385C17.7266 20.4031 16.8849 19.8178 15.9521 19.4181C15.0192 19.0184 14.0148 18.8127 13 18.8135C9.033 18.8135 5.775 21.9105 5.517 25.8135ZM13.004 40.2825C12.922 40.2825 12.8413 40.2623 12.7689 40.2238C12.6965 40.1853 12.6348 40.1295 12.589 40.0615L9.586 35.5985C9.52999 35.5162 9.50003 35.419 9.5 35.3195V33.7245C9.49982 33.6424 9.51986 33.5615 9.55835 33.489C9.59685 33.4164 9.65261 33.3545 9.72071 33.3087C9.78881 33.2628 9.86716 33.2344 9.94883 33.226C10.0305 33.2176 10.113 33.2294 10.189 33.2605C11.9916 33.9933 14.0086 33.9958 15.813 33.2675C15.8889 33.2362 15.9713 33.2241 16.0529 33.2323C16.1346 33.2405 16.213 33.2688 16.281 33.3146C16.3491 33.3605 16.4048 33.4224 16.4432 33.495C16.4816 33.5675 16.5014 33.6484 16.501 33.7305L16.502 35.3095C16.502 35.4095 16.473 35.5055 16.418 35.5885L13.421 40.0615C13.3746 40.1294 13.3124 40.185 13.2398 40.2235C13.1671 40.262 13.0862 40.2822 13.004 40.2825ZM10.5 35.1665L13.002 38.8855L15.5 35.1575V34.4385C13.8706 34.9389 12.1284 34.9371 10.5 34.4335V35.1665ZM6 52.8185C5.86739 52.8185 5.74021 52.7658 5.64645 52.672C5.55268 52.5783 5.5 52.4511 5.5 52.3185V45.3185C5.5 45.1859 5.55268 45.0587 5.64645 44.9649C5.74021 44.8712 5.86739 44.8185 6 44.8185C6.13261 44.8185 6.25979 44.8712 6.35355 44.9649C6.44732 45.0587 6.5 45.1859 6.5 45.3185V52.3185C6.5 52.4511 6.44732 52.5783 6.35355 52.672C6.25979 52.7658 6.13261 52.8185 6 52.8185Z" fill="#161B36"/>
<path d="M13.0039 40.2822H9.49994C9.42955 40.282 9.35998 40.2671 9.29575 40.2383C9.23151 40.2095 9.17405 40.1675 9.12709 40.1151C9.08013 40.0627 9.04472 40.0009 9.02315 39.9339C9.00159 39.8669 8.99436 39.7961 9.00194 39.7262L9.50194 35.2632C9.51335 35.1614 9.55573 35.0656 9.62336 34.9887C9.69098 34.9118 9.78059 34.8575 9.88006 34.8332C9.97954 34.8089 10.0841 34.8157 10.1796 34.8527C10.275 34.8897 10.3569 34.9551 10.4139 35.0402L13.0019 38.8852L15.5829 35.0312C15.6403 34.9467 15.722 34.8817 15.8173 34.845C15.9126 34.8083 16.0168 34.8016 16.116 34.8257C16.2152 34.8499 16.3046 34.9038 16.3723 34.9801C16.4401 35.0565 16.4828 35.1518 16.4949 35.2532L16.9949 39.7252C17.0028 39.7952 16.9958 39.8661 16.9744 39.9333C16.9529 40.0004 16.9176 40.0622 16.8705 40.1148C16.8235 40.1673 16.7659 40.2092 16.7015 40.2379C16.6371 40.2666 16.5674 40.2813 16.4969 40.2812H13.0039V40.2822ZM13.9399 39.2822H15.9399L15.6539 36.7232L13.9399 39.2822ZM10.0589 39.2822H12.0639L10.3449 36.7282L10.0589 39.2822Z" fill="#161B36"/>
<path d="M1 52.8185C0.867392 52.8185 0.740215 52.7658 0.646447 52.672C0.552678 52.5783 0.5 52.4511 0.5 52.3185V42.5685C0.500686 41.5046 0.809612 40.4638 1.38941 39.5718C1.96921 38.6798 2.79503 37.975 3.767 37.5425L9.798 34.8625C9.90552 34.8149 10.0264 34.8067 10.1393 34.8392C10.2523 34.8718 10.3502 34.943 10.416 35.0405L13.003 38.8855L15.585 35.0315C15.6509 34.9339 15.749 34.8627 15.8622 34.8301C15.9753 34.7976 16.0963 34.8058 16.204 34.8535L22.238 37.5415C22.9698 37.8674 23.6214 38.3495 24.1471 38.9539C24.6727 39.5584 25.0598 40.2706 25.281 41.0405C25.2992 41.1036 25.3048 41.1696 25.2974 41.2349C25.2901 41.3002 25.27 41.3633 25.2382 41.4208C25.2064 41.4783 25.1637 41.5289 25.1123 41.5699C25.061 41.6109 25.0021 41.6413 24.939 41.6595C24.8759 41.6777 24.8098 41.6832 24.7446 41.6759C24.6793 41.6686 24.6161 41.6484 24.5587 41.6167C24.5012 41.5849 24.4505 41.5422 24.4096 41.4908C24.3686 41.4395 24.3382 41.3806 24.32 41.3175C24.1391 40.6876 23.8225 40.1049 23.3926 39.6103C22.9626 39.1157 22.4296 38.7212 21.831 38.4545L16.182 35.9375L13.42 40.0605C13.3743 40.1286 13.3126 40.1844 13.2403 40.2231C13.168 40.2617 13.0873 40.282 13.0053 40.2821C12.9233 40.2822 12.8425 40.2621 12.7701 40.2237C12.6977 40.1852 12.6358 40.1295 12.59 40.0615L9.82 35.9465L4.173 38.4555C3.37777 38.8096 2.70214 39.3865 2.22778 40.1164C1.75342 40.8463 1.50064 41.698 1.5 42.5685V52.3185C1.5 52.4511 1.44732 52.5783 1.35355 52.672C1.25979 52.7658 1.13261 52.8185 1 52.8185ZM51 34.8135C46.313 34.8135 42.5 31.0005 42.5 26.3135C42.5 21.6265 46.313 17.8135 51 17.8135C55.687 17.8135 59.5 21.6265 59.5 26.3135C59.5 31.0005 55.687 34.8135 51 34.8135ZM51 18.8135C46.864 18.8135 43.5 22.1775 43.5 26.3135C43.5 30.4495 46.864 33.8135 51 33.8135C55.136 33.8135 58.5 30.4495 58.5 26.3135C58.5 22.1775 55.136 18.8135 51 18.8135Z" fill="#161B36"/>
<path d="M56.547 21.6876L57.143 21.1916C56.0902 19.9296 54.6743 19.0225 53.0878 18.5936C51.5012 18.1647 49.8211 18.2349 48.2759 18.7945C46.7306 19.3541 45.3952 20.3761 44.4513 21.7214C43.5073 23.0667 43.0006 24.6701 43 26.3136H43.755C48.429 26.3136 52.955 24.6766 56.547 21.6876Z" fill="#34AD82"/>
<path d="M43.755 26.8135H43C42.8674 26.8135 42.7402 26.7608 42.6464 26.667C42.5527 26.5733 42.5 26.4461 42.5 26.3135C42.5 21.6265 46.313 17.8135 51 17.8135C52.2457 17.8127 53.4764 18.0863 54.6044 18.6148C55.7325 19.1433 56.7303 19.9138 57.527 20.8715C57.5692 20.9219 57.6009 20.9802 57.6206 21.043C57.6402 21.1058 57.6472 21.1718 57.6412 21.2373C57.6353 21.3027 57.6165 21.3664 57.5859 21.4246C57.5553 21.4828 57.5136 21.5344 57.463 21.5765L56.867 22.0725C53.1829 25.1335 48.5448 26.8105 43.755 26.8135ZM43.517 25.8135H43.756C48.303 25.8135 52.732 24.2115 56.228 21.3035L56.426 21.1385C55.7266 20.4031 54.8849 19.8178 53.9521 19.4181C53.0192 19.0184 52.0148 18.8127 51 18.8135C47.033 18.8135 43.775 21.9105 43.517 25.8135ZM50.996 40.2825C50.9137 40.2825 50.8327 40.2623 50.7602 40.2236C50.6876 40.1849 50.6257 40.1288 50.58 40.0605L47.583 35.5875C47.528 35.5048 47.4988 35.4077 47.499 35.3085L47.5 33.7295C47.5001 33.6476 47.5202 33.567 47.5587 33.4947C47.5972 33.4224 47.6529 33.3607 47.7208 33.315C47.7888 33.2693 47.8669 33.2409 47.9484 33.2325C48.0298 33.224 48.1121 33.2357 48.188 33.2665C49.9924 33.9948 52.0094 33.9923 53.812 33.2595C53.888 33.229 53.9704 33.2175 54.0519 33.2261C54.1333 33.2348 54.2115 33.2632 54.2794 33.309C54.3474 33.3547 54.4031 33.4164 54.4417 33.4887C54.4803 33.5609 54.5007 33.6415 54.501 33.7235L54.5 35.3195C54.5 35.4185 54.47 35.5155 54.415 35.5985L51.412 40.0615C51.366 40.1295 51.304 40.1852 51.2315 40.2237C51.159 40.2622 51.0781 40.2824 50.996 40.2825ZM48.5 35.1575L50.998 38.8855L53.5 35.1665V34.4335C51.8716 34.9366 50.1294 34.9384 48.5 34.4385V35.1575ZM58 52.8185C57.8674 52.8185 57.7402 52.7658 57.6464 52.672C57.5527 52.5783 57.5 52.4511 57.5 52.3185V45.3185C57.5 45.1859 57.5527 45.0587 57.6464 44.9649C57.7402 44.8712 57.8674 44.8185 58 44.8185C58.1326 44.8185 58.2598 44.8712 58.3536 44.9649C58.4473 45.0587 58.5 45.1859 58.5 45.3185V52.3185C58.5 52.4511 58.4473 52.5783 58.3536 52.672C58.2598 52.7658 58.1326 52.8185 58 52.8185Z" fill="#161B36"/>
<path d="M50.9959 40.2821H47.4999C47.4295 40.282 47.36 40.267 47.2957 40.2382C47.2315 40.2095 47.1741 40.1675 47.1271 40.1151C47.0801 40.0626 47.0447 40.0009 47.0232 39.9339C47.0016 39.8669 46.9944 39.7961 47.0019 39.7261L47.5019 35.2541C47.514 35.1528 47.5568 35.0575 47.6245 34.9811C47.6923 34.9047 47.7817 34.8509 47.8809 34.8267C47.9801 34.8026 48.0843 34.8093 48.1796 34.846C48.2748 34.8827 48.3566 34.9477 48.4139 35.0321L50.9949 38.8861L53.5829 35.0411C53.6403 34.9566 53.7222 34.8917 53.8175 34.855C53.9129 34.8184 54.0171 34.8117 54.1164 34.836C54.2156 34.8602 54.305 34.9143 54.3727 34.9908C54.4404 35.0673 54.483 35.1627 54.4949 35.2641L54.9949 39.7271C55.0028 39.7972 54.9958 39.8681 54.9744 39.9352C54.9529 40.0024 54.9176 40.0642 54.8705 40.1167C54.8235 40.1692 54.7659 40.2112 54.7015 40.2399C54.6371 40.2686 54.5674 40.2833 54.4969 40.2831L50.9959 40.2821ZM51.9359 39.2821H53.9409L53.6549 36.7281L51.9359 39.2821ZM48.0589 39.2821H50.0589L48.3449 36.7231L48.0589 39.2821Z" fill="#161B36"/>
<path d="M63 52.8184C62.8674 52.8184 62.7402 52.7658 62.6464 52.672C62.5527 52.5782 62.5 52.451 62.5 52.3184V42.5684C62.4995 41.698 62.2468 40.8464 61.7724 40.1166C61.298 39.3868 60.6223 38.8102 59.827 38.4564L54.18 35.9474L51.411 40.0624C51.3655 40.1309 51.3038 40.187 51.2313 40.2257C51.1588 40.2645 51.0779 40.2848 50.9957 40.2847C50.9136 40.2846 50.8327 40.2641 50.7603 40.2252C50.6879 40.1862 50.6263 40.13 50.581 40.0614L47.819 35.9384L42.17 38.4554C41.5714 38.7222 41.0384 39.1167 40.6084 39.6113C40.1785 40.1059 39.8619 40.6885 39.681 41.3184C39.6443 41.4459 39.5584 41.5535 39.4423 41.6176C39.3262 41.6818 39.1894 41.6972 39.062 41.6604C38.9346 41.6237 38.8269 41.5378 38.7628 41.4218C38.6987 41.3057 38.6833 41.1689 38.72 41.0414C38.9412 40.2715 39.3283 39.5593 39.8539 38.9549C40.3796 38.3504 41.0312 37.8683 41.763 37.5424L47.797 34.8544C47.9047 34.8068 48.0257 34.7985 48.1388 34.8311C48.252 34.8636 48.3501 34.9349 48.416 35.0324L50.998 38.8864L53.585 35.0414C53.6511 34.9444 53.7491 34.8735 53.8619 34.8411C53.9747 34.8086 54.0954 34.8165 54.203 34.8634L60.234 37.5434C61.2059 37.976 62.0316 38.6809 62.6114 39.5729C63.1912 40.4648 63.5002 41.5056 63.501 42.5694V52.3194C63.5009 52.3851 63.4878 52.4501 63.4626 52.5107C63.4373 52.5713 63.4004 52.6264 63.3538 52.6727C63.3073 52.719 63.2521 52.7558 63.1914 52.7808C63.1307 52.8058 63.0657 52.8186 63 52.8184ZM14 59.0004H4C3.86739 59.0004 3.74021 58.9478 3.64645 58.854C3.55268 58.7602 3.5 58.633 3.5 58.5004C3.5 58.3678 3.55268 58.2406 3.64645 58.1469C3.74021 58.0531 3.86739 58.0004 4 58.0004H14C14.1326 58.0004 14.2598 58.0531 14.3536 58.1469C14.4473 58.2406 14.5 58.3678 14.5 58.5004C14.5 58.633 14.4473 58.7602 14.3536 58.854C14.2598 58.9478 14.1326 59.0004 14 59.0004ZM2 59.0004H1C0.867392 59.0004 0.740215 58.9478 0.646447 58.854C0.552678 58.7602 0.5 58.633 0.5 58.5004C0.5 58.3678 0.552678 58.2406 0.646447 58.1469C0.740215 58.0531 0.867392 58.0004 1 58.0004H2C2.13261 58.0004 2.25979 58.0531 2.35355 58.1469C2.44732 58.2406 2.5 58.3678 2.5 58.5004C2.5 58.633 2.44732 58.7602 2.35355 58.854C2.25979 58.9478 2.13261 59.0004 2 59.0004ZM60 59.0004H50C49.8674 59.0004 49.7402 58.9478 49.6464 58.854C49.5527 58.7602 49.5 58.633 49.5 58.5004C49.5 58.3678 49.5527 58.2406 49.6464 58.1469C49.7402 58.0531 49.8674 58.0004 50 58.0004H60C60.1326 58.0004 60.2598 58.0531 60.3536 58.1469C60.4473 58.2406 60.5 58.3678 60.5 58.5004C60.5 58.633 60.4473 58.7602 60.3536 58.854C60.2598 58.9478 60.1326 59.0004 60 59.0004ZM63 59.0004H62C61.8674 59.0004 61.7402 58.9478 61.6464 58.854C61.5527 58.7602 61.5 58.633 61.5 58.5004C61.5 58.3678 61.5527 58.2406 61.6464 58.1469C61.7402 58.0531 61.8674 58.0004 62 58.0004H63C63.1326 58.0004 63.2598 58.0531 63.3536 58.1469C63.4473 58.2406 63.5 58.3678 63.5 58.5004C63.5 58.633 63.4473 58.7602 63.3536 58.854C63.2598 58.9478 63.1326 59.0004 63 59.0004Z" fill="#161B36"/>
<path d="M30.75 11H26.75C26.6174 11 26.4902 10.9473 26.3964 10.8536C26.3027 10.7598 26.25 10.6326 26.25 10.5C26.25 10.3674 26.3027 10.2402 26.3964 10.1464C26.4902 10.0527 26.6174 10 26.75 10H30.75C30.8826 10 31.0098 10.0527 31.1036 10.1464C31.1973 10.2402 31.25 10.3674 31.25 10.5C31.25 10.6326 31.1973 10.7598 31.1036 10.8536C31.0098 10.9473 30.8826 11 30.75 11Z" fill="#161B36"/>
<path d="M37.25 6H33.25C33.1174 6 32.9902 5.94732 32.8964 5.85355C32.8027 5.75979 32.75 5.63261 32.75 5.5C32.75 5.36739 32.8027 5.24021 32.8964 5.14645C32.9902 5.05268 33.1174 5 33.25 5H37.25C37.3826 5 37.5098 5.05268 37.6036 5.14645C37.6973 5.24021 37.75 5.36739 37.75 5.5C37.75 5.63261 37.6973 5.75979 37.6036 5.85355C37.5098 5.94732 37.3826 6 37.25 6Z" fill="#161B36"/>
<path d="M35.25 8C35.1174 8 34.9902 7.94732 34.8964 7.85355C34.8027 7.75979 34.75 7.63261 34.75 7.5V3.5C34.75 3.36739 34.8027 3.24021 34.8964 3.14645C34.9902 3.05268 35.1174 3 35.25 3C35.3826 3 35.5098 3.05268 35.6036 3.14645C35.6973 3.24021 35.75 3.36739 35.75 3.5V7.5C35.75 7.63261 35.6973 7.75979 35.6036 7.85355C35.5098 7.94732 35.3826 8 35.25 8Z" fill="#161B36"/>
<path d="M28.75 13C28.6174 13 28.4902 12.9473 28.3964 12.8536C28.3027 12.7598 28.25 12.6326 28.25 12.5V8.5C28.25 8.36739 28.3027 8.24021 28.3964 8.14645C28.4902 8.05268 28.6174 8 28.75 8C28.8826 8 29.0098 8.05268 29.1036 8.14645C29.1973 8.24021 29.25 8.36739 29.25 8.5V12.5C29.25 12.6326 29.1973 12.7598 29.1036 12.8536C29.0098 12.9473 28.8826 13 28.75 13Z" fill="#161B36"/>
</svg>
