<svg width="64" height="64" viewBox="0 0 64 64" fill="none" xmlns="http://www.w3.org/2000/svg">
<path d="M53.4878 22.5C57.9061 22.5 61.4878 18.9183 61.4878 14.5C61.4878 10.0817 57.9061 6.5 53.4878 6.5C49.0695 6.5 45.4878 10.0817 45.4878 14.5C45.4878 18.9183 49.0695 22.5 53.4878 22.5Z" fill="#F76161"/>
<path d="M53.4878 23C48.8008 23 44.9878 19.187 44.9878 14.5C44.9878 9.813 48.8008 6 53.4878 6C58.1748 6 61.9878 9.813 61.9878 14.5C61.9878 19.187 58.1748 23 53.4878 23ZM53.4878 7C49.3518 7 45.9878 10.364 45.9878 14.5C45.9878 18.636 49.3518 22 53.4878 22C57.6238 22 60.9878 18.636 60.9878 14.5C60.9878 10.364 57.6238 7 53.4878 7Z" fill="#161B36"/>
<path d="M53.5 15.833C53.3674 15.833 53.2402 15.7803 53.1464 15.6866C53.0527 15.5928 53 15.4656 53 15.333V10C53 9.86739 53.0527 9.74021 53.1464 9.64645C53.2402 9.55268 53.3674 9.5 53.5 9.5C53.6326 9.5 53.7598 9.55268 53.8536 9.64645C53.9473 9.74021 54 9.86739 54 10V14.266L56.18 12.449C56.282 12.364 56.4135 12.323 56.5458 12.335C56.678 12.347 56.8 12.411 56.885 12.513C56.97 12.615 57.011 12.7465 56.999 12.8788C56.987 13.011 56.923 13.133 56.821 13.218L53.821 15.718C53.7306 15.7925 53.6171 15.8331 53.5 15.833ZM13.5 5H8.5C8.36739 5 8.24021 4.94732 8.14645 4.85355C8.05268 4.75979 8 4.63261 8 4.5C8 4.36739 8.05268 4.24021 8.14645 4.14645C8.24021 4.05268 8.36739 4 8.5 4H13.5C13.6326 4 13.7598 4.05268 13.8536 4.14645C13.9473 4.24021 14 4.36739 14 4.5C14 4.63261 13.9473 4.75979 13.8536 4.85355C13.7598 4.94732 13.6326 5 13.5 5ZM6.5 5H5.5C5.36739 5 5.24021 4.94732 5.14645 4.85355C5.05268 4.75979 5 4.63261 5 4.5C5 4.36739 5.05268 4.24021 5.14645 4.14645C5.24021 4.05268 5.36739 4 5.5 4H6.5C6.63261 4 6.75979 4.05268 6.85355 4.14645C6.94732 4.24021 7 4.36739 7 4.5C7 4.63261 6.94732 4.75979 6.85355 4.85355C6.75979 4.94732 6.63261 5 6.5 5ZM55.5 60H50.5C50.3674 60 50.2402 59.9473 50.1464 59.8536C50.0527 59.7598 50 59.6326 50 59.5C50 59.3674 50.0527 59.2402 50.1464 59.1464C50.2402 59.0527 50.3674 59 50.5 59H55.5C55.6326 59 55.7598 59.0527 55.8536 59.1464C55.9473 59.2402 56 59.3674 56 59.5C56 59.6326 55.9473 59.7598 55.8536 59.8536C55.7598 59.9473 55.6326 60 55.5 60ZM58.5 60H57.5C57.3674 60 57.2402 59.9473 57.1464 59.8536C57.0527 59.7598 57 59.6326 57 59.5C57 59.3674 57.0527 59.2402 57.1464 59.1464C57.2402 59.0527 57.3674 59 57.5 59H58.5C58.6326 59 58.7598 59.0527 58.8536 59.1464C58.9473 59.2402 59 59.3674 59 59.5C59 59.6326 58.9473 59.7598 58.8536 59.8536C58.7598 59.9473 58.6326 60 58.5 60ZM8.675 38.153C8.56293 38.1527 8.4542 38.1149 8.36624 38.0454C8.27829 37.9759 8.21622 37.879 8.19 37.77C7.73274 35.8807 7.50112 33.9438 7.5 32C7.5 18.491 18.491 7.5 32 7.5C35.663 7.5 39.19 8.292 42.483 9.854C42.5423 9.88217 42.5955 9.92174 42.6395 9.97045C42.6835 10.0192 42.7174 10.0761 42.7394 10.1379C42.7614 10.1998 42.771 10.2653 42.7677 10.3309C42.7644 10.3964 42.7482 10.4607 42.72 10.52C42.6918 10.5793 42.6523 10.6325 42.6035 10.6765C42.5548 10.7205 42.4979 10.7544 42.4361 10.7764C42.3742 10.7984 42.3087 10.8081 42.2431 10.8047C42.1776 10.8014 42.1133 10.7852 42.054 10.757C38.9134 9.26302 35.4779 8.49179 32 8.5C19.042 8.5 8.5 19.042 8.5 32C8.5 33.855 8.723 35.718 9.162 37.536C9.17991 37.6096 9.18084 37.6863 9.16469 37.7603C9.14855 37.8343 9.11578 37.9037 9.06884 37.9632C9.02191 38.0226 8.96206 38.0706 8.89382 38.1035C8.82558 38.1364 8.75075 38.1533 8.675 38.153ZM32 56.5C28.337 56.5 24.81 55.708 21.517 54.146C21.4577 54.1178 21.4045 54.0783 21.3605 54.0295C21.3165 53.9808 21.2826 53.9239 21.2606 53.8621C21.2386 53.8002 21.2289 53.7347 21.2323 53.6691C21.2356 53.6036 21.2518 53.5393 21.28 53.48C21.3082 53.4207 21.3477 53.3675 21.3965 53.3235C21.4452 53.2795 21.5021 53.2456 21.5639 53.2236C21.6258 53.2016 21.6913 53.1919 21.7569 53.1953C21.8224 53.1986 21.8867 53.2148 21.946 53.243C25.0866 54.737 28.5221 55.5082 32 55.5C44.958 55.5 55.5 44.958 55.5 32C55.5 30.145 55.277 28.283 54.838 26.464C54.8226 26.4002 54.82 26.334 54.8302 26.2691C54.8404 26.2043 54.8633 26.1421 54.8976 26.0861C54.9319 26.0301 54.9768 25.9814 55.0299 25.9428C55.083 25.9041 55.1432 25.8764 55.207 25.861C55.2708 25.8456 55.337 25.843 55.4019 25.8532C55.4667 25.8634 55.5289 25.8863 55.5849 25.9206C55.6409 25.9549 55.6896 25.9998 55.7282 26.0529C55.7669 26.106 55.7946 26.1662 55.81 26.23C56.268 28.125 56.5 30.066 56.5 32C56.5 45.509 45.509 56.5 32 56.5Z" fill="#161B36"/>
<path d="M32 35.5C27.313 35.5 23.5 31.687 23.5 27C23.5 22.313 27.313 18.5 32 18.5C36.687 18.5 40.5 22.313 40.5 27C40.5 31.687 36.687 35.5 32 35.5ZM32 19.5C27.864 19.5 24.5 22.864 24.5 27C24.5 31.136 27.864 34.5 32 34.5C36.136 34.5 39.5 31.136 39.5 27C39.5 22.864 36.136 19.5 32 19.5Z" fill="#161B36"/>
<path d="M37.547 22.3741L38.143 21.8781C37.0902 20.6162 35.6743 19.709 34.0878 19.2802C32.5012 18.8513 30.8211 18.9214 29.2759 19.481C27.7306 20.0406 26.3952 21.0626 25.4513 22.4079C24.5073 23.7533 24.0006 25.3567 24 27.0001H24.755C29.429 27.0001 33.955 25.3631 37.547 22.3741Z" fill="#34AD82"/>
<path d="M24.755 27.5H24C23.8674 27.5 23.7402 27.4473 23.6464 27.3536C23.5527 27.2598 23.5 27.1326 23.5 27C23.5 22.313 27.313 18.5 32 18.5C33.2457 18.4992 34.4764 18.7728 35.6044 19.3013C36.7325 19.8298 37.7303 20.6003 38.527 21.558C38.5692 21.6085 38.6009 21.6667 38.6206 21.7295C38.6402 21.7923 38.6472 21.8583 38.6412 21.9238C38.6353 21.9893 38.6165 22.0529 38.5859 22.1111C38.5553 22.1694 38.5136 22.221 38.463 22.263L37.867 22.759C34.1827 25.8196 29.5447 27.4966 24.755 27.5ZM24.517 26.5H24.756C29.303 26.5 33.732 24.898 37.228 21.99L37.426 21.825C36.7266 21.0896 35.8849 20.5043 34.9521 20.1046C34.0192 19.7049 33.0148 19.4992 32 19.5C28.033 19.5 24.775 22.597 24.517 26.5ZM32.004 40.968C31.922 40.968 31.8413 40.9479 31.7689 40.9093C31.6965 40.8708 31.6348 40.815 31.589 40.747L28.586 36.284C28.5309 36.2014 28.5013 36.1043 28.501 36.005L28.5 34.41C28.4998 34.3279 28.5199 34.247 28.5584 34.1745C28.5968 34.102 28.6526 34.04 28.7207 33.9942C28.7888 33.9483 28.8672 33.9199 28.9488 33.9115C29.0305 33.9031 29.113 33.915 29.189 33.946C30.9921 34.6784 33.0094 34.6806 34.814 33.952C34.8898 33.9212 34.9721 33.9094 35.0535 33.9179C35.1349 33.9263 35.213 33.9547 35.2809 34.0004C35.3488 34.0462 35.4043 34.1079 35.4427 34.1802C35.4811 34.2525 35.5011 34.3331 35.501 34.415L35.502 35.994C35.502 36.094 35.473 36.19 35.418 36.273L32.421 40.746C32.375 40.8143 32.3129 40.8703 32.2402 40.909C32.1675 40.9477 32.0864 40.968 32.004 40.968ZM29.5 35.853L32.002 39.572L34.5 35.844V35.125C32.8706 35.6254 31.1284 35.6237 29.5 35.12V35.853Z" fill="#161B36"/>
<path d="M32.0039 40.9675H28.4999C28.4295 40.9674 28.36 40.9524 28.2957 40.9237C28.2315 40.8949 28.174 40.8529 28.1271 40.8005C28.0801 40.748 28.0447 40.6863 28.0232 40.6193C28.0016 40.5523 27.9944 40.4815 28.0019 40.4115L28.5019 35.9486C28.5133 35.8468 28.5557 35.751 28.6234 35.6741C28.691 35.5972 28.7806 35.5429 28.8801 35.5186C28.9795 35.4942 29.0841 35.5011 29.1796 35.5381C29.275 35.5751 29.3569 35.6405 29.4139 35.7256L32.0019 39.5705L34.5829 35.7165C34.64 35.6316 34.7217 35.5661 34.8171 35.5291C34.9125 35.492 35.017 35.4851 35.1164 35.5093C35.2158 35.5335 35.3055 35.5877 35.3732 35.6644C35.4409 35.7412 35.4834 35.8369 35.4949 35.9385L35.9949 40.4105C36.0028 40.4806 35.9958 40.5515 35.9744 40.6186C35.9529 40.6858 35.9176 40.7476 35.8705 40.8001C35.8235 40.8526 35.7659 40.8946 35.7015 40.9233C35.6371 40.952 35.5674 40.9667 35.4969 40.9665L32.0039 40.9675ZM32.9399 39.9675H34.9399L34.6539 37.4085L32.9399 39.9675ZM29.0589 39.9675H31.0639L29.3449 37.4136L29.0589 39.9675Z" fill="#161B36"/>
<path d="M32.0039 40.9677C31.9219 40.9678 31.8412 40.9476 31.7688 40.9091C31.6964 40.8705 31.6346 40.8148 31.5889 40.7468L28.8199 36.6317L23.1729 39.1407C22.8142 39.3032 22.4783 39.512 22.1739 39.7618C22.0705 39.8413 21.9401 39.8772 21.8106 39.8619C21.681 39.8466 21.5626 39.7813 21.4805 39.68C21.3985 39.5786 21.3592 39.4491 21.3713 39.3193C21.3833 39.1894 21.4456 39.0693 21.5449 38.9848C21.9339 38.6698 22.3449 38.4148 22.7669 38.2278L28.7979 35.5478C28.9055 35.5006 29.0262 35.4926 29.1391 35.5251C29.2519 35.5576 29.3499 35.6286 29.4159 35.7258L32.0029 39.5707L34.5849 35.7167C34.6509 35.6194 34.7491 35.5482 34.8622 35.5157C34.9753 35.4832 35.0962 35.4913 35.2039 35.5388L41.2379 38.2268C41.6569 38.4138 42.0679 38.6678 42.4569 38.9838C42.5537 39.0692 42.6138 39.1888 42.6246 39.3176C42.6353 39.4463 42.596 39.5742 42.5147 39.6746C42.4334 39.775 42.3164 39.8401 42.1883 39.8564C42.0601 39.8726 41.9307 39.8387 41.8269 39.7618C41.5234 39.5117 41.1881 39.3029 40.8299 39.1407L35.1809 36.6238L32.4189 40.7468C32.3732 40.8149 32.3114 40.8706 32.239 40.9092C32.1667 40.9477 32.0859 40.9678 32.0039 40.9677Z" fill="#161B36"/>
<path d="M32.0039 53.4998C31.8713 53.4998 31.7441 53.4471 31.6504 53.3533C31.5566 53.2596 31.5039 53.1324 31.5039 52.9998V40.4678C31.5039 40.3352 31.5566 40.208 31.6504 40.1142C31.7441 40.0205 31.8713 39.9678 32.0039 39.9678C32.1365 39.9678 32.2637 40.0205 32.3575 40.1142C32.4512 40.208 32.5039 40.3352 32.5039 40.4678V52.9998C32.5039 53.1324 32.4512 53.2596 32.3575 53.3533C32.2637 53.4471 32.1365 53.4998 32.0039 53.4998Z" fill="#161B36"/>
<path d="M44.004 49.6138C43.8714 49.6138 43.7442 49.5611 43.6504 49.4673C43.5567 49.3736 43.504 49.2464 43.504 49.1138V43.2508C43.5035 42.3811 43.2513 41.5302 42.7779 40.8007C42.3045 40.0713 41.63 39.4944 40.836 39.1398L35.186 36.6228L32.424 40.7458C32.3783 40.8139 32.3166 40.8697 32.2443 40.9084C32.172 40.947 32.0913 40.9673 32.0092 40.9674C31.9272 40.9675 31.8465 40.9474 31.7741 40.9089C31.7016 40.8705 31.6398 40.8148 31.594 40.7468L28.824 36.6318L23.177 39.1408C22.5162 39.4346 21.936 39.8833 21.4853 40.4488C21.0347 41.0143 20.7269 41.6801 20.588 42.3898C20.5567 42.5142 20.479 42.6219 20.3707 42.6907C20.2624 42.7594 20.1318 42.784 20.0059 42.7594C19.88 42.7348 19.7684 42.6628 19.694 42.5583C19.6196 42.4539 19.5881 42.3248 19.606 42.1978C19.776 41.3304 20.1524 40.5167 20.7033 39.8255C21.2542 39.1344 21.9634 38.586 22.771 38.2268L28.802 35.5468C28.9095 35.4994 29.0303 35.4913 29.1432 35.5238C29.2562 35.5563 29.3541 35.6275 29.42 35.7248L32.008 39.5698L34.59 35.7158C34.656 35.6184 34.7542 35.5472 34.8673 35.5147C34.9804 35.4822 35.1013 35.4903 35.209 35.5378L41.244 38.2258C42.2144 38.6591 43.0387 39.3641 43.6174 40.2556C44.196 41.1471 44.5043 42.187 44.505 43.2498V49.1128C44.5047 49.2456 44.4519 49.3728 44.358 49.4667C44.2641 49.5606 44.1368 49.6135 44.004 49.6138Z" fill="#161B36"/>
<path d="M10 57.5C14.4183 57.5 18 53.9183 18 49.5C18 45.0817 14.4183 41.5 10 41.5C5.58172 41.5 2 45.0817 2 49.5C2 53.9183 5.58172 57.5 10 57.5Z" fill="#34AD82"/>
<path d="M10.4878 58C5.80079 58 1.98779 54.187 1.98779 49.5C1.98779 44.813 5.80079 41 10.4878 41C15.1748 41 18.9878 44.813 18.9878 49.5C18.9878 54.187 15.1748 58 10.4878 58ZM10.4878 42C6.35179 42 2.98779 45.364 2.98779 49.5C2.98779 53.636 6.35179 57 10.4878 57C14.6238 57 17.9878 53.636 17.9878 49.5C17.9878 45.364 14.6238 42 10.4878 42Z" fill="#161B36"/>
<path d="M13.0375 47.7875L12.7864 48.6443H8L8.25114 47.7875H13.0375ZM10.792 53.5636L8.08864 50.2545L8.07386 49.6341H9.41818C9.7678 49.6341 10.0657 49.5848 10.3119 49.4864C10.5581 49.3854 10.7465 49.2352 10.877 49.0358C11.0075 48.8339 11.0727 48.5803 11.0727 48.275C11.0727 47.8244 10.9373 47.4711 10.6665 47.2151C10.3956 46.9565 9.97955 46.8273 9.41818 46.8273H8L8.25114 46H9.41818C10.0189 46 10.5114 46.0997 10.8955 46.2991C11.282 46.4961 11.5676 46.767 11.7523 47.1116C11.9394 47.4539 12.033 47.8417 12.033 48.275C12.033 48.6665 11.9468 49.0272 11.7744 49.3571C11.6045 49.6846 11.3312 49.948 10.9545 50.1474C10.5803 50.3469 10.0854 50.4466 9.46989 50.4466H9.44773L11.9443 53.5045V53.5636H10.792ZM13.0375 46L12.7864 46.8568L9.01932 46.8273L9.27045 46H13.0375Z" fill="#161B36"/>
</svg>
