<svg width="64" height="64" viewBox="0 0 64 64" fill="none" xmlns="http://www.w3.org/2000/svg">
<path d="M55.5 41H60.5M62.5 41H63.5M9.5 7.5H4.5M2.5 7.5H1.5" stroke="#161B36" stroke-miterlimit="10" stroke-linecap="round" stroke-linejoin="round"/>
<path d="M30 22.7002C34.4183 22.7002 38 19.1185 38 14.7002C38 10.2819 34.4183 6.7002 30 6.7002C25.5817 6.7002 22 10.2819 22 14.7002C22 19.1185 25.5817 22.7002 30 22.7002Z" stroke="#161B36" stroke-miterlimit="10" stroke-linecap="round" stroke-linejoin="round"/>
<path d="M35.5 10.1002L36.1 9.6002C34.6 7.8002 32.4 6.7002 30 6.7002C25.6 6.7002 22 10.3002 22 14.7002H22.8C27.4 14.7002 32 13.1002 35.5 10.1002Z" fill="#34AD82" stroke="#161B36" stroke-miterlimit="10" stroke-linecap="round" stroke-linejoin="round"/>
<path d="M37 33.7996V40.7996M23 33.7996V40.7996M30 22.6996C28.9 22.6996 27.9 22.4996 27 22.0996V23.6996L30 28.1996L33 23.6996V22.0996C32.1 22.4996 31.1 22.6996 30 22.6996Z" stroke="#161B36" stroke-miterlimit="10" stroke-linecap="round" stroke-linejoin="round"/>
<path d="M32.5 40.1992L30 42.6992L27.5 40.1992L29 28.1992H31L32.5 40.1992Z" fill="#90CAF9" stroke="#161B36" stroke-miterlimit="10" stroke-linecap="round" stroke-linejoin="round"/>
<path d="M27 23.7992L26.5 28.1992H33.5L33 23.6992L30 28.1992L27 23.7992Z" stroke="#161B36" stroke-miterlimit="10" stroke-linecap="round" stroke-linejoin="round"/>
<path d="M42 40.7992V30.9992C42 28.9992 40.8 27.1992 39 26.3992L33 23.6992L30 28.1992L27 23.6992L21 26.3992C19.2 27.1992 18 28.9992 18 30.9992V40.7992" stroke="#161B36" stroke-miterlimit="10" stroke-linecap="round" stroke-linejoin="round"/>
<path d="M46.9 44.5C51.3 40.2 54 34.1 54 27.5C54 14.2 43.3 3.5 30 3.5C16.7 3.5 6 14.2 6 27.5C6 34.1 8.7 40.2 13.1 44.5" stroke="#161B36" stroke-miterlimit="10" stroke-linecap="round" stroke-linejoin="round"/>
<path d="M58 60.5H3C1.6 60.5 0.5 59.4 0.5 58V49C0.5 47.6 1.6 46.5 3 46.5H58C59.4 46.5 60.5 47.6 60.5 49V58C60.5 59.4 59.4 60.5 58 60.5Z" stroke="#161B36" stroke-miterlimit="10" stroke-linecap="round" stroke-linejoin="round"/>
<path d="M30.5 49.5L31.7 52.1L34.5 52.6L32.5 54.6L33 57.5L30.5 56.1L28 57.5L28.5 54.6L26.5 52.6L29.3 52.1L30.5 49.5ZM19.5 49.5L20.7 52.1L23.5 52.6L21.5 54.6L22 57.5L19.5 56.1L17 57.5L17.5 54.6L15.5 52.6L18.3 52.1L19.5 49.5ZM8.5 49.5L9.7 52.1L12.5 52.6L10.5 54.6L11 57.5L8.5 56.1L6 57.5L6.5 54.6L4.5 52.6L7.3 52.1L8.5 49.5ZM41.5 49.5L42.7 52.1L45.5 52.6L43.5 54.6L44 57.5L41.5 56.1L39 57.5L39.5 54.6L37.5 52.6L40.3 52.1L41.5 49.5ZM52.5 49.5L53.7 52.1L56.5 52.6L54.5 54.6L55 57.5L52.5 56.1L50 57.5L50.5 54.6L48.5 52.6L51.3 52.1L52.5 49.5Z" fill="#FFB300" stroke="#161B36" stroke-miterlimit="10" stroke-linecap="round" stroke-linejoin="round"/>
</svg>
